M48
; DRILL file {KiCad 7.0.6} date Sat Aug 12 18:04:30 2023
; FORMAT={-:-/ absolute / inch / decimal}
; #@! TF.CreationDate,2023-08-12T18:04:30-04:00
; #@! TF.GenerationSoftware,Kicad,Pcbnew,7.0.6
; #@! TF.FileFunction,Plated,1,2,PTH
FMAT,2
INCH
; #@! TA.AperFunction,Plated,PTH,ComponentDrill
T1C0.0430
%
G90
G05
T1
X1.3062Y-0.9
X1.3062Y-1.5
X1.4062Y-0.9
X1.4062Y-1.5
X1.5062Y-0.9
X1.5062Y-1.5
X1.6062Y-0.9
X1.6062Y-1.5
X1.7063Y-0.9
X1.7063Y-1.5
X1.8062Y-0.9
X1.8062Y-1.5
X1.9062Y-0.9
X1.9062Y-1.5
X2.0063Y-0.9
X2.0063Y-1.5
X2.1062Y-0.9
X2.1062Y-1.5
X2.2062Y-0.9
X2.2062Y-1.2
X2.2062Y-1.3
X2.2062Y-1.4
X2.2062Y-1.5
X2.3062Y-0.9
X2.3062Y-1.5
X2.4062Y-0.9
X2.4062Y-1.5
X5.1845Y-0.9187
X5.1845Y-1.5188
X5.2845Y-0.9187
X5.2845Y-1.5188
X5.3845Y-0.9187
X5.3845Y-1.5188
X5.4845Y-0.9187
X5.4845Y-1.5188
X5.5845Y-0.9187
X5.5845Y-1.5188
X5.6845Y-0.9187
X5.6845Y-1.5188
X5.7845Y-0.9187
X5.7845Y-1.5188
X5.8845Y-0.9187
X5.8845Y-1.5188
X5.9845Y-0.9187
X5.9845Y-1.5188
X6.0845Y-0.9187
X6.0845Y-1.2188
X6.0845Y-1.3187
X6.0845Y-1.4187
X6.0845Y-1.5188
X6.1845Y-0.9187
X6.1845Y-1.5188
X6.2845Y-0.9187
X6.2845Y-1.5188
T0
M30
