M48
; DRILL file {KiCad 7.0.6} date Sat Aug 12 18:04:30 2023
; FORMAT={-:-/ absolute / inch / decimal}
; #@! TF.CreationDate,2023-08-12T18:04:30-04:00
; #@! TF.GenerationSoftware,Kicad,Pcbnew,7.0.6
; #@! TF.FileFunction,NonPlated,1,2,NPTH
FMAT,2
INCH
; #@! TA.AperFunction,NonPlated,NPTH,ComponentDrill
T1C0.0039
; #@! TA.AperFunction,NonPlated,NPTH,ComponentDrill
T2C0.0669
; #@! TA.AperFunction,NonPlated,NPTH,ComponentDrill
T3C0.0748
; #@! TA.AperFunction,NonPlated,NPTH,ComponentDrill
T4C0.1181
; #@! TA.AperFunction,NonPlated,NPTH,ComponentDrill
T5C0.1575
%
G90
G05
T1
X7.2419Y-4.1609
X8.3669Y-4.1609
T2
X1.321Y-2.0125
X1.321Y-2.7625
X1.321Y-3.5125
X1.321Y-4.2625
X1.721Y-2.0125
X1.721Y-2.7625
X1.721Y-3.5125
X1.721Y-4.2625
X2.071Y-2.0125
X2.071Y-2.7625
X2.071Y-3.5125
X2.071Y-4.2625
X2.471Y-2.0125
X2.471Y-2.7625
X2.471Y-3.5125
X2.471Y-4.2625
X2.821Y-2.0125
X2.821Y-2.7625
X2.821Y-3.5125
X2.821Y-4.2625
X3.221Y-2.0125
X3.221Y-2.7625
X3.221Y-3.5125
X3.221Y-4.2625
X3.571Y-2.0125
X3.571Y-2.7625
X3.571Y-3.5125
X3.571Y-4.2625
X3.971Y-2.0125
X3.971Y-2.7625
X3.971Y-3.5125
X3.971Y-4.2625
X4.321Y-2.0125
X4.321Y-2.7625
X4.321Y-3.5125
X4.321Y-4.2625
X4.721Y-2.0125
X4.721Y-2.7625
X4.721Y-3.5125
X4.721Y-4.2625
X5.2038Y-2.0125
X5.2038Y-2.7625
X5.2038Y-3.5125
X5.2038Y-4.2625
X5.6038Y-2.0125
X5.6038Y-2.7625
X5.6038Y-3.5125
X5.6038Y-4.2625
X5.9538Y-2.0125
X5.9538Y-2.7625
X5.9538Y-3.5125
X5.9538Y-4.2625
X6.3538Y-2.0125
X6.3538Y-2.7625
X6.3538Y-3.5125
X6.3538Y-4.2625
X6.7038Y-2.0125
X6.7038Y-2.7625
X6.7038Y-3.5125
X6.8913Y-4.2625
X7.1038Y-2.0125
X7.1038Y-2.7625
X7.1038Y-3.5125
X7.2913Y-4.2625
X7.4538Y-2.0125
X7.4538Y-2.7625
X7.4538Y-3.5125
X7.8538Y-2.0125
X7.8538Y-2.7625
X7.8538Y-3.5125
X8.0163Y-4.2625
X8.2038Y-2.0125
X8.2038Y-2.7625
X8.2038Y-3.5125
X8.4163Y-4.2625
X8.6038Y-2.0125
X8.6038Y-2.7625
X8.6038Y-3.5125
T3
X1.3045Y-2.0125
X1.3045Y-2.7625
X1.3045Y-3.5125
X1.3045Y-4.2625
X1.7375Y-2.0125
X1.7375Y-2.7625
X1.7375Y-3.5125
X1.7375Y-4.2625
X2.0545Y-2.0125
X2.0545Y-2.7625
X2.0545Y-3.5125
X2.0545Y-4.2625
X2.4875Y-2.0125
X2.4875Y-2.7625
X2.4875Y-3.5125
X2.4875Y-4.2625
X2.8045Y-2.0125
X2.8045Y-2.7625
X2.8045Y-3.5125
X2.8045Y-4.2625
X3.2375Y-2.0125
X3.2375Y-2.7625
X3.2375Y-3.5125
X3.2375Y-4.2625
X3.5545Y-2.0125
X3.5545Y-2.7625
X3.5545Y-3.5125
X3.5545Y-4.2625
X3.9875Y-2.0125
X3.9875Y-2.7625
X3.9875Y-3.5125
X3.9875Y-4.2625
X4.3045Y-2.0125
X4.3045Y-2.7625
X4.3045Y-3.5125
X4.3045Y-4.2625
X4.7375Y-2.0125
X4.7375Y-2.7625
X4.7375Y-3.5125
X4.7375Y-4.2625
X5.1873Y-2.0125
X5.1873Y-2.7625
X5.1873Y-3.5125
X5.1873Y-4.2625
X5.6203Y-2.0125
X5.6203Y-2.7625
X5.6203Y-3.5125
X5.6203Y-4.2625
X5.9373Y-2.0125
X5.9373Y-2.7625
X5.9373Y-3.5125
X5.9373Y-4.2625
X6.3703Y-2.0125
X6.3703Y-2.7625
X6.3703Y-3.5125
X6.3703Y-4.2625
X6.6873Y-2.0125
X6.6873Y-2.7625
X6.6873Y-3.5125
X6.8748Y-4.2625
X7.1203Y-2.0125
X7.1203Y-2.7625
X7.1203Y-3.5125
X7.3078Y-4.2625
X7.4373Y-2.0125
X7.4373Y-2.7625
X7.4373Y-3.5125
X7.8703Y-2.0125
X7.8703Y-2.7625
X7.8703Y-3.5125
X7.9998Y-4.2625
X8.1873Y-2.0125
X8.1873Y-2.7625
X8.1873Y-3.5125
X8.4328Y-4.2625
X8.6203Y-2.0125
X8.6203Y-2.7625
X8.6203Y-3.5125
T4
X1.421Y-1.8125
X1.421Y-2.5625
X1.421Y-3.3125
X1.421Y-4.0625
X1.521Y-2.2448
X1.521Y-2.9948
X1.521Y-3.7448
X1.521Y-4.4948
X1.671Y-1.9125
X1.671Y-2.6625
X1.671Y-3.4125
X1.671Y-4.1625
X1.7179Y-2.1582
X1.7179Y-2.9082
X1.7179Y-3.6582
X1.7179Y-4.4082
X2.171Y-1.8125
X2.171Y-2.5625
X2.171Y-3.3125
X2.171Y-4.0625
X2.271Y-2.2448
X2.271Y-2.9948
X2.271Y-3.7448
X2.271Y-4.4948
X2.421Y-1.9125
X2.421Y-2.6625
X2.421Y-3.4125
X2.421Y-4.1625
X2.4679Y-2.1582
X2.4679Y-2.9082
X2.4679Y-3.6582
X2.4679Y-4.4082
X2.921Y-1.8125
X2.921Y-2.5625
X2.921Y-3.3125
X2.921Y-4.0625
X3.021Y-2.2448
X3.021Y-2.9948
X3.021Y-3.7448
X3.021Y-4.4948
X3.171Y-1.9125
X3.171Y-2.6625
X3.171Y-3.4125
X3.171Y-4.1625
X3.2179Y-2.1582
X3.2179Y-2.9082
X3.2179Y-3.6582
X3.2179Y-4.4082
X3.671Y-1.8125
X3.671Y-2.5625
X3.671Y-3.3125
X3.671Y-4.0625
X3.771Y-2.2448
X3.771Y-2.9948
X3.771Y-3.7448
X3.771Y-4.4948
X3.921Y-1.9125
X3.921Y-2.6625
X3.921Y-3.4125
X3.921Y-4.1625
X3.9679Y-2.1582
X3.9679Y-2.9082
X3.9679Y-3.6582
X3.9679Y-4.4082
X4.421Y-1.8125
X4.421Y-2.5625
X4.421Y-3.3125
X4.421Y-4.0625
X4.521Y-2.2448
X4.521Y-2.9948
X4.521Y-3.7448
X4.521Y-4.4948
X4.671Y-1.9125
X4.671Y-2.6625
X4.671Y-3.4125
X4.671Y-4.1625
X4.7179Y-2.1582
X4.7179Y-2.9082
X4.7179Y-3.6582
X4.7179Y-4.4082
X5.3038Y-1.8125
X5.3038Y-2.5625
X5.3038Y-3.3125
X5.3038Y-4.0625
X5.4038Y-2.2448
X5.4038Y-2.9948
X5.4038Y-3.7448
X5.4038Y-4.4948
X5.5538Y-1.9125
X5.5538Y-2.6625
X5.5538Y-3.4125
X5.5538Y-4.1625
X5.6006Y-2.1582
X5.6006Y-2.9082
X5.6006Y-3.6582
X5.6006Y-4.4082
X6.0538Y-1.8125
X6.0538Y-2.5625
X6.0538Y-3.3125
X6.0538Y-4.0625
X6.1538Y-2.2448
X6.1538Y-2.9948
X6.1538Y-3.7448
X6.1538Y-4.4948
X6.3038Y-1.9125
X6.3038Y-2.6625
X6.3038Y-3.4125
X6.3038Y-4.1625
X6.3506Y-2.1582
X6.3506Y-2.9082
X6.3506Y-3.6582
X6.3506Y-4.4082
X6.8038Y-1.8125
X6.8038Y-2.5625
X6.8038Y-3.3125
X6.9038Y-2.2448
X6.9038Y-2.9948
X6.9038Y-3.7448
X6.9913Y-4.0625
X7.0538Y-1.9125
X7.0538Y-2.6625
X7.0538Y-3.4125
X7.0913Y-4.4948
X7.1006Y-2.1582
X7.1006Y-2.9082
X7.1006Y-3.6582
X7.2413Y-4.1625
X7.2413Y-4.1625
X7.2881Y-4.4082
X7.5538Y-1.8125
X7.5538Y-2.5625
X7.5538Y-3.3125
X7.6538Y-2.2448
X7.6538Y-2.9948
X7.6538Y-3.7448
X7.8038Y-1.9125
X7.8038Y-2.6625
X7.8038Y-3.4125
X7.8506Y-2.1582
X7.8506Y-2.9082
X7.8506Y-3.6582
X8.1163Y-4.0625
X8.2163Y-4.4948
X8.3038Y-1.8125
X8.3038Y-2.5625
X8.3038Y-3.3125
X8.3663Y-4.1625
X8.3663Y-4.1625
X8.4038Y-2.2448
X8.4038Y-2.9948
X8.4038Y-3.7448
X8.4131Y-4.4082
X8.5538Y-1.9125
X8.5538Y-2.6625
X8.5538Y-3.4125
X8.6006Y-2.1582
X8.6006Y-2.9082
X8.6006Y-3.6582
T5
X1.521Y-2.0125
X1.521Y-2.7625
X1.521Y-3.5125
X1.521Y-4.2625
X2.271Y-2.0125
X2.271Y-2.7625
X2.271Y-3.5125
X2.271Y-4.2625
X3.021Y-2.0125
X3.021Y-2.7625
X3.021Y-3.5125
X3.021Y-4.2625
X3.771Y-2.0125
X3.771Y-2.7625
X3.771Y-3.5125
X3.771Y-4.2625
X4.521Y-2.0125
X4.521Y-2.7625
X4.521Y-3.5125
X4.521Y-4.2625
X5.4038Y-2.0125
X5.4038Y-2.7625
X5.4038Y-3.5125
X5.4038Y-4.2625
X6.1538Y-2.0125
X6.1538Y-2.7625
X6.1538Y-3.5125
X6.1538Y-4.2625
X6.9038Y-2.0125
X6.9038Y-2.7625
X6.9038Y-3.5125
X7.0913Y-4.2625
X7.6538Y-2.0125
X7.6538Y-2.7625
X7.6538Y-3.5125
X8.2163Y-4.2625
X8.4038Y-2.0125
X8.4038Y-2.7625
X8.4038Y-3.5125
T0
M30
