%TF.GenerationSoftware,KiCad,Pcbnew,7.0.6*%
%TF.CreationDate,2023-11-09T09:41:33-05:00*%
%TF.ProjectId,split38,73706c69-7433-4382-9e6b-696361645f70,rev?*%
%TF.SameCoordinates,Original*%
%TF.FileFunction,Soldermask,Top*%
%TF.FilePolarity,Negative*%
%FSLAX46Y46*%
G04 Gerber Fmt 4.6, Leading zero omitted, Abs format (unit mm)*
G04 Created by KiCad (PCBNEW 7.0.6) date 2023-11-09 09:41:33*
%MOMM*%
%LPD*%
G01*
G04 APERTURE LIST*
G04 Aperture macros list*
%AMRoundRect*
0 Rectangle with rounded corners*
0 $1 Rounding radius*
0 $2 $3 $4 $5 $6 $7 $8 $9 X,Y pos of 4 corners*
0 Add a 4 corners polygon primitive as box body*
4,1,4,$2,$3,$4,$5,$6,$7,$8,$9,$2,$3,0*
0 Add four circle primitives for the rounded corners*
1,1,$1+$1,$2,$3*
1,1,$1+$1,$4,$5*
1,1,$1+$1,$6,$7*
1,1,$1+$1,$8,$9*
0 Add four rect primitives between the rounded corners*
20,1,$1+$1,$2,$3,$4,$5,0*
20,1,$1+$1,$4,$5,$6,$7,0*
20,1,$1+$1,$6,$7,$8,$9,0*
20,1,$1+$1,$8,$9,$2,$3,0*%
G04 Aperture macros list end*
%ADD10RoundRect,0.250000X0.625000X-0.350000X0.625000X0.350000X-0.625000X0.350000X-0.625000X-0.350000X0*%
%ADD11O,1.750000X1.200000*%
%ADD12R,1.000000X0.800000*%
%ADD13C,0.900000*%
%ADD14R,0.700000X1.500000*%
%ADD15C,1.752600*%
%ADD16RoundRect,0.250000X-0.625000X0.350000X-0.625000X-0.350000X0.625000X-0.350000X0.625000X0.350000X0*%
%ADD17C,0.750000*%
%ADD18R,1.550000X1.000000*%
%ADD19C,2.100000*%
%ADD20C,1.900000*%
%ADD21C,3.000000*%
%ADD22C,3.300000*%
%ADD23C,4.000000*%
G04 APERTURE END LIST*
D10*
%TO.C,J1*%
X66144889Y-39199187D03*
D11*
X66144889Y-37199187D03*
%TD*%
D12*
%TO.C,SW1*%
X81874756Y-32776021D03*
X81874756Y-30566021D03*
D13*
X79724756Y-31666021D03*
X76724756Y-31666021D03*
D12*
X74574756Y-32776021D03*
X74574756Y-30566021D03*
D14*
X80474756Y-33426021D03*
X77474756Y-33426021D03*
X75974756Y-33426021D03*
%TD*%
D15*
%TO.C,U1*%
X35163100Y-45720000D03*
X37703100Y-45720000D03*
X40243100Y-45720000D03*
X42783100Y-45720000D03*
X45323100Y-45720000D03*
X47863100Y-45720000D03*
X50403100Y-45720000D03*
X52943100Y-45720000D03*
X55483100Y-45720000D03*
X58023100Y-45720000D03*
X60563100Y-45720000D03*
X63103100Y-45720000D03*
X63103100Y-30480000D03*
X60563100Y-30480000D03*
X58023100Y-30480000D03*
X55483100Y-30480000D03*
X52943100Y-30480000D03*
X50403100Y-30480000D03*
X47863100Y-30480000D03*
X45323100Y-30480000D03*
X42783100Y-30480000D03*
X40243100Y-30480000D03*
X37703100Y-30480000D03*
X35163100Y-30480000D03*
X58023100Y-43180000D03*
X58023100Y-40640000D03*
X58023100Y-38100000D03*
%TD*%
D16*
%TO.C,J2*%
X174224415Y-37286478D03*
D11*
X174224415Y-39286478D03*
%TD*%
D17*
%TO.C,SW4*%
X171450000Y-30587500D03*
X171450000Y-33337500D03*
D18*
X168825000Y-31112500D03*
X174075000Y-31112500D03*
X168825000Y-32812500D03*
X174075000Y-32812500D03*
%TD*%
D12*
%TO.C,SW2*%
X165909615Y-32713808D03*
X165909615Y-30503808D03*
D13*
X163759615Y-31603808D03*
X160759615Y-31603808D03*
D12*
X158609615Y-32713808D03*
X158609615Y-30503808D03*
D14*
X164509615Y-33363808D03*
X161509615Y-33363808D03*
X160009615Y-33363808D03*
%TD*%
D17*
%TO.C,SW3*%
X69056250Y-30587500D03*
X69056250Y-33337500D03*
D18*
X66431250Y-31112500D03*
X71681250Y-31112500D03*
X66431250Y-32812500D03*
X71681250Y-32812500D03*
%TD*%
D15*
%TO.C,U2*%
X205373001Y-30463274D03*
X202833001Y-30463274D03*
X200293001Y-30463274D03*
X197753001Y-30463274D03*
X195213001Y-30463274D03*
X192673001Y-30463274D03*
X190133001Y-30463274D03*
X187593001Y-30463274D03*
X185053001Y-30463274D03*
X182513001Y-30463274D03*
X179973001Y-30463274D03*
X177433001Y-30463274D03*
X177433001Y-45703274D03*
X179973001Y-45703274D03*
X182513001Y-45703274D03*
X185053001Y-45703274D03*
X187593001Y-45703274D03*
X190133001Y-45703274D03*
X192673001Y-45703274D03*
X195213001Y-45703274D03*
X197753001Y-45703274D03*
X200293001Y-45703274D03*
X202833001Y-45703274D03*
X205373001Y-45703274D03*
X182513001Y-33003274D03*
X182513001Y-35543274D03*
X182513001Y-38083274D03*
%TD*%
D19*
%TO.C,MX14*%
X95987500Y-95250000D03*
X95987500Y-95250000D03*
D20*
X95567500Y-95250000D03*
X95567500Y-95250000D03*
D21*
X90487500Y-101150000D03*
D22*
X90487500Y-101150000D03*
D23*
X90487500Y-95250000D03*
X90487500Y-95250000D03*
D21*
X85487500Y-98950000D03*
D22*
X85487500Y-98950000D03*
D20*
X85407500Y-95250000D03*
X85407500Y-95250000D03*
D19*
X84987500Y-95250000D03*
X84987500Y-95250000D03*
D22*
X86677500Y-92710000D03*
X93027500Y-90170000D03*
%TD*%
D19*
%TO.C,MX30*%
X212668800Y-76200000D03*
X212668800Y-76200000D03*
D20*
X212248800Y-76200000D03*
X212248800Y-76200000D03*
D21*
X207168800Y-82100000D03*
D22*
X207168800Y-82100000D03*
D23*
X207168800Y-76200000D03*
X207168800Y-76200000D03*
D21*
X202168800Y-79900000D03*
D22*
X202168800Y-79900000D03*
D20*
X202088800Y-76200000D03*
X202088800Y-76200000D03*
D19*
X201668800Y-76200000D03*
X201668800Y-76200000D03*
D22*
X203358800Y-73660000D03*
X209708800Y-71120000D03*
%TD*%
D19*
%TO.C,MX13*%
X76937500Y-95250000D03*
X76937500Y-95250000D03*
D20*
X76517500Y-95250000D03*
X76517500Y-95250000D03*
D21*
X71437500Y-101150000D03*
D22*
X71437500Y-101150000D03*
D23*
X71437500Y-95250000D03*
X71437500Y-95250000D03*
D21*
X66437500Y-98950000D03*
D22*
X66437500Y-98950000D03*
D20*
X66357500Y-95250000D03*
X66357500Y-95250000D03*
D19*
X65937500Y-95250000D03*
X65937500Y-95250000D03*
D22*
X67627500Y-92710000D03*
X73977500Y-90170000D03*
%TD*%
D19*
%TO.C,MX1*%
X38837500Y-57150000D03*
X38837500Y-57150000D03*
D20*
X38417500Y-57150000D03*
X38417500Y-57150000D03*
D21*
X33337500Y-63050000D03*
D22*
X33337500Y-63050000D03*
D23*
X33337500Y-57150000D03*
X33337500Y-57150000D03*
D21*
X28337500Y-60850000D03*
D22*
X28337500Y-60850000D03*
D20*
X28257500Y-57150000D03*
X28257500Y-57150000D03*
D19*
X27837500Y-57150000D03*
X27837500Y-57150000D03*
D22*
X29527500Y-54610000D03*
X35877500Y-52070000D03*
%TD*%
D19*
%TO.C,MX12*%
X57887500Y-95250000D03*
X57887500Y-95250000D03*
D20*
X57467500Y-95250000D03*
X57467500Y-95250000D03*
D21*
X52387500Y-101150000D03*
D22*
X52387500Y-101150000D03*
D23*
X52387500Y-95250000D03*
X52387500Y-95250000D03*
D21*
X47387500Y-98950000D03*
D22*
X47387500Y-98950000D03*
D20*
X47307500Y-95250000D03*
X47307500Y-95250000D03*
D19*
X46887500Y-95250000D03*
X46887500Y-95250000D03*
D22*
X48577500Y-92710000D03*
X54927500Y-90170000D03*
%TD*%
D19*
%TO.C,MX21*%
X136468800Y-57150000D03*
X136468800Y-57150000D03*
D20*
X136048800Y-57150000D03*
X136048800Y-57150000D03*
D21*
X130968800Y-63050000D03*
D22*
X130968800Y-63050000D03*
D23*
X130968800Y-57150000D03*
X130968800Y-57150000D03*
D21*
X125968800Y-60850000D03*
D22*
X125968800Y-60850000D03*
D20*
X125888800Y-57150000D03*
X125888800Y-57150000D03*
D19*
X125468800Y-57150000D03*
X125468800Y-57150000D03*
D22*
X127158800Y-54610000D03*
X133508800Y-52070000D03*
%TD*%
D19*
%TO.C,MX7*%
X57887500Y-76200000D03*
X57887500Y-76200000D03*
D20*
X57467500Y-76200000D03*
X57467500Y-76200000D03*
D21*
X52387500Y-82100000D03*
D22*
X52387500Y-82100000D03*
D23*
X52387500Y-76200000D03*
X52387500Y-76200000D03*
D21*
X47387500Y-79900000D03*
D22*
X47387500Y-79900000D03*
D20*
X47307500Y-76200000D03*
X47307500Y-76200000D03*
D19*
X46887500Y-76200000D03*
X46887500Y-76200000D03*
D22*
X48577500Y-73660000D03*
X54927500Y-71120000D03*
%TD*%
D19*
%TO.C,MX16*%
X95987500Y-114300000D03*
X95987500Y-114300000D03*
D20*
X95567500Y-114300000D03*
X95567500Y-114300000D03*
D21*
X90487500Y-120200000D03*
D22*
X90487500Y-120200000D03*
D23*
X90487500Y-114300000D03*
X90487500Y-114300000D03*
D21*
X85487500Y-118000000D03*
D22*
X85487500Y-118000000D03*
D20*
X85407500Y-114300000D03*
X85407500Y-114300000D03*
D19*
X84987500Y-114300000D03*
X84987500Y-114300000D03*
D22*
X86677500Y-111760000D03*
X93027500Y-109220000D03*
%TD*%
D19*
%TO.C,MX38*%
X179331300Y-114300000D03*
X179331300Y-114300000D03*
D20*
X178911300Y-114300000D03*
X178911300Y-114300000D03*
D21*
X173831300Y-120200000D03*
D22*
X173831300Y-120200000D03*
D23*
X173831300Y-114300000D03*
X173831300Y-114300000D03*
D21*
X168831300Y-118000000D03*
D22*
X168831300Y-118000000D03*
D20*
X168751300Y-114300000D03*
X168751300Y-114300000D03*
D19*
X168331300Y-114300000D03*
X168331300Y-114300000D03*
D22*
X170021300Y-111760000D03*
X176371300Y-109220000D03*
%TD*%
D19*
%TO.C,MX22*%
X155518800Y-57150000D03*
X155518800Y-57150000D03*
D20*
X155098800Y-57150000D03*
X155098800Y-57150000D03*
D21*
X150018800Y-63050000D03*
D22*
X150018800Y-63050000D03*
D23*
X150018800Y-57150000D03*
X150018800Y-57150000D03*
D21*
X145018800Y-60850000D03*
D22*
X145018800Y-60850000D03*
D20*
X144938800Y-57150000D03*
X144938800Y-57150000D03*
D19*
X144518800Y-57150000D03*
X144518800Y-57150000D03*
D22*
X146208800Y-54610000D03*
X152558800Y-52070000D03*
%TD*%
D19*
%TO.C,MX19*%
X72175000Y-114300000D03*
X72175000Y-114300000D03*
D20*
X71755000Y-114300000D03*
X71755000Y-114300000D03*
D21*
X66675000Y-120200000D03*
D22*
X66675000Y-120200000D03*
D23*
X66675000Y-114300000D03*
X66675000Y-114300000D03*
D21*
X61675000Y-118000000D03*
D22*
X61675000Y-118000000D03*
D20*
X61595000Y-114300000D03*
X61595000Y-114300000D03*
D19*
X61175000Y-114300000D03*
X61175000Y-114300000D03*
D22*
X62865000Y-111760000D03*
X69215000Y-109220000D03*
%TD*%
D19*
%TO.C,MX28*%
X174568800Y-76200000D03*
X174568800Y-76200000D03*
D20*
X174148800Y-76200000D03*
X174148800Y-76200000D03*
D21*
X169068800Y-82100000D03*
D22*
X169068800Y-82100000D03*
D23*
X169068800Y-76200000D03*
X169068800Y-76200000D03*
D21*
X164068800Y-79900000D03*
D22*
X164068800Y-79900000D03*
D20*
X163988800Y-76200000D03*
X163988800Y-76200000D03*
D19*
X163568800Y-76200000D03*
X163568800Y-76200000D03*
D22*
X165258800Y-73660000D03*
X171608800Y-71120000D03*
%TD*%
D19*
%TO.C,MX33*%
X174568800Y-95250000D03*
X174568800Y-95250000D03*
D20*
X174148800Y-95250000D03*
X174148800Y-95250000D03*
D21*
X169068800Y-101150000D03*
D22*
X169068800Y-101150000D03*
D23*
X169068800Y-95250000D03*
X169068800Y-95250000D03*
D21*
X164068800Y-98950000D03*
D22*
X164068800Y-98950000D03*
D20*
X163988800Y-95250000D03*
X163988800Y-95250000D03*
D19*
X163568800Y-95250000D03*
X163568800Y-95250000D03*
D22*
X165258800Y-92710000D03*
X171608800Y-90170000D03*
%TD*%
D19*
%TO.C,MX9*%
X95987500Y-76200000D03*
X95987500Y-76200000D03*
D20*
X95567500Y-76200000D03*
X95567500Y-76200000D03*
D21*
X90487500Y-82100000D03*
D22*
X90487500Y-82100000D03*
D23*
X90487500Y-76200000D03*
X90487500Y-76200000D03*
D21*
X85487500Y-79900000D03*
D22*
X85487500Y-79900000D03*
D20*
X85407500Y-76200000D03*
X85407500Y-76200000D03*
D19*
X84987500Y-76200000D03*
X84987500Y-76200000D03*
D22*
X86677500Y-73660000D03*
X93027500Y-71120000D03*
%TD*%
D19*
%TO.C,MX17*%
X115037500Y-114300000D03*
X115037500Y-114300000D03*
D20*
X114617500Y-114300000D03*
X114617500Y-114300000D03*
D21*
X109537500Y-120200000D03*
D22*
X109537500Y-120200000D03*
D23*
X109537500Y-114300000D03*
X109537500Y-114300000D03*
D21*
X104537500Y-118000000D03*
D22*
X104537500Y-118000000D03*
D20*
X104457500Y-114300000D03*
X104457500Y-114300000D03*
D19*
X104037500Y-114300000D03*
X104037500Y-114300000D03*
D22*
X105727500Y-111760000D03*
X112077500Y-109220000D03*
%TD*%
D19*
%TO.C,MX27*%
X155518800Y-76200000D03*
X155518800Y-76200000D03*
D20*
X155098800Y-76200000D03*
X155098800Y-76200000D03*
D21*
X150018800Y-82100000D03*
D22*
X150018800Y-82100000D03*
D23*
X150018800Y-76200000D03*
X150018800Y-76200000D03*
D21*
X145018800Y-79900000D03*
D22*
X145018800Y-79900000D03*
D20*
X144938800Y-76200000D03*
X144938800Y-76200000D03*
D19*
X144518800Y-76200000D03*
X144518800Y-76200000D03*
D22*
X146208800Y-73660000D03*
X152558800Y-71120000D03*
%TD*%
D19*
%TO.C,MX3*%
X76937500Y-57150000D03*
X76937500Y-57150000D03*
D20*
X76517500Y-57150000D03*
X76517500Y-57150000D03*
D21*
X71437500Y-63050000D03*
D22*
X71437500Y-63050000D03*
D23*
X71437500Y-57150000D03*
X71437500Y-57150000D03*
D21*
X66437500Y-60850000D03*
D22*
X66437500Y-60850000D03*
D20*
X66357500Y-57150000D03*
X66357500Y-57150000D03*
D19*
X65937500Y-57150000D03*
X65937500Y-57150000D03*
D22*
X67627500Y-54610000D03*
X73977500Y-52070000D03*
%TD*%
D19*
%TO.C,MX26*%
X136468800Y-76200000D03*
X136468800Y-76200000D03*
D20*
X136048800Y-76200000D03*
X136048800Y-76200000D03*
D21*
X130968800Y-82100000D03*
D22*
X130968800Y-82100000D03*
D23*
X130968800Y-76200000D03*
X130968800Y-76200000D03*
D21*
X125968800Y-79900000D03*
D22*
X125968800Y-79900000D03*
D20*
X125888800Y-76200000D03*
X125888800Y-76200000D03*
D19*
X125468800Y-76200000D03*
X125468800Y-76200000D03*
D22*
X127158800Y-73660000D03*
X133508800Y-71120000D03*
%TD*%
D19*
%TO.C,MX36*%
X136468800Y-114300000D03*
X136468800Y-114300000D03*
D20*
X136048800Y-114300000D03*
X136048800Y-114300000D03*
D21*
X130968800Y-120200000D03*
D22*
X130968800Y-120200000D03*
D23*
X130968800Y-114300000D03*
X130968800Y-114300000D03*
D21*
X125968800Y-118000000D03*
D22*
X125968800Y-118000000D03*
D20*
X125888800Y-114300000D03*
X125888800Y-114300000D03*
D19*
X125468800Y-114300000D03*
X125468800Y-114300000D03*
D22*
X127158800Y-111760000D03*
X133508800Y-109220000D03*
%TD*%
D19*
%TO.C,MX34*%
X193618800Y-95250000D03*
X193618800Y-95250000D03*
D20*
X193198800Y-95250000D03*
X193198800Y-95250000D03*
D21*
X188118800Y-101150000D03*
D22*
X188118800Y-101150000D03*
D23*
X188118800Y-95250000D03*
X188118800Y-95250000D03*
D21*
X183118800Y-98950000D03*
D22*
X183118800Y-98950000D03*
D20*
X183038800Y-95250000D03*
X183038800Y-95250000D03*
D19*
X182618800Y-95250000D03*
X182618800Y-95250000D03*
D22*
X184308800Y-92710000D03*
X190658800Y-90170000D03*
%TD*%
D19*
%TO.C,MX39*%
X207906300Y-114300000D03*
X207906300Y-114300000D03*
D20*
X207486300Y-114300000D03*
X207486300Y-114300000D03*
D21*
X202406300Y-120200000D03*
D22*
X202406300Y-120200000D03*
D23*
X202406300Y-114300000D03*
X202406300Y-114300000D03*
D21*
X197406300Y-118000000D03*
D22*
X197406300Y-118000000D03*
D20*
X197326300Y-114300000D03*
X197326300Y-114300000D03*
D19*
X196906300Y-114300000D03*
X196906300Y-114300000D03*
D22*
X198596300Y-111760000D03*
X204946300Y-109220000D03*
%TD*%
D19*
%TO.C,MX25*%
X212668800Y-57150000D03*
X212668800Y-57150000D03*
D20*
X212248800Y-57150000D03*
X212248800Y-57150000D03*
D21*
X207168800Y-63050000D03*
D22*
X207168800Y-63050000D03*
D23*
X207168800Y-57150000D03*
X207168800Y-57150000D03*
D21*
X202168800Y-60850000D03*
D22*
X202168800Y-60850000D03*
D20*
X202088800Y-57150000D03*
X202088800Y-57150000D03*
D19*
X201668800Y-57150000D03*
X201668800Y-57150000D03*
D22*
X203358800Y-54610000D03*
X209708800Y-52070000D03*
%TD*%
D19*
%TO.C,MX8*%
X76937500Y-76200000D03*
X76937500Y-76200000D03*
D20*
X76517500Y-76200000D03*
X76517500Y-76200000D03*
D21*
X71437500Y-82100000D03*
D22*
X71437500Y-82100000D03*
D23*
X71437500Y-76200000D03*
X71437500Y-76200000D03*
D21*
X66437500Y-79900000D03*
D22*
X66437500Y-79900000D03*
D20*
X66357500Y-76200000D03*
X66357500Y-76200000D03*
D19*
X65937500Y-76200000D03*
X65937500Y-76200000D03*
D22*
X67627500Y-73660000D03*
X73977500Y-71120000D03*
%TD*%
D19*
%TO.C,MX5*%
X115037500Y-57150000D03*
X115037500Y-57150000D03*
D20*
X114617500Y-57150000D03*
X114617500Y-57150000D03*
D21*
X109537500Y-63050000D03*
D22*
X109537500Y-63050000D03*
D23*
X109537500Y-57150000D03*
X109537500Y-57150000D03*
D21*
X104537500Y-60850000D03*
D22*
X104537500Y-60850000D03*
D20*
X104457500Y-57150000D03*
X104457500Y-57150000D03*
D19*
X104037500Y-57150000D03*
X104037500Y-57150000D03*
D22*
X105727500Y-54610000D03*
X112077500Y-52070000D03*
%TD*%
D19*
%TO.C,MX6*%
X38837500Y-76200000D03*
X38837500Y-76200000D03*
D20*
X38417500Y-76200000D03*
X38417500Y-76200000D03*
D21*
X33337500Y-82100000D03*
D22*
X33337500Y-82100000D03*
D23*
X33337500Y-76200000D03*
X33337500Y-76200000D03*
D21*
X28337500Y-79900000D03*
D22*
X28337500Y-79900000D03*
D20*
X28257500Y-76200000D03*
X28257500Y-76200000D03*
D19*
X27837500Y-76200000D03*
X27837500Y-76200000D03*
D22*
X29527500Y-73660000D03*
X35877500Y-71120000D03*
%TD*%
D19*
%TO.C,MX4*%
X95987500Y-57150000D03*
X95987500Y-57150000D03*
D20*
X95567500Y-57150000D03*
X95567500Y-57150000D03*
D21*
X90487500Y-63050000D03*
D22*
X90487500Y-63050000D03*
D23*
X90487500Y-57150000D03*
X90487500Y-57150000D03*
D21*
X85487500Y-60850000D03*
D22*
X85487500Y-60850000D03*
D20*
X85407500Y-57150000D03*
X85407500Y-57150000D03*
D19*
X84987500Y-57150000D03*
X84987500Y-57150000D03*
D22*
X86677500Y-54610000D03*
X93027500Y-52070000D03*
%TD*%
D19*
%TO.C,MX35*%
X212668800Y-95250000D03*
X212668800Y-95250000D03*
D20*
X212248800Y-95250000D03*
X212248800Y-95250000D03*
D21*
X207168800Y-101150000D03*
D22*
X207168800Y-101150000D03*
D23*
X207168800Y-95250000D03*
X207168800Y-95250000D03*
D21*
X202168800Y-98950000D03*
D22*
X202168800Y-98950000D03*
D20*
X202088800Y-95250000D03*
X202088800Y-95250000D03*
D19*
X201668800Y-95250000D03*
X201668800Y-95250000D03*
D22*
X203358800Y-92710000D03*
X209708800Y-90170000D03*
%TD*%
D19*
%TO.C,MX2*%
X57887500Y-57150000D03*
X57887500Y-57150000D03*
D20*
X57467500Y-57150000D03*
X57467500Y-57150000D03*
D21*
X52387500Y-63050000D03*
D22*
X52387500Y-63050000D03*
D23*
X52387500Y-57150000D03*
X52387500Y-57150000D03*
D21*
X47387500Y-60850000D03*
D22*
X47387500Y-60850000D03*
D20*
X47307500Y-57150000D03*
X47307500Y-57150000D03*
D19*
X46887500Y-57150000D03*
X46887500Y-57150000D03*
D22*
X48577500Y-54610000D03*
X54927500Y-52070000D03*
%TD*%
D19*
%TO.C,MX23*%
X174568800Y-57150000D03*
X174568800Y-57150000D03*
D20*
X174148800Y-57150000D03*
X174148800Y-57150000D03*
D21*
X169068800Y-63050000D03*
D22*
X169068800Y-63050000D03*
D23*
X169068800Y-57150000D03*
X169068800Y-57150000D03*
D21*
X164068800Y-60850000D03*
D22*
X164068800Y-60850000D03*
D20*
X163988800Y-57150000D03*
X163988800Y-57150000D03*
D19*
X163568800Y-57150000D03*
X163568800Y-57150000D03*
D22*
X165258800Y-54610000D03*
X171608800Y-52070000D03*
%TD*%
D19*
%TO.C,MX31*%
X136468800Y-95250000D03*
X136468800Y-95250000D03*
D20*
X136048800Y-95250000D03*
X136048800Y-95250000D03*
D21*
X130968800Y-101150000D03*
D22*
X130968800Y-101150000D03*
D23*
X130968800Y-95250000D03*
X130968800Y-95250000D03*
D21*
X125968800Y-98950000D03*
D22*
X125968800Y-98950000D03*
D20*
X125888800Y-95250000D03*
X125888800Y-95250000D03*
D19*
X125468800Y-95250000D03*
X125468800Y-95250000D03*
D22*
X127158800Y-92710000D03*
X133508800Y-90170000D03*
%TD*%
D19*
%TO.C,MX32*%
X155518800Y-95250000D03*
X155518800Y-95250000D03*
D20*
X155098800Y-95250000D03*
X155098800Y-95250000D03*
D21*
X150018800Y-101150000D03*
D22*
X150018800Y-101150000D03*
D23*
X150018800Y-95250000D03*
X150018800Y-95250000D03*
D21*
X145018800Y-98950000D03*
D22*
X145018800Y-98950000D03*
D20*
X144938800Y-95250000D03*
X144938800Y-95250000D03*
D19*
X144518800Y-95250000D03*
X144518800Y-95250000D03*
D22*
X146208800Y-92710000D03*
X152558800Y-90170000D03*
%TD*%
D19*
%TO.C,MX37*%
X155518800Y-114300000D03*
X155518800Y-114300000D03*
D20*
X155098800Y-114300000D03*
X155098800Y-114300000D03*
D21*
X150018800Y-120200000D03*
D22*
X150018800Y-120200000D03*
D23*
X150018800Y-114300000D03*
X150018800Y-114300000D03*
D21*
X145018800Y-118000000D03*
D22*
X145018800Y-118000000D03*
D20*
X144938800Y-114300000D03*
X144938800Y-114300000D03*
D19*
X144518800Y-114300000D03*
X144518800Y-114300000D03*
D22*
X146208800Y-111760000D03*
X152558800Y-109220000D03*
%TD*%
D19*
%TO.C,MX29*%
X193618800Y-76200000D03*
X193618800Y-76200000D03*
D20*
X193198800Y-76200000D03*
X193198800Y-76200000D03*
D21*
X188118800Y-82100000D03*
D22*
X188118800Y-82100000D03*
D23*
X188118800Y-76200000D03*
X188118800Y-76200000D03*
D21*
X183118800Y-79900000D03*
D22*
X183118800Y-79900000D03*
D20*
X183038800Y-76200000D03*
X183038800Y-76200000D03*
D19*
X182618800Y-76200000D03*
X182618800Y-76200000D03*
D22*
X184308800Y-73660000D03*
X190658800Y-71120000D03*
%TD*%
D19*
%TO.C,MX15*%
X115037500Y-95250000D03*
X115037500Y-95250000D03*
D20*
X114617500Y-95250000D03*
X114617500Y-95250000D03*
D21*
X109537500Y-101150000D03*
D22*
X109537500Y-101150000D03*
D23*
X109537500Y-95250000D03*
X109537500Y-95250000D03*
D21*
X104537500Y-98950000D03*
D22*
X104537500Y-98950000D03*
D20*
X104457500Y-95250000D03*
X104457500Y-95250000D03*
D19*
X104037500Y-95250000D03*
X104037500Y-95250000D03*
D22*
X105727500Y-92710000D03*
X112077500Y-90170000D03*
%TD*%
D19*
%TO.C,MX11*%
X38837500Y-95250000D03*
X38837500Y-95250000D03*
D20*
X38417500Y-95250000D03*
X38417500Y-95250000D03*
D21*
X33337500Y-101150000D03*
D22*
X33337500Y-101150000D03*
D23*
X33337500Y-95250000D03*
X33337500Y-95250000D03*
D21*
X28337500Y-98950000D03*
D22*
X28337500Y-98950000D03*
D20*
X28257500Y-95250000D03*
X28257500Y-95250000D03*
D19*
X27837500Y-95250000D03*
X27837500Y-95250000D03*
D22*
X29527500Y-92710000D03*
X35877500Y-90170000D03*
%TD*%
D19*
%TO.C,MX24*%
X193618800Y-57150000D03*
X193618800Y-57150000D03*
D20*
X193198800Y-57150000D03*
X193198800Y-57150000D03*
D21*
X188118800Y-63050000D03*
D22*
X188118800Y-63050000D03*
D23*
X188118800Y-57150000D03*
X188118800Y-57150000D03*
D21*
X183118800Y-60850000D03*
D22*
X183118800Y-60850000D03*
D20*
X183038800Y-57150000D03*
X183038800Y-57150000D03*
D19*
X182618800Y-57150000D03*
X182618800Y-57150000D03*
D22*
X184308800Y-54610000D03*
X190658800Y-52070000D03*
%TD*%
D19*
%TO.C,MX10*%
X115037500Y-76200000D03*
X115037500Y-76200000D03*
D20*
X114617500Y-76200000D03*
X114617500Y-76200000D03*
D21*
X109537500Y-82100000D03*
D22*
X109537500Y-82100000D03*
D23*
X109537500Y-76200000D03*
X109537500Y-76200000D03*
D21*
X104537500Y-79900000D03*
D22*
X104537500Y-79900000D03*
D20*
X104457500Y-76200000D03*
X104457500Y-76200000D03*
D19*
X104037500Y-76200000D03*
X104037500Y-76200000D03*
D22*
X105727500Y-73660000D03*
X112077500Y-71120000D03*
%TD*%
D19*
%TO.C,MX18*%
X43600000Y-114300000D03*
X43600000Y-114300000D03*
D20*
X43180000Y-114300000D03*
X43180000Y-114300000D03*
D21*
X38100000Y-120200000D03*
D22*
X38100000Y-120200000D03*
D23*
X38100000Y-114300000D03*
X38100000Y-114300000D03*
D21*
X33100000Y-118000000D03*
D22*
X33100000Y-118000000D03*
D20*
X33020000Y-114300000D03*
X33020000Y-114300000D03*
D19*
X32600000Y-114300000D03*
X32600000Y-114300000D03*
D22*
X34290000Y-111760000D03*
X40640000Y-109220000D03*
%TD*%
M02*
