%TF.GenerationSoftware,KiCad,Pcbnew,7.0.6*%
%TF.CreationDate,2023-11-09T09:41:23-05:00*%
%TF.ProjectId,split38,73706c69-7433-4382-9e6b-696361645f70,rev?*%
%TF.SameCoordinates,Original*%
%TF.FileFunction,Copper,L2,Bot*%
%TF.FilePolarity,Positive*%
%FSLAX46Y46*%
G04 Gerber Fmt 4.6, Leading zero omitted, Abs format (unit mm)*
G04 Created by KiCad (PCBNEW 7.0.6) date 2023-11-09 09:41:23*
%MOMM*%
%LPD*%
G01*
G04 APERTURE LIST*
G04 Aperture macros list*
%AMRoundRect*
0 Rectangle with rounded corners*
0 $1 Rounding radius*
0 $2 $3 $4 $5 $6 $7 $8 $9 X,Y pos of 4 corners*
0 Add a 4 corners polygon primitive as box body*
4,1,4,$2,$3,$4,$5,$6,$7,$8,$9,$2,$3,0*
0 Add four circle primitives for the rounded corners*
1,1,$1+$1,$2,$3*
1,1,$1+$1,$4,$5*
1,1,$1+$1,$6,$7*
1,1,$1+$1,$8,$9*
0 Add four rect primitives between the rounded corners*
20,1,$1+$1,$2,$3,$4,$5,0*
20,1,$1+$1,$4,$5,$6,$7,0*
20,1,$1+$1,$6,$7,$8,$9,0*
20,1,$1+$1,$8,$9,$2,$3,0*%
G04 Aperture macros list end*
%TA.AperFunction,ComponentPad*%
%ADD10RoundRect,0.250000X0.625000X-0.350000X0.625000X0.350000X-0.625000X0.350000X-0.625000X-0.350000X0*%
%TD*%
%TA.AperFunction,ComponentPad*%
%ADD11O,1.750000X1.200000*%
%TD*%
%TA.AperFunction,ComponentPad*%
%ADD12C,1.752600*%
%TD*%
%TA.AperFunction,ComponentPad*%
%ADD13RoundRect,0.250000X-0.625000X0.350000X-0.625000X-0.350000X0.625000X-0.350000X0.625000X0.350000X0*%
%TD*%
%TA.AperFunction,WasherPad*%
%ADD14C,2.100000*%
%TD*%
%TA.AperFunction,WasherPad*%
%ADD15C,1.900000*%
%TD*%
%TA.AperFunction,ComponentPad*%
%ADD16C,3.000000*%
%TD*%
%TA.AperFunction,ComponentPad*%
%ADD17C,3.300000*%
%TD*%
%TA.AperFunction,SMDPad,CuDef*%
%ADD18RoundRect,0.250000X1.654500X1.000000X-1.654500X1.000000X-1.654500X-1.000000X1.654500X-1.000000X0*%
%TD*%
%TA.AperFunction,SMDPad,CuDef*%
%ADD19R,3.004000X2.000000*%
%TD*%
%TA.AperFunction,SMDPad,CuDef*%
%ADD20RoundRect,0.250000X1.784500X1.000000X-1.784500X1.000000X-1.784500X-1.000000X1.784500X-1.000000X0*%
%TD*%
%TA.AperFunction,SMDPad,CuDef*%
%ADD21R,2.684000X2.000000*%
%TD*%
%TA.AperFunction,ViaPad*%
%ADD22C,0.800000*%
%TD*%
%TA.AperFunction,Conductor*%
%ADD23C,0.250000*%
%TD*%
G04 APERTURE END LIST*
D10*
%TO.P,J1,1,Pin_1*%
%TO.N,GND*%
X66144889Y-39199187D03*
D11*
%TO.P,J1,2,Pin_2*%
%TO.N,Net-(J1-Pin_2)*%
X66144889Y-37199187D03*
%TD*%
D12*
%TO.P,U1,1,TX0/P0.06*%
%TO.N,/U1.P0.06*%
X35163100Y-45720000D03*
%TO.P,U1,2,RX1/P0.08*%
%TO.N,/U1.P0.08*%
X37703100Y-45720000D03*
%TO.P,U1,3,GND*%
%TO.N,GND*%
X40243100Y-45720000D03*
%TO.P,U1,4,GND*%
X42783100Y-45720000D03*
%TO.P,U1,5,P0.17*%
%TO.N,/U1.P0.17*%
X45323100Y-45720000D03*
%TO.P,U1,6,P0.20*%
%TO.N,/U1.P0.20*%
X47863100Y-45720000D03*
%TO.P,U1,7,P0.22*%
%TO.N,/U1.P0.22*%
X50403100Y-45720000D03*
%TO.P,U1,8,P0.24*%
%TO.N,/U1.P0.24*%
X52943100Y-45720000D03*
%TO.P,U1,9,P1.00*%
%TO.N,/U1.P1.00*%
X55483100Y-45720000D03*
%TO.P,U1,10,P0.11*%
%TO.N,/U1.P0.11*%
X58023100Y-45720000D03*
%TO.P,U1,11,P1.04*%
%TO.N,/U1.P1.04*%
X60563100Y-45720000D03*
%TO.P,U1,12,P1.06*%
%TO.N,/U1.P1.06*%
X63103100Y-45720000D03*
%TO.P,U1,13,NFC1/P0.09*%
%TO.N,/U1.P0.09*%
X63103100Y-30480000D03*
%TO.P,U1,14,NFC2/P0.10*%
%TO.N,/U1.P0.10*%
X60563100Y-30480000D03*
%TO.P,U1,15,P1.11*%
%TO.N,/U1.P1.11*%
X58023100Y-30480000D03*
%TO.P,U1,16,P1.13*%
%TO.N,/U1.P1.13*%
X55483100Y-30480000D03*
%TO.P,U1,17,P1.15*%
%TO.N,/U1.P1.15*%
X52943100Y-30480000D03*
%TO.P,U1,18,AIN0/P0.02*%
%TO.N,/U1.P0.02*%
X50403100Y-30480000D03*
%TO.P,U1,19,AIN5/P0.29*%
%TO.N,/U1.P0.29*%
X47863100Y-30480000D03*
%TO.P,U1,20,AIN7/P0.31*%
%TO.N,/U1.P0.31*%
X45323100Y-30480000D03*
%TO.P,U1,21,VCC*%
%TO.N,unconnected-(U1-VCC-Pad21)*%
X42783100Y-30480000D03*
%TO.P,U1,22,RST*%
%TO.N,/RST1*%
X40243100Y-30480000D03*
%TO.P,U1,23,GND*%
%TO.N,GND*%
X37703100Y-30480000D03*
%TO.P,U1,24,BATIN/P0.04*%
%TO.N,/BATIN1*%
X35163100Y-30480000D03*
%TO.P,U1,31,P1.01*%
%TO.N,/U1.P1.01*%
X58023100Y-43180000D03*
%TO.P,U1,32,P1.02*%
%TO.N,/U1.P1.02*%
X58023100Y-40640000D03*
%TO.P,U1,33,P1.07*%
%TO.N,/U1.P1.07*%
X58023100Y-38100000D03*
%TD*%
D13*
%TO.P,J2,1,Pin_1*%
%TO.N,GND*%
X174224415Y-37286478D03*
D11*
%TO.P,J2,2,Pin_2*%
%TO.N,Net-(J2-Pin_2)*%
X174224415Y-39286478D03*
%TD*%
D12*
%TO.P,U2,1,TX0/P0.06*%
%TO.N,/U2.P0.06*%
X205373001Y-30463274D03*
%TO.P,U2,2,RX1/P0.08*%
%TO.N,/U2.P0.08*%
X202833001Y-30463274D03*
%TO.P,U2,3,GND*%
%TO.N,GND*%
X200293001Y-30463274D03*
%TO.P,U2,4,GND*%
X197753001Y-30463274D03*
%TO.P,U2,5,P0.17*%
%TO.N,/U2.P0.17*%
X195213001Y-30463274D03*
%TO.P,U2,6,P0.20*%
%TO.N,/U2.P0.20*%
X192673001Y-30463274D03*
%TO.P,U2,7,P0.22*%
%TO.N,/U2.P0.22*%
X190133001Y-30463274D03*
%TO.P,U2,8,P0.24*%
%TO.N,/U2.P0.24*%
X187593001Y-30463274D03*
%TO.P,U2,9,P1.00*%
%TO.N,/U2.P1.00*%
X185053001Y-30463274D03*
%TO.P,U2,10,P0.11*%
%TO.N,/U2.P0.11*%
X182513001Y-30463274D03*
%TO.P,U2,11,P1.04*%
%TO.N,/U2.P1.04*%
X179973001Y-30463274D03*
%TO.P,U2,12,P1.06*%
%TO.N,/U2.P1.06*%
X177433001Y-30463274D03*
%TO.P,U2,13,NFC1/P0.09*%
%TO.N,/U2.P0.09*%
X177433001Y-45703274D03*
%TO.P,U2,14,NFC2/P0.10*%
%TO.N,/U2.P0.10*%
X179973001Y-45703274D03*
%TO.P,U2,15,P1.11*%
%TO.N,/U2.P1.11*%
X182513001Y-45703274D03*
%TO.P,U2,16,P1.13*%
%TO.N,/U2.P1.13*%
X185053001Y-45703274D03*
%TO.P,U2,17,P1.15*%
%TO.N,/U2.P1.15*%
X187593001Y-45703274D03*
%TO.P,U2,18,AIN0/P0.02*%
%TO.N,/U2.P0.02*%
X190133001Y-45703274D03*
%TO.P,U2,19,AIN5/P0.29*%
%TO.N,/U2.P0.29*%
X192673001Y-45703274D03*
%TO.P,U2,20,AIN7/P0.31*%
%TO.N,/U2.P0.31*%
X195213001Y-45703274D03*
%TO.P,U2,21,VCC*%
%TO.N,unconnected-(U2-VCC-Pad21)*%
X197753001Y-45703274D03*
%TO.P,U2,22,RST*%
%TO.N,/RST2*%
X200293001Y-45703274D03*
%TO.P,U2,23,GND*%
%TO.N,GND*%
X202833001Y-45703274D03*
%TO.P,U2,24,BATIN/P0.04*%
%TO.N,/BATIN2*%
X205373001Y-45703274D03*
%TO.P,U2,31,P1.01*%
%TO.N,/U2.P1.01*%
X182513001Y-33003274D03*
%TO.P,U2,32,P1.02*%
%TO.N,/U2.P1.02*%
X182513001Y-35543274D03*
%TO.P,U2,33,P1.07*%
%TO.N,/U2.P1.07*%
X182513001Y-38083274D03*
%TD*%
D14*
%TO.P,MX14,*%
%TO.N,*%
X95987500Y-95250000D03*
X95987500Y-95250000D03*
D15*
X95567500Y-95250000D03*
X95567500Y-95250000D03*
D16*
X90487500Y-101150000D03*
D17*
X90487500Y-101150000D03*
D16*
X85487500Y-98950000D03*
D17*
X85487500Y-98950000D03*
D15*
X85407500Y-95250000D03*
X85407500Y-95250000D03*
D14*
X84987500Y-95250000D03*
X84987500Y-95250000D03*
D17*
%TO.P,MX14,1,1*%
%TO.N,/U1.P0.31*%
X86677500Y-92710000D03*
D18*
X83757000Y-92710000D03*
D19*
X82889500Y-98950000D03*
D20*
%TO.P,MX14,2,2*%
%TO.N,GND*%
X95824000Y-90170000D03*
D17*
X93027500Y-90170000D03*
D21*
X92845500Y-101150000D03*
%TD*%
D14*
%TO.P,MX30,*%
%TO.N,*%
X212668800Y-76200000D03*
X212668800Y-76200000D03*
D15*
X212248800Y-76200000D03*
X212248800Y-76200000D03*
D16*
X207168800Y-82100000D03*
D17*
X207168800Y-82100000D03*
D16*
X202168800Y-79900000D03*
D17*
X202168800Y-79900000D03*
D15*
X202088800Y-76200000D03*
X202088800Y-76200000D03*
D14*
X201668800Y-76200000D03*
X201668800Y-76200000D03*
D17*
%TO.P,MX30,1,1*%
%TO.N,/U2.P1.06*%
X203358800Y-73660000D03*
D18*
X200438300Y-73660000D03*
D19*
X199570800Y-79900000D03*
D20*
%TO.P,MX30,2,2*%
%TO.N,GND*%
X212505300Y-71120000D03*
D17*
X209708800Y-71120000D03*
D21*
X209526800Y-82100000D03*
%TD*%
D14*
%TO.P,MX13,*%
%TO.N,*%
X76937500Y-95250000D03*
X76937500Y-95250000D03*
D15*
X76517500Y-95250000D03*
X76517500Y-95250000D03*
D16*
X71437500Y-101150000D03*
D17*
X71437500Y-101150000D03*
D16*
X66437500Y-98950000D03*
D17*
X66437500Y-98950000D03*
D15*
X66357500Y-95250000D03*
X66357500Y-95250000D03*
D14*
X65937500Y-95250000D03*
X65937500Y-95250000D03*
D17*
%TO.P,MX13,1,1*%
%TO.N,/U1.P1.07*%
X67627500Y-92710000D03*
D18*
X64707000Y-92710000D03*
D19*
X63839500Y-98950000D03*
D20*
%TO.P,MX13,2,2*%
%TO.N,GND*%
X76774000Y-90170000D03*
D17*
X73977500Y-90170000D03*
D21*
X73795500Y-101150000D03*
%TD*%
D14*
%TO.P,MX1,*%
%TO.N,*%
X38837500Y-57150000D03*
X38837500Y-57150000D03*
D15*
X38417500Y-57150000D03*
X38417500Y-57150000D03*
D16*
X33337500Y-63050000D03*
D17*
X33337500Y-63050000D03*
D16*
X28337500Y-60850000D03*
D17*
X28337500Y-60850000D03*
D15*
X28257500Y-57150000D03*
X28257500Y-57150000D03*
D14*
X27837500Y-57150000D03*
X27837500Y-57150000D03*
D17*
%TO.P,MX1,1,1*%
%TO.N,/U1.P0.06*%
X29527500Y-54610000D03*
D18*
X26607000Y-54610000D03*
D19*
X25739500Y-60850000D03*
D20*
%TO.P,MX1,2,2*%
%TO.N,GND*%
X38674000Y-52070000D03*
D17*
X35877500Y-52070000D03*
D21*
X35695500Y-63050000D03*
%TD*%
D14*
%TO.P,MX12,*%
%TO.N,*%
X57887500Y-95250000D03*
X57887500Y-95250000D03*
D15*
X57467500Y-95250000D03*
X57467500Y-95250000D03*
D16*
X52387500Y-101150000D03*
D17*
X52387500Y-101150000D03*
D16*
X47387500Y-98950000D03*
D17*
X47387500Y-98950000D03*
D15*
X47307500Y-95250000D03*
X47307500Y-95250000D03*
D14*
X46887500Y-95250000D03*
X46887500Y-95250000D03*
D17*
%TO.P,MX12,1,1*%
%TO.N,/U1.P1.02*%
X48577500Y-92710000D03*
D18*
X45657000Y-92710000D03*
D19*
X44789500Y-98950000D03*
D20*
%TO.P,MX12,2,2*%
%TO.N,GND*%
X57724000Y-90170000D03*
D17*
X54927500Y-90170000D03*
D21*
X54745500Y-101150000D03*
%TD*%
D14*
%TO.P,MX21,*%
%TO.N,*%
X136468800Y-57150000D03*
X136468800Y-57150000D03*
D15*
X136048800Y-57150000D03*
X136048800Y-57150000D03*
D16*
X130968800Y-63050000D03*
D17*
X130968800Y-63050000D03*
D16*
X125968800Y-60850000D03*
D17*
X125968800Y-60850000D03*
D15*
X125888800Y-57150000D03*
X125888800Y-57150000D03*
D14*
X125468800Y-57150000D03*
X125468800Y-57150000D03*
D17*
%TO.P,MX21,1,1*%
%TO.N,/U2.P0.06*%
X127158800Y-54610000D03*
D18*
X124238300Y-54610000D03*
D19*
X123370800Y-60850000D03*
D20*
%TO.P,MX21,2,2*%
%TO.N,GND*%
X136305300Y-52070000D03*
D17*
X133508800Y-52070000D03*
D21*
X133326800Y-63050000D03*
%TD*%
D14*
%TO.P,MX7,*%
%TO.N,*%
X57887500Y-76200000D03*
X57887500Y-76200000D03*
D15*
X57467500Y-76200000D03*
X57467500Y-76200000D03*
D16*
X52387500Y-82100000D03*
D17*
X52387500Y-82100000D03*
D16*
X47387500Y-79900000D03*
D17*
X47387500Y-79900000D03*
D15*
X47307500Y-76200000D03*
X47307500Y-76200000D03*
D14*
X46887500Y-76200000D03*
X46887500Y-76200000D03*
D17*
%TO.P,MX7,1,1*%
%TO.N,/U1.P1.00*%
X48577500Y-73660000D03*
D18*
X45657000Y-73660000D03*
D19*
X44789500Y-79900000D03*
D20*
%TO.P,MX7,2,2*%
%TO.N,GND*%
X57724000Y-71120000D03*
D17*
X54927500Y-71120000D03*
D21*
X54745500Y-82100000D03*
%TD*%
D14*
%TO.P,MX16,*%
%TO.N,*%
X95987500Y-114300000D03*
X95987500Y-114300000D03*
D15*
X95567500Y-114300000D03*
X95567500Y-114300000D03*
D16*
X90487500Y-120200000D03*
D17*
X90487500Y-120200000D03*
D16*
X85487500Y-118000000D03*
D17*
X85487500Y-118000000D03*
D15*
X85407500Y-114300000D03*
X85407500Y-114300000D03*
D14*
X84987500Y-114300000D03*
X84987500Y-114300000D03*
D17*
%TO.P,MX16,1,1*%
%TO.N,/U1.P0.02*%
X86677500Y-111760000D03*
D18*
X83757000Y-111760000D03*
D19*
X82889500Y-118000000D03*
D20*
%TO.P,MX16,2,2*%
%TO.N,GND*%
X95824000Y-109220000D03*
D17*
X93027500Y-109220000D03*
D21*
X92845500Y-120200000D03*
%TD*%
D14*
%TO.P,MX38,*%
%TO.N,*%
X179331300Y-114300000D03*
X179331300Y-114300000D03*
D15*
X178911300Y-114300000D03*
X178911300Y-114300000D03*
D16*
X173831300Y-120200000D03*
D17*
X173831300Y-120200000D03*
D16*
X168831300Y-118000000D03*
D17*
X168831300Y-118000000D03*
D15*
X168751300Y-114300000D03*
X168751300Y-114300000D03*
D14*
X168331300Y-114300000D03*
X168331300Y-114300000D03*
D17*
%TO.P,MX38,1,1*%
%TO.N,/U2.P1.13*%
X170021300Y-111760000D03*
D18*
X167100800Y-111760000D03*
D19*
X166233300Y-118000000D03*
D20*
%TO.P,MX38,2,2*%
%TO.N,GND*%
X179167800Y-109220000D03*
D17*
X176371300Y-109220000D03*
D21*
X176189300Y-120200000D03*
%TD*%
D14*
%TO.P,MX22,*%
%TO.N,*%
X155518800Y-57150000D03*
X155518800Y-57150000D03*
D15*
X155098800Y-57150000D03*
X155098800Y-57150000D03*
D16*
X150018800Y-63050000D03*
D17*
X150018800Y-63050000D03*
D16*
X145018800Y-60850000D03*
D17*
X145018800Y-60850000D03*
D15*
X144938800Y-57150000D03*
X144938800Y-57150000D03*
D14*
X144518800Y-57150000D03*
X144518800Y-57150000D03*
D17*
%TO.P,MX22,1,1*%
%TO.N,/U2.P0.08*%
X146208800Y-54610000D03*
D18*
X143288300Y-54610000D03*
D19*
X142420800Y-60850000D03*
D20*
%TO.P,MX22,2,2*%
%TO.N,GND*%
X155355300Y-52070000D03*
D17*
X152558800Y-52070000D03*
D21*
X152376800Y-63050000D03*
%TD*%
D14*
%TO.P,MX19,*%
%TO.N,*%
X72175000Y-114300000D03*
X72175000Y-114300000D03*
D15*
X71755000Y-114300000D03*
X71755000Y-114300000D03*
D16*
X66675000Y-120200000D03*
D17*
X66675000Y-120200000D03*
D16*
X61675000Y-118000000D03*
D17*
X61675000Y-118000000D03*
D15*
X61595000Y-114300000D03*
X61595000Y-114300000D03*
D14*
X61175000Y-114300000D03*
X61175000Y-114300000D03*
D17*
%TO.P,MX19,1,1*%
%TO.N,/U1.P1.11*%
X62865000Y-111760000D03*
D18*
X59944500Y-111760000D03*
D19*
X59077000Y-118000000D03*
D20*
%TO.P,MX19,2,2*%
%TO.N,GND*%
X72011500Y-109220000D03*
D17*
X69215000Y-109220000D03*
D21*
X69033000Y-120200000D03*
%TD*%
D14*
%TO.P,MX28,*%
%TO.N,*%
X174568800Y-76200000D03*
X174568800Y-76200000D03*
D15*
X174148800Y-76200000D03*
X174148800Y-76200000D03*
D16*
X169068800Y-82100000D03*
D17*
X169068800Y-82100000D03*
D16*
X164068800Y-79900000D03*
D17*
X164068800Y-79900000D03*
D15*
X163988800Y-76200000D03*
X163988800Y-76200000D03*
D14*
X163568800Y-76200000D03*
X163568800Y-76200000D03*
D17*
%TO.P,MX28,1,1*%
%TO.N,/U2.P0.11*%
X165258800Y-73660000D03*
D18*
X162338300Y-73660000D03*
D19*
X161470800Y-79900000D03*
D20*
%TO.P,MX28,2,2*%
%TO.N,GND*%
X174405300Y-71120000D03*
D17*
X171608800Y-71120000D03*
D21*
X171426800Y-82100000D03*
%TD*%
D14*
%TO.P,MX33,*%
%TO.N,*%
X174568800Y-95250000D03*
X174568800Y-95250000D03*
D15*
X174148800Y-95250000D03*
X174148800Y-95250000D03*
D16*
X169068800Y-101150000D03*
D17*
X169068800Y-101150000D03*
D16*
X164068800Y-98950000D03*
D17*
X164068800Y-98950000D03*
D15*
X163988800Y-95250000D03*
X163988800Y-95250000D03*
D14*
X163568800Y-95250000D03*
X163568800Y-95250000D03*
D17*
%TO.P,MX33,1,1*%
%TO.N,/U2.P1.07*%
X165258800Y-92710000D03*
D18*
X162338300Y-92710000D03*
D19*
X161470800Y-98950000D03*
D20*
%TO.P,MX33,2,2*%
%TO.N,GND*%
X174405300Y-90170000D03*
D17*
X171608800Y-90170000D03*
D21*
X171426800Y-101150000D03*
%TD*%
D14*
%TO.P,MX9,*%
%TO.N,*%
X95987500Y-76200000D03*
X95987500Y-76200000D03*
D15*
X95567500Y-76200000D03*
X95567500Y-76200000D03*
D16*
X90487500Y-82100000D03*
D17*
X90487500Y-82100000D03*
D16*
X85487500Y-79900000D03*
D17*
X85487500Y-79900000D03*
D15*
X85407500Y-76200000D03*
X85407500Y-76200000D03*
D14*
X84987500Y-76200000D03*
X84987500Y-76200000D03*
D17*
%TO.P,MX9,1,1*%
%TO.N,/U1.P1.04*%
X86677500Y-73660000D03*
D18*
X83757000Y-73660000D03*
D19*
X82889500Y-79900000D03*
D20*
%TO.P,MX9,2,2*%
%TO.N,GND*%
X95824000Y-71120000D03*
D17*
X93027500Y-71120000D03*
D21*
X92845500Y-82100000D03*
%TD*%
D14*
%TO.P,MX17,*%
%TO.N,*%
X115037500Y-114300000D03*
X115037500Y-114300000D03*
D15*
X114617500Y-114300000D03*
X114617500Y-114300000D03*
D16*
X109537500Y-120200000D03*
D17*
X109537500Y-120200000D03*
D16*
X104537500Y-118000000D03*
D17*
X104537500Y-118000000D03*
D15*
X104457500Y-114300000D03*
X104457500Y-114300000D03*
D14*
X104037500Y-114300000D03*
X104037500Y-114300000D03*
D17*
%TO.P,MX17,1,1*%
%TO.N,/U1.P1.15*%
X105727500Y-111760000D03*
D18*
X102807000Y-111760000D03*
D19*
X101939500Y-118000000D03*
D20*
%TO.P,MX17,2,2*%
%TO.N,GND*%
X114874000Y-109220000D03*
D17*
X112077500Y-109220000D03*
D21*
X111895500Y-120200000D03*
%TD*%
D14*
%TO.P,MX27,*%
%TO.N,*%
X155518800Y-76200000D03*
X155518800Y-76200000D03*
D15*
X155098800Y-76200000D03*
X155098800Y-76200000D03*
D16*
X150018800Y-82100000D03*
D17*
X150018800Y-82100000D03*
D16*
X145018800Y-79900000D03*
D17*
X145018800Y-79900000D03*
D15*
X144938800Y-76200000D03*
X144938800Y-76200000D03*
D14*
X144518800Y-76200000D03*
X144518800Y-76200000D03*
D17*
%TO.P,MX27,1,1*%
%TO.N,/U2.P1.00*%
X146208800Y-73660000D03*
D18*
X143288300Y-73660000D03*
D19*
X142420800Y-79900000D03*
D20*
%TO.P,MX27,2,2*%
%TO.N,GND*%
X155355300Y-71120000D03*
D17*
X152558800Y-71120000D03*
D21*
X152376800Y-82100000D03*
%TD*%
D14*
%TO.P,MX3,*%
%TO.N,*%
X76937500Y-57150000D03*
X76937500Y-57150000D03*
D15*
X76517500Y-57150000D03*
X76517500Y-57150000D03*
D16*
X71437500Y-63050000D03*
D17*
X71437500Y-63050000D03*
D16*
X66437500Y-60850000D03*
D17*
X66437500Y-60850000D03*
D15*
X66357500Y-57150000D03*
X66357500Y-57150000D03*
D14*
X65937500Y-57150000D03*
X65937500Y-57150000D03*
D17*
%TO.P,MX3,1,1*%
%TO.N,/U1.P0.17*%
X67627500Y-54610000D03*
D18*
X64707000Y-54610000D03*
D19*
X63839500Y-60850000D03*
D20*
%TO.P,MX3,2,2*%
%TO.N,GND*%
X76774000Y-52070000D03*
D17*
X73977500Y-52070000D03*
D21*
X73795500Y-63050000D03*
%TD*%
D14*
%TO.P,MX26,*%
%TO.N,*%
X136468800Y-76200000D03*
X136468800Y-76200000D03*
D15*
X136048800Y-76200000D03*
X136048800Y-76200000D03*
D16*
X130968800Y-82100000D03*
D17*
X130968800Y-82100000D03*
D16*
X125968800Y-79900000D03*
D17*
X125968800Y-79900000D03*
D15*
X125888800Y-76200000D03*
X125888800Y-76200000D03*
D14*
X125468800Y-76200000D03*
X125468800Y-76200000D03*
D17*
%TO.P,MX26,1,1*%
%TO.N,/U2.P0.24*%
X127158800Y-73660000D03*
D18*
X124238300Y-73660000D03*
D19*
X123370800Y-79900000D03*
D20*
%TO.P,MX26,2,2*%
%TO.N,GND*%
X136305300Y-71120000D03*
D17*
X133508800Y-71120000D03*
D21*
X133326800Y-82100000D03*
%TD*%
D14*
%TO.P,MX36,*%
%TO.N,*%
X136468800Y-114300000D03*
X136468800Y-114300000D03*
D15*
X136048800Y-114300000D03*
X136048800Y-114300000D03*
D16*
X130968800Y-120200000D03*
D17*
X130968800Y-120200000D03*
D16*
X125968800Y-118000000D03*
D17*
X125968800Y-118000000D03*
D15*
X125888800Y-114300000D03*
X125888800Y-114300000D03*
D14*
X125468800Y-114300000D03*
X125468800Y-114300000D03*
D17*
%TO.P,MX36,1,1*%
%TO.N,/U2.P0.02*%
X127158800Y-111760000D03*
D18*
X124238300Y-111760000D03*
D19*
X123370800Y-118000000D03*
D20*
%TO.P,MX36,2,2*%
%TO.N,GND*%
X136305300Y-109220000D03*
D17*
X133508800Y-109220000D03*
D21*
X133326800Y-120200000D03*
%TD*%
D14*
%TO.P,MX34,*%
%TO.N,*%
X193618800Y-95250000D03*
X193618800Y-95250000D03*
D15*
X193198800Y-95250000D03*
X193198800Y-95250000D03*
D16*
X188118800Y-101150000D03*
D17*
X188118800Y-101150000D03*
D16*
X183118800Y-98950000D03*
D17*
X183118800Y-98950000D03*
D15*
X183038800Y-95250000D03*
X183038800Y-95250000D03*
D14*
X182618800Y-95250000D03*
X182618800Y-95250000D03*
D17*
%TO.P,MX34,1,1*%
%TO.N,/U2.P0.31*%
X184308800Y-92710000D03*
D18*
X181388300Y-92710000D03*
D19*
X180520800Y-98950000D03*
D20*
%TO.P,MX34,2,2*%
%TO.N,GND*%
X193455300Y-90170000D03*
D17*
X190658800Y-90170000D03*
D21*
X190476800Y-101150000D03*
%TD*%
D14*
%TO.P,MX39,*%
%TO.N,*%
X207906300Y-114300000D03*
X207906300Y-114300000D03*
D15*
X207486300Y-114300000D03*
X207486300Y-114300000D03*
D16*
X202406300Y-120200000D03*
D17*
X202406300Y-120200000D03*
D16*
X197406300Y-118000000D03*
D17*
X197406300Y-118000000D03*
D15*
X197326300Y-114300000D03*
X197326300Y-114300000D03*
D14*
X196906300Y-114300000D03*
X196906300Y-114300000D03*
D17*
%TO.P,MX39,1,1*%
%TO.N,/U2.P1.11*%
X198596300Y-111760000D03*
D18*
X195675800Y-111760000D03*
D19*
X194808300Y-118000000D03*
D20*
%TO.P,MX39,2,2*%
%TO.N,GND*%
X207742800Y-109220000D03*
D17*
X204946300Y-109220000D03*
D21*
X204764300Y-120200000D03*
%TD*%
D14*
%TO.P,MX25,*%
%TO.N,*%
X212668800Y-57150000D03*
X212668800Y-57150000D03*
D15*
X212248800Y-57150000D03*
X212248800Y-57150000D03*
D16*
X207168800Y-63050000D03*
D17*
X207168800Y-63050000D03*
D16*
X202168800Y-60850000D03*
D17*
X202168800Y-60850000D03*
D15*
X202088800Y-57150000D03*
X202088800Y-57150000D03*
D14*
X201668800Y-57150000D03*
X201668800Y-57150000D03*
D17*
%TO.P,MX25,1,1*%
%TO.N,/U2.P0.22*%
X203358800Y-54610000D03*
D18*
X200438300Y-54610000D03*
D19*
X199570800Y-60850000D03*
D20*
%TO.P,MX25,2,2*%
%TO.N,GND*%
X212505300Y-52070000D03*
D17*
X209708800Y-52070000D03*
D21*
X209526800Y-63050000D03*
%TD*%
D14*
%TO.P,MX8,*%
%TO.N,*%
X76937500Y-76200000D03*
X76937500Y-76200000D03*
D15*
X76517500Y-76200000D03*
X76517500Y-76200000D03*
D16*
X71437500Y-82100000D03*
D17*
X71437500Y-82100000D03*
D16*
X66437500Y-79900000D03*
D17*
X66437500Y-79900000D03*
D15*
X66357500Y-76200000D03*
X66357500Y-76200000D03*
D14*
X65937500Y-76200000D03*
X65937500Y-76200000D03*
D17*
%TO.P,MX8,1,1*%
%TO.N,/U1.P0.11*%
X67627500Y-73660000D03*
D18*
X64707000Y-73660000D03*
D19*
X63839500Y-79900000D03*
D20*
%TO.P,MX8,2,2*%
%TO.N,GND*%
X76774000Y-71120000D03*
D17*
X73977500Y-71120000D03*
D21*
X73795500Y-82100000D03*
%TD*%
D14*
%TO.P,MX5,*%
%TO.N,*%
X115037500Y-57150000D03*
X115037500Y-57150000D03*
D15*
X114617500Y-57150000D03*
X114617500Y-57150000D03*
D16*
X109537500Y-63050000D03*
D17*
X109537500Y-63050000D03*
D16*
X104537500Y-60850000D03*
D17*
X104537500Y-60850000D03*
D15*
X104457500Y-57150000D03*
X104457500Y-57150000D03*
D14*
X104037500Y-57150000D03*
X104037500Y-57150000D03*
D17*
%TO.P,MX5,1,1*%
%TO.N,/U1.P0.22*%
X105727500Y-54610000D03*
D18*
X102807000Y-54610000D03*
D19*
X101939500Y-60850000D03*
D20*
%TO.P,MX5,2,2*%
%TO.N,GND*%
X114874000Y-52070000D03*
D17*
X112077500Y-52070000D03*
D21*
X111895500Y-63050000D03*
%TD*%
D14*
%TO.P,MX6,*%
%TO.N,*%
X38837500Y-76200000D03*
X38837500Y-76200000D03*
D15*
X38417500Y-76200000D03*
X38417500Y-76200000D03*
D16*
X33337500Y-82100000D03*
D17*
X33337500Y-82100000D03*
D16*
X28337500Y-79900000D03*
D17*
X28337500Y-79900000D03*
D15*
X28257500Y-76200000D03*
X28257500Y-76200000D03*
D14*
X27837500Y-76200000D03*
X27837500Y-76200000D03*
D17*
%TO.P,MX6,1,1*%
%TO.N,/U1.P0.24*%
X29527500Y-73660000D03*
D18*
X26607000Y-73660000D03*
D19*
X25739500Y-79900000D03*
D20*
%TO.P,MX6,2,2*%
%TO.N,GND*%
X38674000Y-71120000D03*
D17*
X35877500Y-71120000D03*
D21*
X35695500Y-82100000D03*
%TD*%
D14*
%TO.P,MX4,*%
%TO.N,*%
X95987500Y-57150000D03*
X95987500Y-57150000D03*
D15*
X95567500Y-57150000D03*
X95567500Y-57150000D03*
D16*
X90487500Y-63050000D03*
D17*
X90487500Y-63050000D03*
D16*
X85487500Y-60850000D03*
D17*
X85487500Y-60850000D03*
D15*
X85407500Y-57150000D03*
X85407500Y-57150000D03*
D14*
X84987500Y-57150000D03*
X84987500Y-57150000D03*
D17*
%TO.P,MX4,1,1*%
%TO.N,/U1.P0.20*%
X86677500Y-54610000D03*
D18*
X83757000Y-54610000D03*
D19*
X82889500Y-60850000D03*
D20*
%TO.P,MX4,2,2*%
%TO.N,GND*%
X95824000Y-52070000D03*
D17*
X93027500Y-52070000D03*
D21*
X92845500Y-63050000D03*
%TD*%
D14*
%TO.P,MX35,*%
%TO.N,*%
X212668800Y-95250000D03*
X212668800Y-95250000D03*
D15*
X212248800Y-95250000D03*
X212248800Y-95250000D03*
D16*
X207168800Y-101150000D03*
D17*
X207168800Y-101150000D03*
D16*
X202168800Y-98950000D03*
D17*
X202168800Y-98950000D03*
D15*
X202088800Y-95250000D03*
X202088800Y-95250000D03*
D14*
X201668800Y-95250000D03*
X201668800Y-95250000D03*
D17*
%TO.P,MX35,1,1*%
%TO.N,/U2.P0.29*%
X203358800Y-92710000D03*
D18*
X200438300Y-92710000D03*
D19*
X199570800Y-98950000D03*
D20*
%TO.P,MX35,2,2*%
%TO.N,GND*%
X212505300Y-90170000D03*
D17*
X209708800Y-90170000D03*
D21*
X209526800Y-101150000D03*
%TD*%
D14*
%TO.P,MX2,*%
%TO.N,*%
X57887500Y-57150000D03*
X57887500Y-57150000D03*
D15*
X57467500Y-57150000D03*
X57467500Y-57150000D03*
D16*
X52387500Y-63050000D03*
D17*
X52387500Y-63050000D03*
D16*
X47387500Y-60850000D03*
D17*
X47387500Y-60850000D03*
D15*
X47307500Y-57150000D03*
X47307500Y-57150000D03*
D14*
X46887500Y-57150000D03*
X46887500Y-57150000D03*
D17*
%TO.P,MX2,1,1*%
%TO.N,/U1.P0.08*%
X48577500Y-54610000D03*
D18*
X45657000Y-54610000D03*
D19*
X44789500Y-60850000D03*
D20*
%TO.P,MX2,2,2*%
%TO.N,GND*%
X57724000Y-52070000D03*
D17*
X54927500Y-52070000D03*
D21*
X54745500Y-63050000D03*
%TD*%
D14*
%TO.P,MX23,*%
%TO.N,*%
X174568800Y-57150000D03*
X174568800Y-57150000D03*
D15*
X174148800Y-57150000D03*
X174148800Y-57150000D03*
D16*
X169068800Y-63050000D03*
D17*
X169068800Y-63050000D03*
D16*
X164068800Y-60850000D03*
D17*
X164068800Y-60850000D03*
D15*
X163988800Y-57150000D03*
X163988800Y-57150000D03*
D14*
X163568800Y-57150000D03*
X163568800Y-57150000D03*
D17*
%TO.P,MX23,1,1*%
%TO.N,/U2.P0.17*%
X165258800Y-54610000D03*
D18*
X162338300Y-54610000D03*
D19*
X161470800Y-60850000D03*
D20*
%TO.P,MX23,2,2*%
%TO.N,GND*%
X174405300Y-52070000D03*
D17*
X171608800Y-52070000D03*
D21*
X171426800Y-63050000D03*
%TD*%
D14*
%TO.P,MX31,*%
%TO.N,*%
X136468800Y-95250000D03*
X136468800Y-95250000D03*
D15*
X136048800Y-95250000D03*
X136048800Y-95250000D03*
D16*
X130968800Y-101150000D03*
D17*
X130968800Y-101150000D03*
D16*
X125968800Y-98950000D03*
D17*
X125968800Y-98950000D03*
D15*
X125888800Y-95250000D03*
X125888800Y-95250000D03*
D14*
X125468800Y-95250000D03*
X125468800Y-95250000D03*
D17*
%TO.P,MX31,1,1*%
%TO.N,/U2.P1.01*%
X127158800Y-92710000D03*
D18*
X124238300Y-92710000D03*
D19*
X123370800Y-98950000D03*
D20*
%TO.P,MX31,2,2*%
%TO.N,GND*%
X136305300Y-90170000D03*
D17*
X133508800Y-90170000D03*
D21*
X133326800Y-101150000D03*
%TD*%
D14*
%TO.P,MX32,*%
%TO.N,*%
X155518800Y-95250000D03*
X155518800Y-95250000D03*
D15*
X155098800Y-95250000D03*
X155098800Y-95250000D03*
D16*
X150018800Y-101150000D03*
D17*
X150018800Y-101150000D03*
D16*
X145018800Y-98950000D03*
D17*
X145018800Y-98950000D03*
D15*
X144938800Y-95250000D03*
X144938800Y-95250000D03*
D14*
X144518800Y-95250000D03*
X144518800Y-95250000D03*
D17*
%TO.P,MX32,1,1*%
%TO.N,/U2.P1.02*%
X146208800Y-92710000D03*
D18*
X143288300Y-92710000D03*
D19*
X142420800Y-98950000D03*
D20*
%TO.P,MX32,2,2*%
%TO.N,GND*%
X155355300Y-90170000D03*
D17*
X152558800Y-90170000D03*
D21*
X152376800Y-101150000D03*
%TD*%
D14*
%TO.P,MX37,*%
%TO.N,*%
X155518800Y-114300000D03*
X155518800Y-114300000D03*
D15*
X155098800Y-114300000D03*
X155098800Y-114300000D03*
D16*
X150018800Y-120200000D03*
D17*
X150018800Y-120200000D03*
D16*
X145018800Y-118000000D03*
D17*
X145018800Y-118000000D03*
D15*
X144938800Y-114300000D03*
X144938800Y-114300000D03*
D14*
X144518800Y-114300000D03*
X144518800Y-114300000D03*
D17*
%TO.P,MX37,1,1*%
%TO.N,/U2.P1.15*%
X146208800Y-111760000D03*
D18*
X143288300Y-111760000D03*
D19*
X142420800Y-118000000D03*
D20*
%TO.P,MX37,2,2*%
%TO.N,GND*%
X155355300Y-109220000D03*
D17*
X152558800Y-109220000D03*
D21*
X152376800Y-120200000D03*
%TD*%
D14*
%TO.P,MX29,*%
%TO.N,*%
X193618800Y-76200000D03*
X193618800Y-76200000D03*
D15*
X193198800Y-76200000D03*
X193198800Y-76200000D03*
D16*
X188118800Y-82100000D03*
D17*
X188118800Y-82100000D03*
D16*
X183118800Y-79900000D03*
D17*
X183118800Y-79900000D03*
D15*
X183038800Y-76200000D03*
X183038800Y-76200000D03*
D14*
X182618800Y-76200000D03*
X182618800Y-76200000D03*
D17*
%TO.P,MX29,1,1*%
%TO.N,/U2.P1.04*%
X184308800Y-73660000D03*
D18*
X181388300Y-73660000D03*
D19*
X180520800Y-79900000D03*
D20*
%TO.P,MX29,2,2*%
%TO.N,GND*%
X193455300Y-71120000D03*
D17*
X190658800Y-71120000D03*
D21*
X190476800Y-82100000D03*
%TD*%
D14*
%TO.P,MX15,*%
%TO.N,*%
X115037500Y-95250000D03*
X115037500Y-95250000D03*
D15*
X114617500Y-95250000D03*
X114617500Y-95250000D03*
D16*
X109537500Y-101150000D03*
D17*
X109537500Y-101150000D03*
D16*
X104537500Y-98950000D03*
D17*
X104537500Y-98950000D03*
D15*
X104457500Y-95250000D03*
X104457500Y-95250000D03*
D14*
X104037500Y-95250000D03*
X104037500Y-95250000D03*
D17*
%TO.P,MX15,1,1*%
%TO.N,/U1.P0.29*%
X105727500Y-92710000D03*
D18*
X102807000Y-92710000D03*
D19*
X101939500Y-98950000D03*
D20*
%TO.P,MX15,2,2*%
%TO.N,GND*%
X114874000Y-90170000D03*
D17*
X112077500Y-90170000D03*
D21*
X111895500Y-101150000D03*
%TD*%
D14*
%TO.P,MX11,*%
%TO.N,*%
X38837500Y-95250000D03*
X38837500Y-95250000D03*
D15*
X38417500Y-95250000D03*
X38417500Y-95250000D03*
D16*
X33337500Y-101150000D03*
D17*
X33337500Y-101150000D03*
D16*
X28337500Y-98950000D03*
D17*
X28337500Y-98950000D03*
D15*
X28257500Y-95250000D03*
X28257500Y-95250000D03*
D14*
X27837500Y-95250000D03*
X27837500Y-95250000D03*
D17*
%TO.P,MX11,1,1*%
%TO.N,/U1.P1.01*%
X29527500Y-92710000D03*
D18*
X26607000Y-92710000D03*
D19*
X25739500Y-98950000D03*
D20*
%TO.P,MX11,2,2*%
%TO.N,GND*%
X38674000Y-90170000D03*
D17*
X35877500Y-90170000D03*
D21*
X35695500Y-101150000D03*
%TD*%
D14*
%TO.P,MX24,*%
%TO.N,*%
X193618800Y-57150000D03*
X193618800Y-57150000D03*
D15*
X193198800Y-57150000D03*
X193198800Y-57150000D03*
D16*
X188118800Y-63050000D03*
D17*
X188118800Y-63050000D03*
D16*
X183118800Y-60850000D03*
D17*
X183118800Y-60850000D03*
D15*
X183038800Y-57150000D03*
X183038800Y-57150000D03*
D14*
X182618800Y-57150000D03*
X182618800Y-57150000D03*
D17*
%TO.P,MX24,1,1*%
%TO.N,/U2.P0.20*%
X184308800Y-54610000D03*
D18*
X181388300Y-54610000D03*
D19*
X180520800Y-60850000D03*
D20*
%TO.P,MX24,2,2*%
%TO.N,GND*%
X193455300Y-52070000D03*
D17*
X190658800Y-52070000D03*
D21*
X190476800Y-63050000D03*
%TD*%
D14*
%TO.P,MX10,*%
%TO.N,*%
X115037500Y-76200000D03*
X115037500Y-76200000D03*
D15*
X114617500Y-76200000D03*
X114617500Y-76200000D03*
D16*
X109537500Y-82100000D03*
D17*
X109537500Y-82100000D03*
D16*
X104537500Y-79900000D03*
D17*
X104537500Y-79900000D03*
D15*
X104457500Y-76200000D03*
X104457500Y-76200000D03*
D14*
X104037500Y-76200000D03*
X104037500Y-76200000D03*
D17*
%TO.P,MX10,1,1*%
%TO.N,/U1.P1.06*%
X105727500Y-73660000D03*
D18*
X102807000Y-73660000D03*
D19*
X101939500Y-79900000D03*
D20*
%TO.P,MX10,2,2*%
%TO.N,GND*%
X114874000Y-71120000D03*
D17*
X112077500Y-71120000D03*
D21*
X111895500Y-82100000D03*
%TD*%
D14*
%TO.P,MX18,*%
%TO.N,*%
X43600000Y-114300000D03*
X43600000Y-114300000D03*
D15*
X43180000Y-114300000D03*
X43180000Y-114300000D03*
D16*
X38100000Y-120200000D03*
D17*
X38100000Y-120200000D03*
D16*
X33100000Y-118000000D03*
D17*
X33100000Y-118000000D03*
D15*
X33020000Y-114300000D03*
X33020000Y-114300000D03*
D14*
X32600000Y-114300000D03*
X32600000Y-114300000D03*
D17*
%TO.P,MX18,1,1*%
%TO.N,/U1.P1.13*%
X34290000Y-111760000D03*
D18*
X31369500Y-111760000D03*
D19*
X30502000Y-118000000D03*
D20*
%TO.P,MX18,2,2*%
%TO.N,GND*%
X43436500Y-109220000D03*
D17*
X40640000Y-109220000D03*
D21*
X40458000Y-120200000D03*
%TD*%
D22*
%TO.N,/U1.P0.24*%
X35718750Y-47625000D03*
%TO.N,/U1.P1.00*%
X52387500Y-52387500D03*
%TO.N,/U1.P0.11*%
X61912500Y-54768750D03*
%TO.N,/U1.P1.04*%
X64293750Y-50006250D03*
%TO.N,/U1.P1.11*%
X59725356Y-33791502D03*
X61204143Y-37814153D03*
X59531250Y-66675000D03*
X62594906Y-39363358D03*
%TO.N,/U1.P1.13*%
X46488778Y-33295534D03*
X26193750Y-102393750D03*
X46555621Y-36169760D03*
X55980408Y-33136048D03*
%TO.N,/U1.P1.15*%
X100012500Y-104775000D03*
X73818750Y-35718750D03*
X83343750Y-42862500D03*
X62976383Y-35242459D03*
%TO.N,/U1.P0.02*%
X80962500Y-104775000D03*
X66675000Y-45243750D03*
%TO.N,/U1.P0.29*%
X64803612Y-32827637D03*
X99093794Y-53281429D03*
X78581250Y-38100000D03*
%TO.N,/U1.P0.31*%
X66763193Y-35967459D03*
X69056250Y-40481250D03*
X80962500Y-73818750D03*
X61928877Y-35717169D03*
%TO.N,/U1.P1.01*%
X30956250Y-59531250D03*
%TO.N,/U1.P1.02*%
X42862500Y-50006250D03*
X42862500Y-54768750D03*
%TO.N,/U1.P1.07*%
X60726222Y-52345635D03*
%TO.N,/U2.P1.07*%
X166216250Y-84015000D03*
X167146250Y-50265000D03*
X175226250Y-40875000D03*
%TO.N,/U2.P1.02*%
X165718334Y-39042154D03*
X159543750Y-45440000D03*
X163757622Y-41626729D03*
X171450000Y-35718750D03*
X150018750Y-66675000D03*
%TO.N,/U2.P1.01*%
X190956807Y-32066757D03*
X128587500Y-88106250D03*
X191605782Y-38967856D03*
%TO.N,/U2.P1.06*%
X197643750Y-71437500D03*
%TO.N,/U2.P0.31*%
X183046250Y-89285000D03*
%TO.N,/U2.P0.29*%
X196906250Y-53365000D03*
%TO.N,/U2.P0.02*%
X126526250Y-108165000D03*
X175806250Y-103055000D03*
X189916250Y-59975000D03*
%TO.N,/U2.P1.15*%
X173466250Y-99265000D03*
X146596250Y-105775000D03*
X184956250Y-49055000D03*
X177376250Y-48855000D03*
X177396250Y-52515000D03*
%TO.N,/U2.P1.13*%
X179375361Y-48330000D03*
X169136250Y-106075000D03*
X178156250Y-89225000D03*
X178486250Y-52125000D03*
%TO.N,/U2.P1.11*%
X196286250Y-67715000D03*
%TO.N,/U2.P1.04*%
X185463568Y-43646092D03*
X185119071Y-39156929D03*
%TO.N,/U2.P0.11*%
X188430681Y-39578826D03*
X185737500Y-50006250D03*
%TO.N,/U2.P1.00*%
X142936250Y-67695000D03*
X152400012Y-30956238D03*
%TO.N,/U2.P0.24*%
X123825000Y-69056250D03*
X123825000Y-50006250D03*
X176806657Y-31988433D03*
%TO.N,/U2.P0.22*%
X190697025Y-37484751D03*
X200025000Y-50006250D03*
%TO.N,/U2.P0.20*%
X183356250Y-52387500D03*
X188118750Y-38100000D03*
X188118750Y-33337500D03*
%TO.N,/U2.P0.17*%
X179241831Y-36541022D03*
X192881250Y-35718750D03*
X174192083Y-36083392D03*
X184007065Y-35718750D03*
%TO.N,/U2.P0.08*%
X166687500Y-40481250D03*
X184651919Y-41692807D03*
%TO.N,/U2.P0.06*%
X181426250Y-44245000D03*
X197643750Y-40481250D03*
X152400000Y-42862500D03*
X203558001Y-39401356D03*
%TO.N,GND*%
X42862500Y-38100000D03*
X42862500Y-40481250D03*
X175614940Y-32138907D03*
X201233375Y-35088325D03*
X64473352Y-31028089D03*
%TO.N,/RST2*%
X197643750Y-35718750D03*
%TD*%
D23*
%TO.N,GND*%
X202833001Y-36687951D02*
X201233375Y-35088325D01*
X202833001Y-45703274D02*
X202833001Y-36687951D01*
%TO.N,/U2.P0.22*%
X190133001Y-30463274D02*
X190133001Y-36920727D01*
%TO.N,/U2.P1.01*%
X191605782Y-32715732D02*
X191605782Y-38967856D01*
%TO.N,GND*%
X200293001Y-31305942D02*
X200293001Y-30463274D01*
X191117693Y-40481250D02*
X200293001Y-31305942D01*
X178593750Y-40481250D02*
X191117693Y-40481250D01*
%TO.N,/U2.P0.22*%
X190133001Y-36920727D02*
X190697025Y-37484751D01*
%TO.N,/U2.P1.01*%
X190956807Y-32066757D02*
X191605782Y-32715732D01*
%TO.N,/U2.P0.24*%
X175779093Y-30960869D02*
X176806657Y-31988433D01*
X164998160Y-38100000D02*
X172137291Y-30960869D01*
X135731250Y-38100000D02*
X164998160Y-38100000D01*
X123825000Y-50006250D02*
X135731250Y-38100000D01*
%TO.N,GND*%
X175505497Y-32248350D02*
X175614940Y-32138907D01*
X175505497Y-37392997D02*
X175505497Y-32248350D01*
X178593750Y-40481250D02*
X175505497Y-37392997D01*
%TO.N,/U2.P0.24*%
X172137291Y-30960869D02*
X175779093Y-30960869D01*
%TO.N,/U2.P1.00*%
X155971887Y-30956238D02*
X152400012Y-30956238D01*
X157723125Y-29205000D02*
X155971887Y-30956238D01*
X183794727Y-29205000D02*
X157723125Y-29205000D01*
X185053001Y-30463274D02*
X183794727Y-29205000D01*
%TO.N,/U1.P0.06*%
X26607000Y-54610000D02*
X26607000Y-54276100D01*
X25739500Y-60850000D02*
X25739500Y-55477500D01*
X26607000Y-54276100D02*
X35163100Y-45720000D01*
X25739500Y-55477500D02*
X26607000Y-54610000D01*
%TO.N,/U1.P0.08*%
X44789500Y-60850000D02*
X44789500Y-55477500D01*
X38904400Y-44518700D02*
X37703100Y-45720000D01*
X41444400Y-45222405D02*
X40740695Y-44518700D01*
X44789500Y-55477500D02*
X45657000Y-54610000D01*
X45657000Y-54610000D02*
X41444400Y-50397400D01*
X40740695Y-44518700D02*
X38904400Y-44518700D01*
X41444400Y-50397400D02*
X41444400Y-45222405D01*
%TO.N,/U1.P0.17*%
X59527611Y-49430611D02*
X47323293Y-49430611D01*
X64707000Y-54610000D02*
X59527611Y-49430611D01*
X45323100Y-47430418D02*
X45323100Y-45720000D01*
X47323293Y-49430611D02*
X45323100Y-47430418D01*
X63839500Y-55477500D02*
X64707000Y-54610000D01*
X63839500Y-60850000D02*
X63839500Y-55477500D01*
%TO.N,/U1.P0.20*%
X77597255Y-48450255D02*
X49581082Y-48450255D01*
X82889500Y-55477500D02*
X83757000Y-54610000D01*
X49581082Y-48450255D02*
X49581082Y-47437982D01*
X82889500Y-60850000D02*
X82889500Y-55477500D01*
X49581082Y-47437982D02*
X47863100Y-45720000D01*
X83757000Y-54610000D02*
X77597255Y-48450255D01*
%TO.N,/U1.P0.22*%
X95822000Y-47625000D02*
X52308100Y-47625000D01*
X102807000Y-54610000D02*
X95822000Y-47625000D01*
X52308100Y-47625000D02*
X50403100Y-45720000D01*
X101939500Y-60850000D02*
X101939500Y-55477500D01*
X101939500Y-55477500D02*
X102807000Y-54610000D01*
%TO.N,/U1.P0.24*%
X33337500Y-50006250D02*
X35718750Y-47625000D01*
X25739500Y-79900000D02*
X25739500Y-74527500D01*
X30312500Y-69954500D02*
X30312500Y-59912805D01*
X33337500Y-53791243D02*
X33337500Y-50006250D01*
X30231250Y-56897493D02*
X33337500Y-53791243D01*
X30231250Y-59831555D02*
X30231250Y-56897493D01*
X25739500Y-74527500D02*
X26607000Y-73660000D01*
X26607000Y-73660000D02*
X30312500Y-69954500D01*
X30312500Y-59912805D02*
X30231250Y-59831555D01*
%TO.N,/U1.P1.00*%
X44789500Y-79900000D02*
X44789500Y-74527500D01*
X44789500Y-74527500D02*
X45657000Y-73660000D01*
X52387500Y-53593072D02*
X52387500Y-52387500D01*
X49395572Y-69921428D02*
X49395572Y-56585000D01*
X49395572Y-56585000D02*
X52387500Y-53593072D01*
X45657000Y-73660000D02*
X49395572Y-69921428D01*
%TO.N,/U1.P0.11*%
X64707000Y-73660000D02*
X61912500Y-70865500D01*
X63839500Y-74527500D02*
X64707000Y-73660000D01*
X61912500Y-70865500D02*
X61912500Y-54768750D01*
X63839500Y-79900000D02*
X63839500Y-74527500D01*
%TO.N,/U1.P1.04*%
X78307923Y-50006250D02*
X64293750Y-50006250D01*
X82889500Y-74527500D02*
X83757000Y-73660000D01*
X82889500Y-79900000D02*
X82889500Y-74527500D01*
X83757000Y-73660000D02*
X79133500Y-69036500D01*
X79133500Y-50831827D02*
X78307923Y-50006250D01*
X79133500Y-69036500D02*
X79133500Y-50831827D01*
%TO.N,/U1.P1.06*%
X101939500Y-74527500D02*
X102807000Y-73660000D01*
X107156250Y-69310750D02*
X107156250Y-55974322D01*
X101365050Y-46596300D02*
X63979400Y-46596300D01*
X102807000Y-73660000D02*
X107156250Y-69310750D01*
X107702500Y-52933750D02*
X101365050Y-46596300D01*
X63979400Y-46596300D02*
X63103100Y-45720000D01*
X101939500Y-79900000D02*
X101939500Y-74527500D01*
X107156250Y-55974322D02*
X107702500Y-55428072D01*
X107702500Y-55428072D02*
X107702500Y-52933750D01*
%TO.N,/U1.P1.11*%
X59077000Y-112627500D02*
X59944500Y-111760000D01*
X59725356Y-33791502D02*
X59725356Y-32182256D01*
X59725356Y-32182256D02*
X58023100Y-30480000D01*
X59944500Y-111760000D02*
X60083500Y-111621000D01*
X60083500Y-111621000D02*
X60083500Y-67227250D01*
X62594906Y-39363358D02*
X62594906Y-39204916D01*
X62594906Y-39204916D02*
X61204143Y-37814153D01*
X59077000Y-118000000D02*
X59077000Y-112627500D01*
X60083500Y-67227250D02*
X59531250Y-66675000D01*
%TO.N,/U1.P1.13*%
X55483100Y-32638740D02*
X55980408Y-33136048D01*
X30502000Y-112627500D02*
X31369500Y-111760000D01*
X55483100Y-30480000D02*
X55483100Y-32638740D01*
X26193750Y-106584250D02*
X26193750Y-102393750D01*
X31369500Y-111760000D02*
X26193750Y-106584250D01*
X46555621Y-36169760D02*
X46555621Y-33362377D01*
X46555621Y-33362377D02*
X46488778Y-33295534D01*
X30502000Y-118000000D02*
X30502000Y-112627500D01*
%TO.N,/U1.P1.15*%
X52943100Y-30480000D02*
X52943100Y-32116229D01*
X101939500Y-112627500D02*
X102807000Y-111760000D01*
X100012500Y-108965500D02*
X102807000Y-111760000D01*
X100012500Y-104775000D02*
X100012500Y-108965500D01*
X55422594Y-34595723D02*
X62329647Y-34595723D01*
X83343750Y-41837195D02*
X83343750Y-42862500D01*
X52943100Y-32116229D02*
X55422594Y-34595723D01*
X77225305Y-35718750D02*
X83343750Y-41837195D01*
X62329647Y-34595723D02*
X62976383Y-35242459D01*
X101939500Y-118000000D02*
X101939500Y-112627500D01*
X73818750Y-35718750D02*
X77225305Y-35718750D01*
%TO.N,/U1.P0.02*%
X50403100Y-30480000D02*
X49201800Y-29278700D01*
X37057450Y-39438700D02*
X60869950Y-39438700D01*
X60869950Y-39438700D02*
X66675000Y-45243750D01*
X80962500Y-104775000D02*
X80962500Y-108965500D01*
X32633800Y-29278700D02*
X30956250Y-30956250D01*
X49201800Y-29278700D02*
X32633800Y-29278700D01*
X82889500Y-112627500D02*
X83757000Y-111760000D01*
X80962500Y-108965500D02*
X83757000Y-111760000D01*
X30956250Y-30956250D02*
X30956250Y-33337500D01*
X30956250Y-33337500D02*
X37057450Y-39438700D01*
X82889500Y-118000000D02*
X82889500Y-112627500D01*
%TO.N,/U1.P0.29*%
X99093794Y-88996794D02*
X99093794Y-53281429D01*
X78581250Y-38100000D02*
X72758090Y-38100000D01*
X72758090Y-38100000D02*
X67485727Y-32827637D01*
X102807000Y-92710000D02*
X99093794Y-88996794D01*
X101939500Y-93577500D02*
X102807000Y-92710000D01*
X101939500Y-98950000D02*
X101939500Y-93577500D01*
X67485727Y-32827637D02*
X64803612Y-32827637D01*
%TO.N,/U1.P0.31*%
X83757000Y-92710000D02*
X80962500Y-89915500D01*
X80962500Y-89915500D02*
X80962500Y-73818750D01*
X45323100Y-30480000D02*
X50560269Y-35717169D01*
X66925097Y-35967459D02*
X66763193Y-35967459D01*
X69056250Y-38098612D02*
X66925097Y-35967459D01*
X50560269Y-35717169D02*
X61928877Y-35717169D01*
X82889500Y-93577500D02*
X83757000Y-92710000D01*
X69056250Y-40481250D02*
X69056250Y-38098612D01*
X82889500Y-98950000D02*
X82889500Y-93577500D01*
%TO.N,/U1.P1.01*%
X30345572Y-88971428D02*
X30345572Y-75635000D01*
X30956250Y-72295678D02*
X30956250Y-59531250D01*
X31502500Y-74478072D02*
X31502500Y-72841928D01*
X30345572Y-75635000D02*
X31502500Y-74478072D01*
X25739500Y-93577500D02*
X26607000Y-92710000D01*
X31502500Y-72841928D02*
X30956250Y-72295678D01*
X26607000Y-92710000D02*
X30345572Y-88971428D01*
X25739500Y-98950000D02*
X25739500Y-93577500D01*
%TO.N,/U1.P1.02*%
X42862500Y-50006250D02*
X43984400Y-48884350D01*
X44789500Y-93577500D02*
X45657000Y-92710000D01*
X47466250Y-40640000D02*
X58023100Y-40640000D01*
X45657000Y-92710000D02*
X42862500Y-89915500D01*
X43984400Y-48884350D02*
X43984400Y-44121850D01*
X42862500Y-89915500D02*
X42862500Y-54768750D01*
X44789500Y-98950000D02*
X44789500Y-93577500D01*
X43984400Y-44121850D02*
X47466250Y-40640000D01*
%TO.N,/U1.P1.07*%
X63839500Y-98950000D02*
X63839500Y-93577500D01*
X60726222Y-88729222D02*
X60726222Y-52345635D01*
X63839500Y-93577500D02*
X64707000Y-92710000D01*
X64707000Y-92710000D02*
X60726222Y-88729222D01*
%TO.N,/U2.P1.07*%
X161470800Y-98950000D02*
X161470800Y-93577500D01*
X166216250Y-84015000D02*
X166216250Y-88832050D01*
X161470800Y-93577500D02*
X162338300Y-92710000D01*
X175226250Y-40875000D02*
X167146250Y-48955000D01*
X166216250Y-88832050D02*
X162338300Y-92710000D01*
X167146250Y-48955000D02*
X167146250Y-50265000D01*
%TO.N,/U2.P1.02*%
X147026872Y-75635000D02*
X150018750Y-72643122D01*
X165718334Y-39042154D02*
X169041738Y-35718750D01*
X163757622Y-41626729D02*
X163160771Y-41626729D01*
X147026872Y-88971428D02*
X147026872Y-75635000D01*
X143288300Y-92710000D02*
X147026872Y-88971428D01*
X142420800Y-98950000D02*
X142420800Y-93577500D01*
X169041738Y-35718750D02*
X171450000Y-35718750D01*
X142420800Y-93577500D02*
X143288300Y-92710000D01*
X150018750Y-72643122D02*
X150018750Y-66675000D01*
X159543750Y-45243750D02*
X159543750Y-45440000D01*
X163160771Y-41626729D02*
X159543750Y-45243750D01*
%TO.N,/U2.P1.01*%
X128587500Y-88106250D02*
X124238300Y-92455450D01*
X124238300Y-92455450D02*
X124238300Y-92710000D01*
X123370800Y-93577500D02*
X124238300Y-92710000D01*
X123370800Y-98950000D02*
X123370800Y-93577500D01*
%TO.N,/U2.P1.06*%
X199570800Y-74527500D02*
X200438300Y-73660000D01*
X198215800Y-71437500D02*
X200438300Y-73660000D01*
X197643750Y-71437500D02*
X198215800Y-71437500D01*
X199570800Y-79900000D02*
X199570800Y-74527500D01*
%TO.N,/U2.P0.31*%
X180520800Y-98950000D02*
X180520800Y-93577500D01*
X181388300Y-90942950D02*
X181388300Y-92710000D01*
X180520800Y-93577500D02*
X181388300Y-92710000D01*
X183046250Y-89285000D02*
X181388300Y-90942950D01*
%TO.N,/U2.P0.29*%
X204143800Y-75866243D02*
X204143800Y-89004500D01*
X206185043Y-70616243D02*
X206185043Y-73825000D01*
X196906250Y-61337450D02*
X206185043Y-70616243D01*
X206185043Y-73825000D02*
X204143800Y-75866243D01*
X199570800Y-93577500D02*
X200438300Y-92710000D01*
X204143800Y-89004500D02*
X200438300Y-92710000D01*
X199570800Y-98950000D02*
X199570800Y-93577500D01*
X196906250Y-53365000D02*
X196906250Y-61337450D01*
%TO.N,/U2.P0.02*%
X123370800Y-118000000D02*
X123370800Y-112627500D01*
X186143800Y-72701928D02*
X186283800Y-72841928D01*
X124238300Y-110452950D02*
X124238300Y-111760000D01*
X176393800Y-102467450D02*
X175806250Y-103055000D01*
X186143800Y-62231928D02*
X186143800Y-72701928D01*
X126526250Y-108165000D02*
X124238300Y-110452950D01*
X176393800Y-94236827D02*
X176393800Y-102467450D01*
X123370800Y-112627500D02*
X124238300Y-111760000D01*
X186283800Y-74676243D02*
X185093800Y-75866243D01*
X188400728Y-59975000D02*
X186143800Y-62231928D01*
X189916250Y-59975000D02*
X188400728Y-59975000D01*
X186283800Y-72841928D02*
X186283800Y-74676243D01*
X185093800Y-75866243D02*
X185093800Y-85536827D01*
X185093800Y-85536827D02*
X176393800Y-94236827D01*
%TO.N,/U2.P1.15*%
X177396250Y-52515000D02*
X177396250Y-92597981D01*
X142420800Y-118000000D02*
X142420800Y-112627500D01*
X175943800Y-94050431D02*
X175943800Y-96787450D01*
X184956250Y-49055000D02*
X177576250Y-49055000D01*
X177396250Y-92597981D02*
X175943800Y-94050431D01*
X142420800Y-112627500D02*
X143288300Y-111760000D01*
X143288300Y-109082950D02*
X143288300Y-111760000D01*
X146596250Y-105775000D02*
X143288300Y-109082950D01*
X177576250Y-49055000D02*
X177376250Y-48855000D01*
X175943800Y-96787450D02*
X173466250Y-99265000D01*
%TO.N,/U2.P1.13*%
X167100800Y-108110450D02*
X169136250Y-106075000D01*
X182426275Y-48330000D02*
X179375361Y-48330000D01*
X167100800Y-111760000D02*
X167100800Y-108110450D01*
X166233300Y-112627500D02*
X167100800Y-111760000D01*
X178156250Y-52455000D02*
X178486250Y-52125000D01*
X185053001Y-45703274D02*
X182426275Y-48330000D01*
X166233300Y-118000000D02*
X166233300Y-112627500D01*
X178156250Y-89225000D02*
X178156250Y-52455000D01*
%TO.N,/U2.P1.11*%
X196286250Y-111149550D02*
X195675800Y-111760000D01*
X194808300Y-112627500D02*
X195675800Y-111760000D01*
X194808300Y-118000000D02*
X194808300Y-112627500D01*
X196286250Y-67715000D02*
X196286250Y-111149550D01*
%TO.N,/U2.P1.04*%
X178555313Y-31880962D02*
X178555313Y-35816022D01*
X185093800Y-56816243D02*
X185093800Y-69954500D01*
X180520800Y-79900000D02*
X180520800Y-74527500D01*
X185093800Y-69954500D02*
X181388300Y-73660000D01*
X180520800Y-74527500D02*
X181388300Y-73660000D01*
X185463568Y-43646092D02*
X187234714Y-43646092D01*
X188794301Y-45205679D02*
X188794301Y-51141427D01*
X179973001Y-30463274D02*
X178555313Y-31880962D01*
X188794301Y-51141427D02*
X186283800Y-53651928D01*
X186283800Y-53651928D02*
X186283800Y-55626243D01*
X178555313Y-35816022D02*
X178458059Y-35913276D01*
X186283800Y-55626243D02*
X185093800Y-56816243D01*
X187234714Y-43646092D02*
X188794301Y-45205679D01*
X178458059Y-39284574D02*
X184991426Y-39284574D01*
X184991426Y-39284574D02*
X185119071Y-39156929D01*
X178458059Y-35913276D02*
X178458059Y-39284574D01*
%TO.N,/U2.P0.11*%
X184732065Y-32682338D02*
X184732065Y-35880210D01*
X182513001Y-30463274D02*
X184732065Y-32682338D01*
X172350013Y-48535715D02*
X167233800Y-53651928D01*
X161470800Y-74527500D02*
X162338300Y-73660000D01*
X175418682Y-48535715D02*
X172350013Y-48535715D01*
X185737500Y-50006250D02*
X176889217Y-50006250D01*
X161470800Y-79900000D02*
X161470800Y-74527500D01*
X167233800Y-53651928D02*
X167233800Y-55626243D01*
X184732065Y-35880210D02*
X188430681Y-39578826D01*
X166043800Y-56816243D02*
X166043800Y-69954500D01*
X167233800Y-55626243D02*
X166043800Y-56816243D01*
X166043800Y-69954500D02*
X162338300Y-73660000D01*
X176889217Y-50006250D02*
X175418682Y-48535715D01*
%TO.N,/U2.P1.00*%
X143288300Y-68047050D02*
X143288300Y-73660000D01*
X142420800Y-74527500D02*
X143288300Y-73660000D01*
X142936250Y-67695000D02*
X143288300Y-68047050D01*
X142420800Y-79900000D02*
X142420800Y-74527500D01*
%TO.N,/U2.P0.24*%
X123370800Y-79900000D02*
X123370800Y-74527500D01*
X123825000Y-73246700D02*
X124238300Y-73660000D01*
X123370800Y-74527500D02*
X124238300Y-73660000D01*
X123825000Y-69056250D02*
X123825000Y-73246700D01*
%TO.N,/U2.P0.22*%
X199570800Y-55477500D02*
X200438300Y-54610000D01*
X199570800Y-60850000D02*
X199570800Y-55477500D01*
X200025000Y-54196700D02*
X200438300Y-54610000D01*
X200025000Y-50006250D02*
X200025000Y-54196700D01*
%TO.N,/U2.P0.20*%
X181388300Y-54355450D02*
X183356250Y-52387500D01*
X188118750Y-38100000D02*
X188118750Y-33337500D01*
X180520800Y-55477500D02*
X181388300Y-54610000D01*
X180520800Y-60850000D02*
X180520800Y-55477500D01*
X181388300Y-54610000D02*
X181388300Y-54355450D01*
%TO.N,/U2.P0.17*%
X184007065Y-35718750D02*
X184007065Y-35338443D01*
X195213001Y-33386999D02*
X195213001Y-30463274D01*
X162338300Y-47211700D02*
X173466608Y-36083392D01*
X181276313Y-34341974D02*
X179241831Y-36376456D01*
X192881250Y-35718750D02*
X195213001Y-33386999D01*
X161470800Y-60850000D02*
X161470800Y-55477500D01*
X179241831Y-36376456D02*
X179241831Y-36541022D01*
X183010596Y-34341974D02*
X181276313Y-34341974D01*
X173466608Y-36083392D02*
X174192083Y-36083392D01*
X162338300Y-54610000D02*
X162338300Y-47211700D01*
X184007065Y-35338443D02*
X183010596Y-34341974D01*
X161470800Y-55477500D02*
X162338300Y-54610000D01*
%TO.N,/U2.P0.08*%
X142420800Y-55477500D02*
X143288300Y-54610000D01*
X190623178Y-41692807D02*
X200651411Y-31664574D01*
X143288300Y-54610000D02*
X157417050Y-40481250D01*
X184651919Y-41692807D02*
X190623178Y-41692807D01*
X157417050Y-40481250D02*
X166687500Y-40481250D01*
X200651411Y-31664574D02*
X201631701Y-31664574D01*
X201631701Y-31664574D02*
X202833001Y-30463274D01*
X142420800Y-60850000D02*
X142420800Y-55477500D01*
%TO.N,/U2.P0.06*%
X205373001Y-37586356D02*
X203558001Y-39401356D01*
X135985800Y-42862500D02*
X152400000Y-42862500D01*
X195262500Y-42862500D02*
X182808750Y-42862500D01*
X182808750Y-42862500D02*
X181426250Y-44245000D01*
X124238300Y-54610000D02*
X135985800Y-42862500D01*
X197643750Y-40481250D02*
X195262500Y-42862500D01*
X123370800Y-60850000D02*
X123370800Y-55477500D01*
X123370800Y-55477500D02*
X124238300Y-54610000D01*
X205373001Y-30463274D02*
X205373001Y-37586356D01*
%TO.N,GND*%
X52387500Y-122271240D02*
X69056250Y-122271240D01*
X35712500Y-95256250D02*
X35712500Y-101133000D01*
X171443800Y-55031500D02*
X174405300Y-52070000D01*
X193455300Y-71120000D02*
X190800844Y-73774456D01*
X111074260Y-122271240D02*
X111895500Y-121450000D01*
X38674000Y-52070000D02*
X38674000Y-47289100D01*
X176212500Y-122175000D02*
X190500000Y-122175000D01*
X209543800Y-55031500D02*
X212505300Y-52070000D01*
X73812500Y-63033000D02*
X73812500Y-55031500D01*
X54745500Y-119913240D02*
X52387500Y-122271240D01*
X171443800Y-82083000D02*
X171443800Y-74081500D01*
X152700844Y-54724456D02*
X152700844Y-62725956D01*
X193455300Y-52070000D02*
X190800844Y-54724456D01*
X92845500Y-106241500D02*
X92845500Y-101150000D01*
X136305300Y-90170000D02*
X133326800Y-87191500D01*
X111895500Y-101150000D02*
X111912500Y-101133000D01*
X73795500Y-63050000D02*
X73812500Y-63033000D01*
X190476800Y-122151800D02*
X190500000Y-122175000D01*
X92845500Y-120200000D02*
X92862500Y-120183000D01*
X174224415Y-37286478D02*
X177419187Y-40481250D01*
X152376800Y-82100000D02*
X152376800Y-87191500D01*
X72011500Y-109220000D02*
X73795500Y-107436000D01*
X133343800Y-93131500D02*
X136305300Y-90170000D01*
X35712500Y-101133000D02*
X35695500Y-101150000D01*
X190500000Y-122175000D02*
X204039300Y-122175000D01*
X54745500Y-68141500D02*
X54745500Y-63050000D01*
X133326800Y-120200000D02*
X133326800Y-115218877D01*
X66144889Y-39199187D02*
X66144889Y-38782336D01*
X111895500Y-63050000D02*
X111912500Y-63033000D01*
X155355300Y-109220000D02*
X152700844Y-111874456D01*
X92862500Y-74081500D02*
X95824000Y-71120000D01*
X174405300Y-90170000D02*
X171426800Y-87191500D01*
X190800844Y-81775956D02*
X190476800Y-82100000D01*
X152376800Y-68141500D02*
X155355300Y-71120000D01*
X92862500Y-82083000D02*
X92862500Y-74081500D01*
X111912500Y-74081500D02*
X114874000Y-71120000D01*
X212505300Y-90170000D02*
X209526800Y-87191500D01*
X209199727Y-52070000D02*
X202833001Y-45703274D01*
X152700844Y-62725956D02*
X152376800Y-63050000D01*
X212505300Y-71120000D02*
X209526800Y-68141500D01*
X133326800Y-101150000D02*
X133343800Y-101133000D01*
X209526800Y-101150000D02*
X209543800Y-101133000D01*
X44121800Y-36898700D02*
X37703100Y-30480000D01*
X111912500Y-55031500D02*
X114874000Y-52070000D01*
X57724000Y-71120000D02*
X54745500Y-68141500D01*
X73812500Y-93131500D02*
X76774000Y-90170000D01*
X136305300Y-71120000D02*
X133326800Y-68141500D01*
X171443800Y-63033000D02*
X171443800Y-55031500D01*
X73795500Y-101150000D02*
X73812500Y-101133000D01*
X92845500Y-87191500D02*
X92845500Y-82100000D01*
X111912500Y-112181500D02*
X114874000Y-109220000D01*
X42783100Y-45720000D02*
X42783100Y-40560650D01*
X40782044Y-111874456D02*
X40782044Y-119875956D01*
X190476800Y-101150000D02*
X190476800Y-122151800D01*
X92862500Y-93131500D02*
X95824000Y-90170000D01*
X190800844Y-73774456D02*
X190800844Y-81775956D01*
X92845500Y-120200000D02*
X92845500Y-122247990D01*
X193455300Y-90170000D02*
X190493800Y-93131500D01*
X133326800Y-68141500D02*
X133326800Y-63050000D01*
X209526800Y-87191500D02*
X209526800Y-82100000D01*
X35695500Y-87191500D02*
X35695500Y-82100000D01*
X152700844Y-81775956D02*
X152376800Y-82100000D01*
X43436500Y-108891000D02*
X43436500Y-109220000D01*
X42783100Y-40560650D02*
X42862500Y-40481250D01*
X209526800Y-68141500D02*
X209526800Y-63050000D01*
X69033000Y-120200000D02*
X69050000Y-120183000D01*
X111912500Y-120183000D02*
X111912500Y-112181500D01*
X135301800Y-122175000D02*
X152400000Y-122175000D01*
X197753001Y-30463274D02*
X200293001Y-30463274D01*
X204764300Y-120200000D02*
X204781300Y-120183000D01*
X95824000Y-71120000D02*
X92845500Y-68141500D01*
X54762500Y-55031500D02*
X57724000Y-52070000D01*
X209526800Y-82100000D02*
X209543800Y-82083000D01*
X73795500Y-68141500D02*
X73795500Y-63050000D01*
X111912500Y-82083000D02*
X111912500Y-74081500D01*
X111895500Y-68141500D02*
X111895500Y-63050000D01*
X43436500Y-109220000D02*
X40782044Y-111874456D01*
X190800844Y-62725956D02*
X190476800Y-63050000D01*
X177419187Y-40481250D02*
X178593750Y-40481250D01*
X133326800Y-82100000D02*
X133343800Y-82083000D01*
X171443800Y-101133000D02*
X171443800Y-93131500D01*
X133326800Y-87191500D02*
X133326800Y-82100000D01*
X212505300Y-52070000D02*
X209199727Y-52070000D01*
X133326800Y-120200000D02*
X135301800Y-122175000D01*
X111912500Y-101133000D02*
X111912500Y-93131500D01*
X152376800Y-120200000D02*
X152376800Y-122151800D01*
X54745500Y-87191500D02*
X54745500Y-82100000D01*
X111895500Y-106241500D02*
X111895500Y-101150000D01*
X155355300Y-71120000D02*
X152700844Y-73774456D01*
X54745500Y-77118877D02*
X57724000Y-74140377D01*
X63844402Y-36898700D02*
X63409892Y-36464190D01*
X190493800Y-101133000D02*
X190476800Y-101150000D01*
X152376800Y-101150000D02*
X152376800Y-106241500D01*
X92862500Y-112181500D02*
X95824000Y-109220000D01*
X114874000Y-90170000D02*
X111895500Y-87191500D01*
X69050000Y-112181500D02*
X72011500Y-109220000D01*
X38674000Y-90170000D02*
X35695500Y-87191500D01*
X111895500Y-120200000D02*
X111912500Y-120183000D01*
X73812500Y-82083000D02*
X73812500Y-74081500D01*
X92845500Y-68141500D02*
X92845500Y-63050000D01*
X54745500Y-82100000D02*
X54745500Y-77118877D01*
X209543800Y-93131500D02*
X212505300Y-90170000D01*
X204764300Y-121450000D02*
X204764300Y-120200000D01*
X179167800Y-109220000D02*
X179167800Y-108891000D01*
X42862500Y-38100000D02*
X42920500Y-38100000D01*
X152700844Y-100825956D02*
X152376800Y-101150000D01*
X190476800Y-68141500D02*
X193455300Y-71120000D01*
X38674000Y-47289100D02*
X40243100Y-45720000D01*
X35695500Y-63050000D02*
X35695500Y-68141500D01*
X111912500Y-63033000D02*
X111912500Y-55031500D01*
X73795500Y-107436000D02*
X73795500Y-101150000D01*
X111895500Y-121450000D02*
X111895500Y-120200000D01*
X155355300Y-90170000D02*
X152700844Y-92824456D01*
X38674000Y-52070000D02*
X36019544Y-54724456D01*
X209526800Y-107436000D02*
X209526800Y-101150000D01*
X133326800Y-106241500D02*
X133326800Y-101150000D01*
X37142500Y-80653000D02*
X35695500Y-82100000D01*
X179167800Y-108891000D02*
X171426800Y-101150000D01*
X64261253Y-36898700D02*
X63844402Y-36898700D01*
X111912500Y-93131500D02*
X114874000Y-90170000D01*
X111895500Y-82100000D02*
X111912500Y-82083000D01*
X38674000Y-90170000D02*
X38674000Y-92294750D01*
X209543800Y-63033000D02*
X209543800Y-55031500D01*
X92845500Y-122247990D02*
X92868750Y-122271240D01*
X209526800Y-63050000D02*
X209543800Y-63033000D01*
X92845500Y-63050000D02*
X92862500Y-63033000D01*
X92845500Y-82100000D02*
X92862500Y-82083000D01*
X92862500Y-55031500D02*
X95824000Y-52070000D01*
X36019544Y-62725956D02*
X35695500Y-63050000D01*
X66144889Y-38782336D02*
X64261253Y-36898700D01*
X133326800Y-63050000D02*
X133343800Y-63033000D01*
X133343800Y-101133000D02*
X133343800Y-93131500D01*
X69056250Y-122271240D02*
X92868750Y-122271240D01*
X60733396Y-36898700D02*
X44121800Y-36898700D01*
X37142500Y-72651500D02*
X37142500Y-80653000D01*
X152376800Y-87191500D02*
X155355300Y-90170000D01*
X73795500Y-87191500D02*
X73795500Y-82100000D01*
X114874000Y-90170000D02*
X114428250Y-90615750D01*
X73812500Y-55031500D02*
X76774000Y-52070000D01*
X171426800Y-87191500D02*
X171426800Y-82100000D01*
X61167906Y-36464190D02*
X60733396Y-36898700D01*
X171443800Y-93131500D02*
X174405300Y-90170000D01*
X176189300Y-120200000D02*
X176189300Y-122151800D01*
X38674000Y-92294750D02*
X35712500Y-95256250D01*
X63409892Y-36464190D02*
X61167906Y-36464190D01*
X92862500Y-120183000D02*
X92862500Y-112181500D01*
X92845500Y-101150000D02*
X92862500Y-101133000D01*
X55069544Y-100825956D02*
X54745500Y-101150000D01*
X95824000Y-90170000D02*
X92845500Y-87191500D01*
X73795500Y-82100000D02*
X73812500Y-82083000D01*
X176206300Y-112181500D02*
X179167800Y-109220000D01*
X174405300Y-71120000D02*
X171426800Y-68141500D01*
X133343800Y-63033000D02*
X133343800Y-55031500D01*
X207742800Y-109220000D02*
X209526800Y-107436000D01*
X73812500Y-74081500D02*
X76774000Y-71120000D01*
X136305300Y-112240377D02*
X136305300Y-109220000D01*
X190476800Y-87191500D02*
X193455300Y-90170000D01*
X54745500Y-101150000D02*
X54745500Y-119913240D01*
X64473352Y-31028089D02*
X63844402Y-31657039D01*
X176189300Y-122151800D02*
X176212500Y-122175000D01*
X152700844Y-73774456D02*
X152700844Y-81775956D01*
X76774000Y-90170000D02*
X73795500Y-87191500D01*
X133343800Y-55031500D02*
X136305300Y-52070000D01*
X152700844Y-111874456D02*
X152700844Y-119875956D01*
X152376800Y-106241500D02*
X155355300Y-109220000D01*
X92868750Y-122271240D02*
X111074260Y-122271240D01*
X92862500Y-101133000D02*
X92862500Y-93131500D01*
X114874000Y-109220000D02*
X111895500Y-106241500D01*
X204781300Y-112181500D02*
X207742800Y-109220000D01*
X55069544Y-92824456D02*
X55069544Y-100825956D01*
X73812500Y-101133000D02*
X73812500Y-93131500D01*
X152700844Y-92824456D02*
X152700844Y-100825956D01*
X209543800Y-101133000D02*
X209543800Y-93131500D01*
X209543800Y-74081500D02*
X212505300Y-71120000D01*
X152400000Y-122175000D02*
X176212500Y-122175000D01*
X190493800Y-93131500D02*
X190493800Y-101133000D01*
X190476800Y-63050000D02*
X190476800Y-68141500D01*
X171426800Y-68141500D02*
X171426800Y-63050000D01*
X171443800Y-74081500D02*
X174405300Y-71120000D01*
X171426800Y-63050000D02*
X171443800Y-63033000D01*
X171426800Y-101150000D02*
X171443800Y-101133000D01*
X152376800Y-63050000D02*
X152376800Y-68141500D01*
X133343800Y-82083000D02*
X133343800Y-74081500D01*
X40782044Y-119875956D02*
X40458000Y-120200000D01*
X92862500Y-63033000D02*
X92862500Y-55031500D01*
X204781300Y-120183000D02*
X204781300Y-112181500D01*
X57724000Y-90170000D02*
X55069544Y-92824456D01*
X57724000Y-74140377D02*
X57724000Y-71120000D01*
X204039300Y-122175000D02*
X204764300Y-121450000D01*
X155355300Y-52070000D02*
X152700844Y-54724456D01*
X63844402Y-31657039D02*
X63844402Y-36898700D01*
X176206300Y-120183000D02*
X176206300Y-112181500D01*
X171426800Y-82100000D02*
X171443800Y-82083000D01*
X114874000Y-71120000D02*
X111895500Y-68141500D01*
X76774000Y-71120000D02*
X73795500Y-68141500D01*
X136305300Y-109220000D02*
X133326800Y-106241500D01*
X209543800Y-82083000D02*
X209543800Y-74081500D01*
X36019544Y-54724456D02*
X36019544Y-62725956D01*
X35695500Y-68141500D02*
X38674000Y-71120000D01*
X42920500Y-38100000D02*
X44121800Y-36898700D01*
X35695500Y-101150000D02*
X43436500Y-108891000D01*
X38674000Y-71120000D02*
X37142500Y-72651500D01*
X69050000Y-120183000D02*
X69050000Y-112181500D01*
X57724000Y-90170000D02*
X54745500Y-87191500D01*
X42529240Y-122271240D02*
X52387500Y-122271240D01*
X54745500Y-63050000D02*
X54762500Y-63033000D01*
X133343800Y-74081500D02*
X136305300Y-71120000D01*
X190800844Y-54724456D02*
X190800844Y-62725956D01*
X152700844Y-119875956D02*
X152376800Y-120200000D01*
X40458000Y-120200000D02*
X42529240Y-122271240D01*
X69033000Y-120200000D02*
X69033000Y-122247990D01*
X133326800Y-115218877D02*
X136305300Y-112240377D01*
X176189300Y-120200000D02*
X176206300Y-120183000D01*
X95824000Y-109220000D02*
X92845500Y-106241500D01*
X69033000Y-122247990D02*
X69056250Y-122271240D01*
X54762500Y-63033000D02*
X54762500Y-55031500D01*
X111895500Y-87191500D02*
X111895500Y-82100000D01*
X190476800Y-82100000D02*
X190476800Y-87191500D01*
X152376800Y-122151800D02*
X152400000Y-122175000D01*
%TO.N,/RST2*%
X200293001Y-38368001D02*
X200293001Y-45703274D01*
X197643750Y-35718750D02*
X200293001Y-38368001D01*
%TD*%
M02*
