%TF.GenerationSoftware,KiCad,Pcbnew,7.0.6*%
%TF.CreationDate,2023-11-09T09:41:23-05:00*%
%TF.ProjectId,split38,73706c69-7433-4382-9e6b-696361645f70,rev?*%
%TF.SameCoordinates,Original*%
%TF.FileFunction,Copper,L1,Top*%
%TF.FilePolarity,Positive*%
%FSLAX46Y46*%
G04 Gerber Fmt 4.6, Leading zero omitted, Abs format (unit mm)*
G04 Created by KiCad (PCBNEW 7.0.6) date 2023-11-09 09:41:23*
%MOMM*%
%LPD*%
G01*
G04 APERTURE LIST*
G04 Aperture macros list*
%AMRoundRect*
0 Rectangle with rounded corners*
0 $1 Rounding radius*
0 $2 $3 $4 $5 $6 $7 $8 $9 X,Y pos of 4 corners*
0 Add a 4 corners polygon primitive as box body*
4,1,4,$2,$3,$4,$5,$6,$7,$8,$9,$2,$3,0*
0 Add four circle primitives for the rounded corners*
1,1,$1+$1,$2,$3*
1,1,$1+$1,$4,$5*
1,1,$1+$1,$6,$7*
1,1,$1+$1,$8,$9*
0 Add four rect primitives between the rounded corners*
20,1,$1+$1,$2,$3,$4,$5,0*
20,1,$1+$1,$4,$5,$6,$7,0*
20,1,$1+$1,$6,$7,$8,$9,0*
20,1,$1+$1,$8,$9,$2,$3,0*%
G04 Aperture macros list end*
%TA.AperFunction,ComponentPad*%
%ADD10RoundRect,0.250000X0.625000X-0.350000X0.625000X0.350000X-0.625000X0.350000X-0.625000X-0.350000X0*%
%TD*%
%TA.AperFunction,ComponentPad*%
%ADD11O,1.750000X1.200000*%
%TD*%
%TA.AperFunction,SMDPad,CuDef*%
%ADD12R,1.000000X0.800000*%
%TD*%
%TA.AperFunction,SMDPad,CuDef*%
%ADD13R,0.700000X1.500000*%
%TD*%
%TA.AperFunction,ComponentPad*%
%ADD14C,1.752600*%
%TD*%
%TA.AperFunction,ComponentPad*%
%ADD15RoundRect,0.250000X-0.625000X0.350000X-0.625000X-0.350000X0.625000X-0.350000X0.625000X0.350000X0*%
%TD*%
%TA.AperFunction,SMDPad,CuDef*%
%ADD16R,1.550000X1.000000*%
%TD*%
%TA.AperFunction,WasherPad*%
%ADD17C,2.100000*%
%TD*%
%TA.AperFunction,WasherPad*%
%ADD18C,1.900000*%
%TD*%
%TA.AperFunction,ComponentPad*%
%ADD19C,3.000000*%
%TD*%
%TA.AperFunction,ComponentPad*%
%ADD20C,3.300000*%
%TD*%
%TA.AperFunction,ViaPad*%
%ADD21C,0.800000*%
%TD*%
%TA.AperFunction,Conductor*%
%ADD22C,0.250000*%
%TD*%
G04 APERTURE END LIST*
D10*
%TO.P,J1,1,Pin_1*%
%TO.N,GND*%
X66144889Y-39199187D03*
D11*
%TO.P,J1,2,Pin_2*%
%TO.N,Net-(J1-Pin_2)*%
X66144889Y-37199187D03*
%TD*%
D12*
%TO.P,SW1,*%
%TO.N,*%
X81874756Y-32776021D03*
X81874756Y-30566021D03*
X74574756Y-32776021D03*
X74574756Y-30566021D03*
D13*
%TO.P,SW1,1,A*%
%TO.N,/BATIN1*%
X80474756Y-33426021D03*
%TO.P,SW1,2,B*%
%TO.N,Net-(J1-Pin_2)*%
X77474756Y-33426021D03*
%TO.P,SW1,3,C*%
%TO.N,unconnected-(SW1-C-Pad3)*%
X75974756Y-33426021D03*
%TD*%
D14*
%TO.P,U1,1,TX0/P0.06*%
%TO.N,/U1.P0.06*%
X35163100Y-45720000D03*
%TO.P,U1,2,RX1/P0.08*%
%TO.N,/U1.P0.08*%
X37703100Y-45720000D03*
%TO.P,U1,3,GND*%
%TO.N,GND*%
X40243100Y-45720000D03*
%TO.P,U1,4,GND*%
X42783100Y-45720000D03*
%TO.P,U1,5,P0.17*%
%TO.N,/U1.P0.17*%
X45323100Y-45720000D03*
%TO.P,U1,6,P0.20*%
%TO.N,/U1.P0.20*%
X47863100Y-45720000D03*
%TO.P,U1,7,P0.22*%
%TO.N,/U1.P0.22*%
X50403100Y-45720000D03*
%TO.P,U1,8,P0.24*%
%TO.N,/U1.P0.24*%
X52943100Y-45720000D03*
%TO.P,U1,9,P1.00*%
%TO.N,/U1.P1.00*%
X55483100Y-45720000D03*
%TO.P,U1,10,P0.11*%
%TO.N,/U1.P0.11*%
X58023100Y-45720000D03*
%TO.P,U1,11,P1.04*%
%TO.N,/U1.P1.04*%
X60563100Y-45720000D03*
%TO.P,U1,12,P1.06*%
%TO.N,/U1.P1.06*%
X63103100Y-45720000D03*
%TO.P,U1,13,NFC1/P0.09*%
%TO.N,/U1.P0.09*%
X63103100Y-30480000D03*
%TO.P,U1,14,NFC2/P0.10*%
%TO.N,/U1.P0.10*%
X60563100Y-30480000D03*
%TO.P,U1,15,P1.11*%
%TO.N,/U1.P1.11*%
X58023100Y-30480000D03*
%TO.P,U1,16,P1.13*%
%TO.N,/U1.P1.13*%
X55483100Y-30480000D03*
%TO.P,U1,17,P1.15*%
%TO.N,/U1.P1.15*%
X52943100Y-30480000D03*
%TO.P,U1,18,AIN0/P0.02*%
%TO.N,/U1.P0.02*%
X50403100Y-30480000D03*
%TO.P,U1,19,AIN5/P0.29*%
%TO.N,/U1.P0.29*%
X47863100Y-30480000D03*
%TO.P,U1,20,AIN7/P0.31*%
%TO.N,/U1.P0.31*%
X45323100Y-30480000D03*
%TO.P,U1,21,VCC*%
%TO.N,unconnected-(U1-VCC-Pad21)*%
X42783100Y-30480000D03*
%TO.P,U1,22,RST*%
%TO.N,/RST1*%
X40243100Y-30480000D03*
%TO.P,U1,23,GND*%
%TO.N,GND*%
X37703100Y-30480000D03*
%TO.P,U1,24,BATIN/P0.04*%
%TO.N,/BATIN1*%
X35163100Y-30480000D03*
%TO.P,U1,31,P1.01*%
%TO.N,/U1.P1.01*%
X58023100Y-43180000D03*
%TO.P,U1,32,P1.02*%
%TO.N,/U1.P1.02*%
X58023100Y-40640000D03*
%TO.P,U1,33,P1.07*%
%TO.N,/U1.P1.07*%
X58023100Y-38100000D03*
%TD*%
D15*
%TO.P,J2,1,Pin_1*%
%TO.N,GND*%
X174224415Y-37286478D03*
D11*
%TO.P,J2,2,Pin_2*%
%TO.N,Net-(J2-Pin_2)*%
X174224415Y-39286478D03*
%TD*%
D16*
%TO.P,SW4,1,1*%
%TO.N,GND*%
X168825000Y-31112500D03*
X174075000Y-31112500D03*
%TO.P,SW4,2,2*%
%TO.N,/RST2*%
X168825000Y-32812500D03*
X174075000Y-32812500D03*
%TD*%
D12*
%TO.P,SW2,*%
%TO.N,*%
X165909615Y-32713808D03*
X165909615Y-30503808D03*
X158609615Y-32713808D03*
X158609615Y-30503808D03*
D13*
%TO.P,SW2,1,A*%
%TO.N,/BATIN2*%
X164509615Y-33363808D03*
%TO.P,SW2,2,B*%
%TO.N,Net-(J2-Pin_2)*%
X161509615Y-33363808D03*
%TO.P,SW2,3,C*%
%TO.N,unconnected-(SW2-C-Pad3)*%
X160009615Y-33363808D03*
%TD*%
D16*
%TO.P,SW3,1,1*%
%TO.N,GND*%
X66431250Y-31112500D03*
X71681250Y-31112500D03*
%TO.P,SW3,2,2*%
%TO.N,/RST1*%
X66431250Y-32812500D03*
X71681250Y-32812500D03*
%TD*%
D14*
%TO.P,U2,1,TX0/P0.06*%
%TO.N,/U2.P0.06*%
X205373001Y-30463274D03*
%TO.P,U2,2,RX1/P0.08*%
%TO.N,/U2.P0.08*%
X202833001Y-30463274D03*
%TO.P,U2,3,GND*%
%TO.N,GND*%
X200293001Y-30463274D03*
%TO.P,U2,4,GND*%
X197753001Y-30463274D03*
%TO.P,U2,5,P0.17*%
%TO.N,/U2.P0.17*%
X195213001Y-30463274D03*
%TO.P,U2,6,P0.20*%
%TO.N,/U2.P0.20*%
X192673001Y-30463274D03*
%TO.P,U2,7,P0.22*%
%TO.N,/U2.P0.22*%
X190133001Y-30463274D03*
%TO.P,U2,8,P0.24*%
%TO.N,/U2.P0.24*%
X187593001Y-30463274D03*
%TO.P,U2,9,P1.00*%
%TO.N,/U2.P1.00*%
X185053001Y-30463274D03*
%TO.P,U2,10,P0.11*%
%TO.N,/U2.P0.11*%
X182513001Y-30463274D03*
%TO.P,U2,11,P1.04*%
%TO.N,/U2.P1.04*%
X179973001Y-30463274D03*
%TO.P,U2,12,P1.06*%
%TO.N,/U2.P1.06*%
X177433001Y-30463274D03*
%TO.P,U2,13,NFC1/P0.09*%
%TO.N,/U2.P0.09*%
X177433001Y-45703274D03*
%TO.P,U2,14,NFC2/P0.10*%
%TO.N,/U2.P0.10*%
X179973001Y-45703274D03*
%TO.P,U2,15,P1.11*%
%TO.N,/U2.P1.11*%
X182513001Y-45703274D03*
%TO.P,U2,16,P1.13*%
%TO.N,/U2.P1.13*%
X185053001Y-45703274D03*
%TO.P,U2,17,P1.15*%
%TO.N,/U2.P1.15*%
X187593001Y-45703274D03*
%TO.P,U2,18,AIN0/P0.02*%
%TO.N,/U2.P0.02*%
X190133001Y-45703274D03*
%TO.P,U2,19,AIN5/P0.29*%
%TO.N,/U2.P0.29*%
X192673001Y-45703274D03*
%TO.P,U2,20,AIN7/P0.31*%
%TO.N,/U2.P0.31*%
X195213001Y-45703274D03*
%TO.P,U2,21,VCC*%
%TO.N,unconnected-(U2-VCC-Pad21)*%
X197753001Y-45703274D03*
%TO.P,U2,22,RST*%
%TO.N,/RST2*%
X200293001Y-45703274D03*
%TO.P,U2,23,GND*%
%TO.N,GND*%
X202833001Y-45703274D03*
%TO.P,U2,24,BATIN/P0.04*%
%TO.N,/BATIN2*%
X205373001Y-45703274D03*
%TO.P,U2,31,P1.01*%
%TO.N,/U2.P1.01*%
X182513001Y-33003274D03*
%TO.P,U2,32,P1.02*%
%TO.N,/U2.P1.02*%
X182513001Y-35543274D03*
%TO.P,U2,33,P1.07*%
%TO.N,/U2.P1.07*%
X182513001Y-38083274D03*
%TD*%
D17*
%TO.P,MX14,*%
%TO.N,*%
X95987500Y-95250000D03*
X95987500Y-95250000D03*
D18*
X95567500Y-95250000D03*
X95567500Y-95250000D03*
D19*
X90487500Y-101150000D03*
D20*
X90487500Y-101150000D03*
D19*
X85487500Y-98950000D03*
D20*
X85487500Y-98950000D03*
D18*
X85407500Y-95250000D03*
X85407500Y-95250000D03*
D17*
X84987500Y-95250000D03*
X84987500Y-95250000D03*
D20*
%TO.P,MX14,1,1*%
%TO.N,/U1.P0.31*%
X86677500Y-92710000D03*
%TO.P,MX14,2,2*%
%TO.N,GND*%
X93027500Y-90170000D03*
%TD*%
D17*
%TO.P,MX30,*%
%TO.N,*%
X212668800Y-76200000D03*
X212668800Y-76200000D03*
D18*
X212248800Y-76200000D03*
X212248800Y-76200000D03*
D19*
X207168800Y-82100000D03*
D20*
X207168800Y-82100000D03*
D19*
X202168800Y-79900000D03*
D20*
X202168800Y-79900000D03*
D18*
X202088800Y-76200000D03*
X202088800Y-76200000D03*
D17*
X201668800Y-76200000D03*
X201668800Y-76200000D03*
D20*
%TO.P,MX30,1,1*%
%TO.N,/U2.P1.06*%
X203358800Y-73660000D03*
%TO.P,MX30,2,2*%
%TO.N,GND*%
X209708800Y-71120000D03*
%TD*%
D17*
%TO.P,MX13,*%
%TO.N,*%
X76937500Y-95250000D03*
X76937500Y-95250000D03*
D18*
X76517500Y-95250000D03*
X76517500Y-95250000D03*
D19*
X71437500Y-101150000D03*
D20*
X71437500Y-101150000D03*
D19*
X66437500Y-98950000D03*
D20*
X66437500Y-98950000D03*
D18*
X66357500Y-95250000D03*
X66357500Y-95250000D03*
D17*
X65937500Y-95250000D03*
X65937500Y-95250000D03*
D20*
%TO.P,MX13,1,1*%
%TO.N,/U1.P1.07*%
X67627500Y-92710000D03*
%TO.P,MX13,2,2*%
%TO.N,GND*%
X73977500Y-90170000D03*
%TD*%
D17*
%TO.P,MX1,*%
%TO.N,*%
X38837500Y-57150000D03*
X38837500Y-57150000D03*
D18*
X38417500Y-57150000D03*
X38417500Y-57150000D03*
D19*
X33337500Y-63050000D03*
D20*
X33337500Y-63050000D03*
D19*
X28337500Y-60850000D03*
D20*
X28337500Y-60850000D03*
D18*
X28257500Y-57150000D03*
X28257500Y-57150000D03*
D17*
X27837500Y-57150000D03*
X27837500Y-57150000D03*
D20*
%TO.P,MX1,1,1*%
%TO.N,/U1.P0.06*%
X29527500Y-54610000D03*
%TO.P,MX1,2,2*%
%TO.N,GND*%
X35877500Y-52070000D03*
%TD*%
D17*
%TO.P,MX12,*%
%TO.N,*%
X57887500Y-95250000D03*
X57887500Y-95250000D03*
D18*
X57467500Y-95250000D03*
X57467500Y-95250000D03*
D19*
X52387500Y-101150000D03*
D20*
X52387500Y-101150000D03*
D19*
X47387500Y-98950000D03*
D20*
X47387500Y-98950000D03*
D18*
X47307500Y-95250000D03*
X47307500Y-95250000D03*
D17*
X46887500Y-95250000D03*
X46887500Y-95250000D03*
D20*
%TO.P,MX12,1,1*%
%TO.N,/U1.P1.02*%
X48577500Y-92710000D03*
%TO.P,MX12,2,2*%
%TO.N,GND*%
X54927500Y-90170000D03*
%TD*%
D17*
%TO.P,MX21,*%
%TO.N,*%
X136468800Y-57150000D03*
X136468800Y-57150000D03*
D18*
X136048800Y-57150000D03*
X136048800Y-57150000D03*
D19*
X130968800Y-63050000D03*
D20*
X130968800Y-63050000D03*
D19*
X125968800Y-60850000D03*
D20*
X125968800Y-60850000D03*
D18*
X125888800Y-57150000D03*
X125888800Y-57150000D03*
D17*
X125468800Y-57150000D03*
X125468800Y-57150000D03*
D20*
%TO.P,MX21,1,1*%
%TO.N,/U2.P0.06*%
X127158800Y-54610000D03*
%TO.P,MX21,2,2*%
%TO.N,GND*%
X133508800Y-52070000D03*
%TD*%
D17*
%TO.P,MX7,*%
%TO.N,*%
X57887500Y-76200000D03*
X57887500Y-76200000D03*
D18*
X57467500Y-76200000D03*
X57467500Y-76200000D03*
D19*
X52387500Y-82100000D03*
D20*
X52387500Y-82100000D03*
D19*
X47387500Y-79900000D03*
D20*
X47387500Y-79900000D03*
D18*
X47307500Y-76200000D03*
X47307500Y-76200000D03*
D17*
X46887500Y-76200000D03*
X46887500Y-76200000D03*
D20*
%TO.P,MX7,1,1*%
%TO.N,/U1.P1.00*%
X48577500Y-73660000D03*
%TO.P,MX7,2,2*%
%TO.N,GND*%
X54927500Y-71120000D03*
%TD*%
D17*
%TO.P,MX16,*%
%TO.N,*%
X95987500Y-114300000D03*
X95987500Y-114300000D03*
D18*
X95567500Y-114300000D03*
X95567500Y-114300000D03*
D19*
X90487500Y-120200000D03*
D20*
X90487500Y-120200000D03*
D19*
X85487500Y-118000000D03*
D20*
X85487500Y-118000000D03*
D18*
X85407500Y-114300000D03*
X85407500Y-114300000D03*
D17*
X84987500Y-114300000D03*
X84987500Y-114300000D03*
D20*
%TO.P,MX16,1,1*%
%TO.N,/U1.P0.02*%
X86677500Y-111760000D03*
%TO.P,MX16,2,2*%
%TO.N,GND*%
X93027500Y-109220000D03*
%TD*%
D17*
%TO.P,MX38,*%
%TO.N,*%
X179331300Y-114300000D03*
X179331300Y-114300000D03*
D18*
X178911300Y-114300000D03*
X178911300Y-114300000D03*
D19*
X173831300Y-120200000D03*
D20*
X173831300Y-120200000D03*
D19*
X168831300Y-118000000D03*
D20*
X168831300Y-118000000D03*
D18*
X168751300Y-114300000D03*
X168751300Y-114300000D03*
D17*
X168331300Y-114300000D03*
X168331300Y-114300000D03*
D20*
%TO.P,MX38,1,1*%
%TO.N,/U2.P1.13*%
X170021300Y-111760000D03*
%TO.P,MX38,2,2*%
%TO.N,GND*%
X176371300Y-109220000D03*
%TD*%
D17*
%TO.P,MX22,*%
%TO.N,*%
X155518800Y-57150000D03*
X155518800Y-57150000D03*
D18*
X155098800Y-57150000D03*
X155098800Y-57150000D03*
D19*
X150018800Y-63050000D03*
D20*
X150018800Y-63050000D03*
D19*
X145018800Y-60850000D03*
D20*
X145018800Y-60850000D03*
D18*
X144938800Y-57150000D03*
X144938800Y-57150000D03*
D17*
X144518800Y-57150000D03*
X144518800Y-57150000D03*
D20*
%TO.P,MX22,1,1*%
%TO.N,/U2.P0.08*%
X146208800Y-54610000D03*
%TO.P,MX22,2,2*%
%TO.N,GND*%
X152558800Y-52070000D03*
%TD*%
D17*
%TO.P,MX19,*%
%TO.N,*%
X72175000Y-114300000D03*
X72175000Y-114300000D03*
D18*
X71755000Y-114300000D03*
X71755000Y-114300000D03*
D19*
X66675000Y-120200000D03*
D20*
X66675000Y-120200000D03*
D19*
X61675000Y-118000000D03*
D20*
X61675000Y-118000000D03*
D18*
X61595000Y-114300000D03*
X61595000Y-114300000D03*
D17*
X61175000Y-114300000D03*
X61175000Y-114300000D03*
D20*
%TO.P,MX19,1,1*%
%TO.N,/U1.P1.11*%
X62865000Y-111760000D03*
%TO.P,MX19,2,2*%
%TO.N,GND*%
X69215000Y-109220000D03*
%TD*%
D17*
%TO.P,MX28,*%
%TO.N,*%
X174568800Y-76200000D03*
X174568800Y-76200000D03*
D18*
X174148800Y-76200000D03*
X174148800Y-76200000D03*
D19*
X169068800Y-82100000D03*
D20*
X169068800Y-82100000D03*
D19*
X164068800Y-79900000D03*
D20*
X164068800Y-79900000D03*
D18*
X163988800Y-76200000D03*
X163988800Y-76200000D03*
D17*
X163568800Y-76200000D03*
X163568800Y-76200000D03*
D20*
%TO.P,MX28,1,1*%
%TO.N,/U2.P0.11*%
X165258800Y-73660000D03*
%TO.P,MX28,2,2*%
%TO.N,GND*%
X171608800Y-71120000D03*
%TD*%
D17*
%TO.P,MX33,*%
%TO.N,*%
X174568800Y-95250000D03*
X174568800Y-95250000D03*
D18*
X174148800Y-95250000D03*
X174148800Y-95250000D03*
D19*
X169068800Y-101150000D03*
D20*
X169068800Y-101150000D03*
D19*
X164068800Y-98950000D03*
D20*
X164068800Y-98950000D03*
D18*
X163988800Y-95250000D03*
X163988800Y-95250000D03*
D17*
X163568800Y-95250000D03*
X163568800Y-95250000D03*
D20*
%TO.P,MX33,1,1*%
%TO.N,/U2.P1.07*%
X165258800Y-92710000D03*
%TO.P,MX33,2,2*%
%TO.N,GND*%
X171608800Y-90170000D03*
%TD*%
D17*
%TO.P,MX9,*%
%TO.N,*%
X95987500Y-76200000D03*
X95987500Y-76200000D03*
D18*
X95567500Y-76200000D03*
X95567500Y-76200000D03*
D19*
X90487500Y-82100000D03*
D20*
X90487500Y-82100000D03*
D19*
X85487500Y-79900000D03*
D20*
X85487500Y-79900000D03*
D18*
X85407500Y-76200000D03*
X85407500Y-76200000D03*
D17*
X84987500Y-76200000D03*
X84987500Y-76200000D03*
D20*
%TO.P,MX9,1,1*%
%TO.N,/U1.P1.04*%
X86677500Y-73660000D03*
%TO.P,MX9,2,2*%
%TO.N,GND*%
X93027500Y-71120000D03*
%TD*%
D17*
%TO.P,MX17,*%
%TO.N,*%
X115037500Y-114300000D03*
X115037500Y-114300000D03*
D18*
X114617500Y-114300000D03*
X114617500Y-114300000D03*
D19*
X109537500Y-120200000D03*
D20*
X109537500Y-120200000D03*
D19*
X104537500Y-118000000D03*
D20*
X104537500Y-118000000D03*
D18*
X104457500Y-114300000D03*
X104457500Y-114300000D03*
D17*
X104037500Y-114300000D03*
X104037500Y-114300000D03*
D20*
%TO.P,MX17,1,1*%
%TO.N,/U1.P1.15*%
X105727500Y-111760000D03*
%TO.P,MX17,2,2*%
%TO.N,GND*%
X112077500Y-109220000D03*
%TD*%
D17*
%TO.P,MX27,*%
%TO.N,*%
X155518800Y-76200000D03*
X155518800Y-76200000D03*
D18*
X155098800Y-76200000D03*
X155098800Y-76200000D03*
D19*
X150018800Y-82100000D03*
D20*
X150018800Y-82100000D03*
D19*
X145018800Y-79900000D03*
D20*
X145018800Y-79900000D03*
D18*
X144938800Y-76200000D03*
X144938800Y-76200000D03*
D17*
X144518800Y-76200000D03*
X144518800Y-76200000D03*
D20*
%TO.P,MX27,1,1*%
%TO.N,/U2.P1.00*%
X146208800Y-73660000D03*
%TO.P,MX27,2,2*%
%TO.N,GND*%
X152558800Y-71120000D03*
%TD*%
D17*
%TO.P,MX3,*%
%TO.N,*%
X76937500Y-57150000D03*
X76937500Y-57150000D03*
D18*
X76517500Y-57150000D03*
X76517500Y-57150000D03*
D19*
X71437500Y-63050000D03*
D20*
X71437500Y-63050000D03*
D19*
X66437500Y-60850000D03*
D20*
X66437500Y-60850000D03*
D18*
X66357500Y-57150000D03*
X66357500Y-57150000D03*
D17*
X65937500Y-57150000D03*
X65937500Y-57150000D03*
D20*
%TO.P,MX3,1,1*%
%TO.N,/U1.P0.17*%
X67627500Y-54610000D03*
%TO.P,MX3,2,2*%
%TO.N,GND*%
X73977500Y-52070000D03*
%TD*%
D17*
%TO.P,MX26,*%
%TO.N,*%
X136468800Y-76200000D03*
X136468800Y-76200000D03*
D18*
X136048800Y-76200000D03*
X136048800Y-76200000D03*
D19*
X130968800Y-82100000D03*
D20*
X130968800Y-82100000D03*
D19*
X125968800Y-79900000D03*
D20*
X125968800Y-79900000D03*
D18*
X125888800Y-76200000D03*
X125888800Y-76200000D03*
D17*
X125468800Y-76200000D03*
X125468800Y-76200000D03*
D20*
%TO.P,MX26,1,1*%
%TO.N,/U2.P0.24*%
X127158800Y-73660000D03*
%TO.P,MX26,2,2*%
%TO.N,GND*%
X133508800Y-71120000D03*
%TD*%
D17*
%TO.P,MX36,*%
%TO.N,*%
X136468800Y-114300000D03*
X136468800Y-114300000D03*
D18*
X136048800Y-114300000D03*
X136048800Y-114300000D03*
D19*
X130968800Y-120200000D03*
D20*
X130968800Y-120200000D03*
D19*
X125968800Y-118000000D03*
D20*
X125968800Y-118000000D03*
D18*
X125888800Y-114300000D03*
X125888800Y-114300000D03*
D17*
X125468800Y-114300000D03*
X125468800Y-114300000D03*
D20*
%TO.P,MX36,1,1*%
%TO.N,/U2.P0.02*%
X127158800Y-111760000D03*
%TO.P,MX36,2,2*%
%TO.N,GND*%
X133508800Y-109220000D03*
%TD*%
D17*
%TO.P,MX34,*%
%TO.N,*%
X193618800Y-95250000D03*
X193618800Y-95250000D03*
D18*
X193198800Y-95250000D03*
X193198800Y-95250000D03*
D19*
X188118800Y-101150000D03*
D20*
X188118800Y-101150000D03*
D19*
X183118800Y-98950000D03*
D20*
X183118800Y-98950000D03*
D18*
X183038800Y-95250000D03*
X183038800Y-95250000D03*
D17*
X182618800Y-95250000D03*
X182618800Y-95250000D03*
D20*
%TO.P,MX34,1,1*%
%TO.N,/U2.P0.31*%
X184308800Y-92710000D03*
%TO.P,MX34,2,2*%
%TO.N,GND*%
X190658800Y-90170000D03*
%TD*%
D17*
%TO.P,MX39,*%
%TO.N,*%
X207906300Y-114300000D03*
X207906300Y-114300000D03*
D18*
X207486300Y-114300000D03*
X207486300Y-114300000D03*
D19*
X202406300Y-120200000D03*
D20*
X202406300Y-120200000D03*
D19*
X197406300Y-118000000D03*
D20*
X197406300Y-118000000D03*
D18*
X197326300Y-114300000D03*
X197326300Y-114300000D03*
D17*
X196906300Y-114300000D03*
X196906300Y-114300000D03*
D20*
%TO.P,MX39,1,1*%
%TO.N,/U2.P1.11*%
X198596300Y-111760000D03*
%TO.P,MX39,2,2*%
%TO.N,GND*%
X204946300Y-109220000D03*
%TD*%
D17*
%TO.P,MX25,*%
%TO.N,*%
X212668800Y-57150000D03*
X212668800Y-57150000D03*
D18*
X212248800Y-57150000D03*
X212248800Y-57150000D03*
D19*
X207168800Y-63050000D03*
D20*
X207168800Y-63050000D03*
D19*
X202168800Y-60850000D03*
D20*
X202168800Y-60850000D03*
D18*
X202088800Y-57150000D03*
X202088800Y-57150000D03*
D17*
X201668800Y-57150000D03*
X201668800Y-57150000D03*
D20*
%TO.P,MX25,1,1*%
%TO.N,/U2.P0.22*%
X203358800Y-54610000D03*
%TO.P,MX25,2,2*%
%TO.N,GND*%
X209708800Y-52070000D03*
%TD*%
D17*
%TO.P,MX8,*%
%TO.N,*%
X76937500Y-76200000D03*
X76937500Y-76200000D03*
D18*
X76517500Y-76200000D03*
X76517500Y-76200000D03*
D19*
X71437500Y-82100000D03*
D20*
X71437500Y-82100000D03*
D19*
X66437500Y-79900000D03*
D20*
X66437500Y-79900000D03*
D18*
X66357500Y-76200000D03*
X66357500Y-76200000D03*
D17*
X65937500Y-76200000D03*
X65937500Y-76200000D03*
D20*
%TO.P,MX8,1,1*%
%TO.N,/U1.P0.11*%
X67627500Y-73660000D03*
%TO.P,MX8,2,2*%
%TO.N,GND*%
X73977500Y-71120000D03*
%TD*%
D17*
%TO.P,MX5,*%
%TO.N,*%
X115037500Y-57150000D03*
X115037500Y-57150000D03*
D18*
X114617500Y-57150000D03*
X114617500Y-57150000D03*
D19*
X109537500Y-63050000D03*
D20*
X109537500Y-63050000D03*
D19*
X104537500Y-60850000D03*
D20*
X104537500Y-60850000D03*
D18*
X104457500Y-57150000D03*
X104457500Y-57150000D03*
D17*
X104037500Y-57150000D03*
X104037500Y-57150000D03*
D20*
%TO.P,MX5,1,1*%
%TO.N,/U1.P0.22*%
X105727500Y-54610000D03*
%TO.P,MX5,2,2*%
%TO.N,GND*%
X112077500Y-52070000D03*
%TD*%
D17*
%TO.P,MX6,*%
%TO.N,*%
X38837500Y-76200000D03*
X38837500Y-76200000D03*
D18*
X38417500Y-76200000D03*
X38417500Y-76200000D03*
D19*
X33337500Y-82100000D03*
D20*
X33337500Y-82100000D03*
D19*
X28337500Y-79900000D03*
D20*
X28337500Y-79900000D03*
D18*
X28257500Y-76200000D03*
X28257500Y-76200000D03*
D17*
X27837500Y-76200000D03*
X27837500Y-76200000D03*
D20*
%TO.P,MX6,1,1*%
%TO.N,/U1.P0.24*%
X29527500Y-73660000D03*
%TO.P,MX6,2,2*%
%TO.N,GND*%
X35877500Y-71120000D03*
%TD*%
D17*
%TO.P,MX4,*%
%TO.N,*%
X95987500Y-57150000D03*
X95987500Y-57150000D03*
D18*
X95567500Y-57150000D03*
X95567500Y-57150000D03*
D19*
X90487500Y-63050000D03*
D20*
X90487500Y-63050000D03*
D19*
X85487500Y-60850000D03*
D20*
X85487500Y-60850000D03*
D18*
X85407500Y-57150000D03*
X85407500Y-57150000D03*
D17*
X84987500Y-57150000D03*
X84987500Y-57150000D03*
D20*
%TO.P,MX4,1,1*%
%TO.N,/U1.P0.20*%
X86677500Y-54610000D03*
%TO.P,MX4,2,2*%
%TO.N,GND*%
X93027500Y-52070000D03*
%TD*%
D17*
%TO.P,MX35,*%
%TO.N,*%
X212668800Y-95250000D03*
X212668800Y-95250000D03*
D18*
X212248800Y-95250000D03*
X212248800Y-95250000D03*
D19*
X207168800Y-101150000D03*
D20*
X207168800Y-101150000D03*
D19*
X202168800Y-98950000D03*
D20*
X202168800Y-98950000D03*
D18*
X202088800Y-95250000D03*
X202088800Y-95250000D03*
D17*
X201668800Y-95250000D03*
X201668800Y-95250000D03*
D20*
%TO.P,MX35,1,1*%
%TO.N,/U2.P0.29*%
X203358800Y-92710000D03*
%TO.P,MX35,2,2*%
%TO.N,GND*%
X209708800Y-90170000D03*
%TD*%
D17*
%TO.P,MX2,*%
%TO.N,*%
X57887500Y-57150000D03*
X57887500Y-57150000D03*
D18*
X57467500Y-57150000D03*
X57467500Y-57150000D03*
D19*
X52387500Y-63050000D03*
D20*
X52387500Y-63050000D03*
D19*
X47387500Y-60850000D03*
D20*
X47387500Y-60850000D03*
D18*
X47307500Y-57150000D03*
X47307500Y-57150000D03*
D17*
X46887500Y-57150000D03*
X46887500Y-57150000D03*
D20*
%TO.P,MX2,1,1*%
%TO.N,/U1.P0.08*%
X48577500Y-54610000D03*
%TO.P,MX2,2,2*%
%TO.N,GND*%
X54927500Y-52070000D03*
%TD*%
D17*
%TO.P,MX23,*%
%TO.N,*%
X174568800Y-57150000D03*
X174568800Y-57150000D03*
D18*
X174148800Y-57150000D03*
X174148800Y-57150000D03*
D19*
X169068800Y-63050000D03*
D20*
X169068800Y-63050000D03*
D19*
X164068800Y-60850000D03*
D20*
X164068800Y-60850000D03*
D18*
X163988800Y-57150000D03*
X163988800Y-57150000D03*
D17*
X163568800Y-57150000D03*
X163568800Y-57150000D03*
D20*
%TO.P,MX23,1,1*%
%TO.N,/U2.P0.17*%
X165258800Y-54610000D03*
%TO.P,MX23,2,2*%
%TO.N,GND*%
X171608800Y-52070000D03*
%TD*%
D17*
%TO.P,MX31,*%
%TO.N,*%
X136468800Y-95250000D03*
X136468800Y-95250000D03*
D18*
X136048800Y-95250000D03*
X136048800Y-95250000D03*
D19*
X130968800Y-101150000D03*
D20*
X130968800Y-101150000D03*
D19*
X125968800Y-98950000D03*
D20*
X125968800Y-98950000D03*
D18*
X125888800Y-95250000D03*
X125888800Y-95250000D03*
D17*
X125468800Y-95250000D03*
X125468800Y-95250000D03*
D20*
%TO.P,MX31,1,1*%
%TO.N,/U2.P1.01*%
X127158800Y-92710000D03*
%TO.P,MX31,2,2*%
%TO.N,GND*%
X133508800Y-90170000D03*
%TD*%
D17*
%TO.P,MX32,*%
%TO.N,*%
X155518800Y-95250000D03*
X155518800Y-95250000D03*
D18*
X155098800Y-95250000D03*
X155098800Y-95250000D03*
D19*
X150018800Y-101150000D03*
D20*
X150018800Y-101150000D03*
D19*
X145018800Y-98950000D03*
D20*
X145018800Y-98950000D03*
D18*
X144938800Y-95250000D03*
X144938800Y-95250000D03*
D17*
X144518800Y-95250000D03*
X144518800Y-95250000D03*
D20*
%TO.P,MX32,1,1*%
%TO.N,/U2.P1.02*%
X146208800Y-92710000D03*
%TO.P,MX32,2,2*%
%TO.N,GND*%
X152558800Y-90170000D03*
%TD*%
D17*
%TO.P,MX37,*%
%TO.N,*%
X155518800Y-114300000D03*
X155518800Y-114300000D03*
D18*
X155098800Y-114300000D03*
X155098800Y-114300000D03*
D19*
X150018800Y-120200000D03*
D20*
X150018800Y-120200000D03*
D19*
X145018800Y-118000000D03*
D20*
X145018800Y-118000000D03*
D18*
X144938800Y-114300000D03*
X144938800Y-114300000D03*
D17*
X144518800Y-114300000D03*
X144518800Y-114300000D03*
D20*
%TO.P,MX37,1,1*%
%TO.N,/U2.P1.15*%
X146208800Y-111760000D03*
%TO.P,MX37,2,2*%
%TO.N,GND*%
X152558800Y-109220000D03*
%TD*%
D17*
%TO.P,MX29,*%
%TO.N,*%
X193618800Y-76200000D03*
X193618800Y-76200000D03*
D18*
X193198800Y-76200000D03*
X193198800Y-76200000D03*
D19*
X188118800Y-82100000D03*
D20*
X188118800Y-82100000D03*
D19*
X183118800Y-79900000D03*
D20*
X183118800Y-79900000D03*
D18*
X183038800Y-76200000D03*
X183038800Y-76200000D03*
D17*
X182618800Y-76200000D03*
X182618800Y-76200000D03*
D20*
%TO.P,MX29,1,1*%
%TO.N,/U2.P1.04*%
X184308800Y-73660000D03*
%TO.P,MX29,2,2*%
%TO.N,GND*%
X190658800Y-71120000D03*
%TD*%
D17*
%TO.P,MX15,*%
%TO.N,*%
X115037500Y-95250000D03*
X115037500Y-95250000D03*
D18*
X114617500Y-95250000D03*
X114617500Y-95250000D03*
D19*
X109537500Y-101150000D03*
D20*
X109537500Y-101150000D03*
D19*
X104537500Y-98950000D03*
D20*
X104537500Y-98950000D03*
D18*
X104457500Y-95250000D03*
X104457500Y-95250000D03*
D17*
X104037500Y-95250000D03*
X104037500Y-95250000D03*
D20*
%TO.P,MX15,1,1*%
%TO.N,/U1.P0.29*%
X105727500Y-92710000D03*
%TO.P,MX15,2,2*%
%TO.N,GND*%
X112077500Y-90170000D03*
%TD*%
D17*
%TO.P,MX11,*%
%TO.N,*%
X38837500Y-95250000D03*
X38837500Y-95250000D03*
D18*
X38417500Y-95250000D03*
X38417500Y-95250000D03*
D19*
X33337500Y-101150000D03*
D20*
X33337500Y-101150000D03*
D19*
X28337500Y-98950000D03*
D20*
X28337500Y-98950000D03*
D18*
X28257500Y-95250000D03*
X28257500Y-95250000D03*
D17*
X27837500Y-95250000D03*
X27837500Y-95250000D03*
D20*
%TO.P,MX11,1,1*%
%TO.N,/U1.P1.01*%
X29527500Y-92710000D03*
%TO.P,MX11,2,2*%
%TO.N,GND*%
X35877500Y-90170000D03*
%TD*%
D17*
%TO.P,MX24,*%
%TO.N,*%
X193618800Y-57150000D03*
X193618800Y-57150000D03*
D18*
X193198800Y-57150000D03*
X193198800Y-57150000D03*
D19*
X188118800Y-63050000D03*
D20*
X188118800Y-63050000D03*
D19*
X183118800Y-60850000D03*
D20*
X183118800Y-60850000D03*
D18*
X183038800Y-57150000D03*
X183038800Y-57150000D03*
D17*
X182618800Y-57150000D03*
X182618800Y-57150000D03*
D20*
%TO.P,MX24,1,1*%
%TO.N,/U2.P0.20*%
X184308800Y-54610000D03*
%TO.P,MX24,2,2*%
%TO.N,GND*%
X190658800Y-52070000D03*
%TD*%
D17*
%TO.P,MX10,*%
%TO.N,*%
X115037500Y-76200000D03*
X115037500Y-76200000D03*
D18*
X114617500Y-76200000D03*
X114617500Y-76200000D03*
D19*
X109537500Y-82100000D03*
D20*
X109537500Y-82100000D03*
D19*
X104537500Y-79900000D03*
D20*
X104537500Y-79900000D03*
D18*
X104457500Y-76200000D03*
X104457500Y-76200000D03*
D17*
X104037500Y-76200000D03*
X104037500Y-76200000D03*
D20*
%TO.P,MX10,1,1*%
%TO.N,/U1.P1.06*%
X105727500Y-73660000D03*
%TO.P,MX10,2,2*%
%TO.N,GND*%
X112077500Y-71120000D03*
%TD*%
D17*
%TO.P,MX18,*%
%TO.N,*%
X43600000Y-114300000D03*
X43600000Y-114300000D03*
D18*
X43180000Y-114300000D03*
X43180000Y-114300000D03*
D19*
X38100000Y-120200000D03*
D20*
X38100000Y-120200000D03*
D19*
X33100000Y-118000000D03*
D20*
X33100000Y-118000000D03*
D18*
X33020000Y-114300000D03*
X33020000Y-114300000D03*
D17*
X32600000Y-114300000D03*
X32600000Y-114300000D03*
D20*
%TO.P,MX18,1,1*%
%TO.N,/U1.P1.13*%
X34290000Y-111760000D03*
%TO.P,MX18,2,2*%
%TO.N,GND*%
X40640000Y-109220000D03*
%TD*%
D21*
%TO.N,/U1.P0.24*%
X35718750Y-47625000D03*
%TO.N,/U1.P1.00*%
X52387500Y-52387500D03*
%TO.N,/U1.P0.11*%
X61912500Y-54768750D03*
%TO.N,/U1.P1.04*%
X64293750Y-50006250D03*
%TO.N,/U1.P1.11*%
X59725356Y-33791502D03*
X61204143Y-37814153D03*
X59531250Y-66675000D03*
X62594906Y-39363358D03*
%TO.N,/U1.P1.13*%
X46488778Y-33295534D03*
X26193750Y-102393750D03*
X46555621Y-36169760D03*
X55980408Y-33136048D03*
%TO.N,/U1.P1.15*%
X100012500Y-104775000D03*
X73818750Y-35718750D03*
X83343750Y-42862500D03*
X62976383Y-35242459D03*
%TO.N,/U1.P0.02*%
X80962500Y-104775000D03*
X66675000Y-45243750D03*
%TO.N,/U1.P0.29*%
X64803612Y-32827637D03*
X99093794Y-53281429D03*
X78581250Y-38100000D03*
%TO.N,/U1.P0.31*%
X66763193Y-35967459D03*
X69056250Y-40481250D03*
X80962500Y-73818750D03*
X61928877Y-35717169D03*
%TO.N,/U1.P1.01*%
X30956250Y-59531250D03*
%TO.N,/U1.P1.02*%
X42862500Y-50006250D03*
X42862500Y-54768750D03*
%TO.N,/U1.P1.07*%
X60726222Y-52345635D03*
%TO.N,/U2.P1.07*%
X166216250Y-84015000D03*
X167146250Y-50265000D03*
X175226250Y-40875000D03*
%TO.N,/U2.P1.02*%
X165718334Y-39042154D03*
X159543750Y-45440000D03*
X163757622Y-41626729D03*
X171450000Y-35718750D03*
X150018750Y-66675000D03*
%TO.N,/U2.P1.01*%
X190956807Y-32066757D03*
X128587500Y-88106250D03*
X191605782Y-38967856D03*
%TO.N,/U2.P1.06*%
X197643750Y-71437500D03*
%TO.N,/U2.P0.31*%
X183046250Y-89285000D03*
%TO.N,/U2.P0.29*%
X196906250Y-53365000D03*
%TO.N,/U2.P0.02*%
X126526250Y-108165000D03*
X175806250Y-103055000D03*
X189916250Y-59975000D03*
%TO.N,/U2.P1.15*%
X173466250Y-99265000D03*
X146596250Y-105775000D03*
X184956250Y-49055000D03*
X177376250Y-48855000D03*
X177396250Y-52515000D03*
%TO.N,/U2.P1.13*%
X179375361Y-48330000D03*
X169136250Y-106075000D03*
X178156250Y-89225000D03*
X178486250Y-52125000D03*
%TO.N,/U2.P1.11*%
X196286250Y-67715000D03*
%TO.N,/U2.P1.04*%
X185463568Y-43646092D03*
X185119071Y-39156929D03*
%TO.N,/U2.P0.11*%
X188430681Y-39578826D03*
X185737500Y-50006250D03*
%TO.N,/U2.P1.00*%
X142936250Y-67695000D03*
X152400012Y-30956238D03*
%TO.N,/U2.P0.24*%
X123825000Y-69056250D03*
X123825000Y-50006250D03*
X176806657Y-31988433D03*
%TO.N,/U2.P0.22*%
X190697025Y-37484751D03*
X200025000Y-50006250D03*
%TO.N,/U2.P0.20*%
X183356250Y-52387500D03*
X188118750Y-38100000D03*
X188118750Y-33337500D03*
%TO.N,/U2.P0.17*%
X179241831Y-36541022D03*
X192881250Y-35718750D03*
X174192083Y-36083392D03*
X184007065Y-35718750D03*
%TO.N,/U2.P0.08*%
X166687500Y-40481250D03*
X184651919Y-41692807D03*
%TO.N,/U2.P0.06*%
X181426250Y-44245000D03*
X197643750Y-40481250D03*
X152400000Y-42862500D03*
X203558001Y-39401356D03*
%TO.N,GND*%
X42862500Y-38100000D03*
X42862500Y-40481250D03*
X175614940Y-32138907D03*
X201233375Y-35088325D03*
X64473352Y-31028089D03*
%TO.N,/RST2*%
X197643750Y-35718750D03*
%TD*%
D22*
%TO.N,GND*%
X200293001Y-30463274D02*
X200293001Y-34147951D01*
X200293001Y-34147951D02*
X201233375Y-35088325D01*
%TO.N,/U2.P0.22*%
X192989613Y-37484751D02*
X190697025Y-37484751D01*
X198954301Y-43449439D02*
X192989613Y-37484751D01*
X198954301Y-48935551D02*
X198954301Y-43449439D01*
X200025000Y-50006250D02*
X198954301Y-48935551D01*
%TO.N,/BATIN2*%
X205373001Y-40191051D02*
X205373001Y-45703274D01*
X201930234Y-36748284D02*
X205373001Y-40191051D01*
X179947586Y-38233684D02*
X181432986Y-36748284D01*
X164509615Y-33363808D02*
X169379491Y-38233684D01*
X181432986Y-36748284D02*
X201930234Y-36748284D01*
%TO.N,/U2.P1.01*%
X191467146Y-39106492D02*
X191605782Y-38967856D01*
X191467146Y-50085274D02*
X191467146Y-39106492D01*
X198368750Y-56986878D02*
X191467146Y-50085274D01*
X191638344Y-80125000D02*
X198368750Y-73394594D01*
%TO.N,/BATIN2*%
X169379491Y-38233684D02*
X179947586Y-38233684D01*
%TO.N,/U2.P1.01*%
X178593750Y-88106250D02*
X186575000Y-80125000D01*
X128587500Y-88106250D02*
X178593750Y-88106250D01*
X198368750Y-73394594D02*
X198368750Y-56986878D01*
X186575000Y-80125000D02*
X191638344Y-80125000D01*
%TO.N,/U2.P1.15*%
X185498125Y-49055000D02*
X184956250Y-49055000D01*
X187593001Y-46960124D02*
X185498125Y-49055000D01*
X187593001Y-45703274D02*
X187593001Y-46960124D01*
%TO.N,/U2.P0.24*%
X177004709Y-31790381D02*
X176806657Y-31988433D01*
X185424789Y-31790381D02*
X177004709Y-31790381D01*
X186751896Y-30463274D02*
X185424789Y-31790381D01*
X187593001Y-30463274D02*
X186751896Y-30463274D01*
%TO.N,GND*%
X174588533Y-31112500D02*
X175614940Y-32138907D01*
X174075000Y-31112500D02*
X174588533Y-31112500D01*
%TO.N,/U2.P0.20*%
X192673001Y-31702549D02*
X192673001Y-30463274D01*
X191583793Y-32791757D02*
X192673001Y-31702549D01*
X188664493Y-32791757D02*
X191583793Y-32791757D01*
X188118750Y-33337500D02*
X188664493Y-32791757D01*
%TO.N,/U2.P1.01*%
X184848292Y-33003274D02*
X185784809Y-32066757D01*
X185784809Y-32066757D02*
X190956807Y-32066757D01*
X182513001Y-33003274D02*
X184848292Y-33003274D01*
%TO.N,/U2.P0.17*%
X174809502Y-36083392D02*
X174192083Y-36083392D01*
X179162976Y-36619877D02*
X175345987Y-36619877D01*
X179241831Y-36541022D02*
X179162976Y-36619877D01*
X175345987Y-36619877D02*
X174809502Y-36083392D01*
%TO.N,/U2.P1.00*%
X142936250Y-40425000D02*
X142936250Y-67695000D01*
X152400000Y-30961250D02*
X142936250Y-40425000D01*
X152400000Y-30956250D02*
X152400000Y-30961250D01*
%TO.N,/U2.P1.06*%
X195351250Y-69145000D02*
X197643750Y-71437500D01*
X181143800Y-62081300D02*
X188207500Y-69145000D01*
X181143800Y-58255940D02*
X181143800Y-62081300D01*
X188207500Y-69145000D02*
X195351250Y-69145000D01*
X167602860Y-44715000D02*
X181143800Y-58255940D01*
X153227195Y-44715000D02*
X167602860Y-44715000D01*
X151675000Y-43162805D02*
X153227195Y-44715000D01*
X153590625Y-32146875D02*
X151675000Y-34062500D01*
X157784615Y-30334135D02*
X155971875Y-32146875D01*
X157784615Y-29778808D02*
X157784615Y-30334135D01*
X151675000Y-34062500D02*
X151675000Y-43162805D01*
X176556701Y-29586974D02*
X157976449Y-29586974D01*
X157976449Y-29586974D02*
X157784615Y-29778808D01*
X177433001Y-30463274D02*
X176556701Y-29586974D01*
X155971875Y-32146875D02*
X153590625Y-32146875D01*
%TO.N,/U1.P0.24*%
X46661800Y-45222405D02*
X47365505Y-44518700D01*
X51741800Y-44518700D02*
X52943100Y-45720000D01*
X35718750Y-47625000D02*
X45254395Y-47625000D01*
X47365505Y-44518700D02*
X51741800Y-44518700D01*
X45254395Y-47625000D02*
X46661800Y-46217595D01*
X46661800Y-46217595D02*
X46661800Y-45222405D01*
%TO.N,/U1.P1.00*%
X52387500Y-52387500D02*
X52387500Y-48815600D01*
X52387500Y-48815600D02*
X55483100Y-45720000D01*
%TO.N,/U1.P0.11*%
X58023100Y-50879350D02*
X58023100Y-45720000D01*
X61912500Y-54768750D02*
X58023100Y-50879350D01*
%TO.N,/U1.P1.04*%
X64293750Y-50006250D02*
X64293750Y-49450650D01*
X64293750Y-49450650D02*
X60563100Y-45720000D01*
%TO.N,/U1.P1.11*%
X69056250Y-55974322D02*
X69602500Y-55428072D01*
X64304400Y-47635650D02*
X64304400Y-41072852D01*
X69602500Y-55428072D02*
X69602500Y-52933750D01*
X59725356Y-36335366D02*
X59725356Y-33791502D01*
X59531250Y-64963178D02*
X65619428Y-58875000D01*
X65619428Y-58875000D02*
X67331250Y-58875000D01*
X67331250Y-58875000D02*
X69056250Y-57150000D01*
X69602500Y-52933750D02*
X64304400Y-47635650D01*
X59531250Y-66675000D02*
X59531250Y-64963178D01*
X64304400Y-41072852D02*
X62594906Y-39363358D01*
X61204143Y-37814153D02*
X59725356Y-36335366D01*
X69056250Y-57150000D02*
X69056250Y-55974322D01*
%TO.N,/U1.P1.13*%
X46488778Y-33295534D02*
X55820922Y-33295534D01*
X37531888Y-36169760D02*
X46555621Y-36169760D01*
X26193750Y-47507898D02*
X30446588Y-43255060D01*
X55820922Y-33295534D02*
X55980408Y-33136048D01*
X26193750Y-102393750D02*
X26193750Y-47507898D01*
X30446588Y-43255060D02*
X37531888Y-36169760D01*
%TO.N,/U1.P1.15*%
X83343750Y-42862500D02*
X83343750Y-46647493D01*
X62976383Y-35242459D02*
X73342459Y-35242459D01*
X73342459Y-35242459D02*
X73818750Y-35718750D01*
X92868750Y-68168178D02*
X100012500Y-75311928D01*
X92868750Y-56172493D02*
X92868750Y-68168178D01*
X100012500Y-75311928D02*
X100012500Y-104775000D01*
X83343750Y-46647493D02*
X92868750Y-56172493D01*
%TO.N,/U1.P0.02*%
X73818750Y-68168178D02*
X80962500Y-75311928D01*
X66675000Y-45243750D02*
X66675000Y-47560572D01*
X73818750Y-54704322D02*
X73818750Y-68168178D01*
X80962500Y-75311928D02*
X80962500Y-104775000D01*
X66675000Y-47560572D02*
X73818750Y-54704322D01*
%TO.N,/U1.P0.29*%
X83912365Y-38100000D02*
X78581250Y-38100000D01*
X64055537Y-32079562D02*
X49462662Y-32079562D01*
X64803612Y-32827637D02*
X64055537Y-32079562D01*
X49462662Y-32079562D02*
X47863100Y-30480000D01*
X99093794Y-53281429D02*
X83912365Y-38100000D01*
%TO.N,/U1.P0.31*%
X80962500Y-52387500D02*
X69056250Y-40481250D01*
X66763193Y-35967459D02*
X62179167Y-35967459D01*
X62179167Y-35967459D02*
X61928877Y-35717169D01*
X80962500Y-73818750D02*
X80962500Y-52387500D01*
%TO.N,/U1.P1.01*%
X33337500Y-45846705D02*
X36004205Y-43180000D01*
X33337500Y-53593072D02*
X33337500Y-45846705D01*
X30956250Y-59531250D02*
X30956250Y-55974322D01*
X36004205Y-43180000D02*
X58023100Y-43180000D01*
X30956250Y-55974322D02*
X33337500Y-53593072D01*
%TO.N,/U1.P1.02*%
X42862500Y-54768750D02*
X42862500Y-50006250D01*
%TO.N,/U1.P1.07*%
X59361800Y-39438700D02*
X58023100Y-38100000D01*
X60726222Y-52345635D02*
X59361800Y-50981213D01*
X59361800Y-50981213D02*
X59361800Y-39438700D01*
%TO.N,/U2.P1.07*%
X167146250Y-50265000D02*
X167146250Y-51868693D01*
X171443800Y-68427450D02*
X167286250Y-72585000D01*
X167146250Y-51868693D02*
X171443800Y-56166243D01*
X167286250Y-72585000D02*
X167286250Y-74623793D01*
X182513001Y-38083274D02*
X179721275Y-40875000D01*
X167286250Y-74623793D02*
X166216250Y-75693793D01*
X166216250Y-75693793D02*
X166216250Y-84015000D01*
X179721275Y-40875000D02*
X175226250Y-40875000D01*
X171443800Y-56166243D02*
X171443800Y-68427450D01*
%TO.N,/U2.P1.02*%
X165718334Y-39666017D02*
X165718334Y-39042154D01*
X171810358Y-35358392D02*
X182328119Y-35358392D01*
X163757622Y-41626729D02*
X165718334Y-39666017D01*
X171450000Y-35718750D02*
X171810358Y-35358392D01*
X150018750Y-66675000D02*
X159543750Y-57150000D01*
X159543750Y-57150000D02*
X159543750Y-45440000D01*
X182328119Y-35358392D02*
X182513001Y-35543274D01*
%TO.N,/U2.P0.31*%
X196414301Y-46904574D02*
X196414301Y-47420856D01*
X196706250Y-88195000D02*
X184136250Y-88195000D01*
X184136250Y-88195000D02*
X183046250Y-89285000D01*
X205333800Y-74577450D02*
X204143800Y-75767450D01*
X199724695Y-50731250D02*
X202292500Y-50731250D01*
X204143800Y-75767450D02*
X204143800Y-80757450D01*
X205333800Y-53772550D02*
X205333800Y-55626243D01*
X205333800Y-71271928D02*
X205333800Y-74577450D01*
X202292500Y-50731250D02*
X205333800Y-53772550D01*
X205333800Y-55626243D02*
X204143800Y-56816243D01*
X204143800Y-70081928D02*
X205333800Y-71271928D01*
X204143800Y-80757450D02*
X196706250Y-88195000D01*
X195213001Y-45703274D02*
X196414301Y-46904574D01*
X204143800Y-56816243D02*
X204143800Y-70081928D01*
X196414301Y-47420856D02*
X199724695Y-50731250D01*
%TO.N,/U2.P0.29*%
X192673001Y-49131751D02*
X196906250Y-53365000D01*
X192673001Y-45703274D02*
X192673001Y-49131751D01*
%TO.N,/U2.P0.02*%
X188683800Y-51251928D02*
X188683800Y-54356243D01*
X190493800Y-56166243D02*
X190493800Y-59397450D01*
X190133001Y-49802727D02*
X188683800Y-51251928D01*
X127446250Y-107245000D02*
X126526250Y-108165000D01*
X188683800Y-54356243D02*
X190493800Y-56166243D01*
X171616250Y-107245000D02*
X127446250Y-107245000D01*
X190133001Y-45703274D02*
X190133001Y-49802727D01*
X175806250Y-103055000D02*
X171616250Y-107245000D01*
X190493800Y-59397450D02*
X189916250Y-59975000D01*
%TO.N,/U2.P1.15*%
X177376250Y-52495000D02*
X177396250Y-52515000D01*
X177376250Y-48855000D02*
X177376250Y-52495000D01*
X173376250Y-99175000D02*
X166636872Y-99175000D01*
X160036872Y-105775000D02*
X146596250Y-105775000D01*
X173466250Y-99265000D02*
X173376250Y-99175000D01*
X166636872Y-99175000D02*
X160036872Y-105775000D01*
%TO.N,/U2.P1.13*%
X178486250Y-52125000D02*
X178486250Y-49219111D01*
X169136250Y-106075000D02*
X178156250Y-97055000D01*
X178486250Y-49219111D02*
X179375361Y-48330000D01*
X178156250Y-97055000D02*
X178156250Y-89225000D01*
%TO.N,/U2.P1.11*%
X187135043Y-59525000D02*
X188096250Y-59525000D01*
X182513001Y-45703274D02*
X181243800Y-46972475D01*
X186475647Y-58865604D02*
X187135043Y-59525000D01*
X181243800Y-57719544D02*
X182389860Y-58865604D01*
X182389860Y-58865604D02*
X186475647Y-58865604D01*
X188096250Y-59525000D02*
X196286250Y-67715000D01*
X181243800Y-46972475D02*
X181243800Y-57719544D01*
%TO.N,/U2.P1.04*%
X185463568Y-43646092D02*
X185463568Y-39501426D01*
X185463568Y-39501426D02*
X185119071Y-39156929D01*
%TO.N,/U2.P0.11*%
X188794301Y-39942446D02*
X188794301Y-46949449D01*
X188430681Y-39578826D02*
X188794301Y-39942446D01*
X188794301Y-46949449D02*
X185737500Y-50006250D01*
%TO.N,/U2.P0.24*%
X123825000Y-50006250D02*
X123825000Y-69056250D01*
%TO.N,/U2.P0.20*%
X186254301Y-46200869D02*
X186254301Y-39964449D01*
X186254301Y-39964449D02*
X188118750Y-38100000D01*
X183356250Y-49098920D02*
X186254301Y-46200869D01*
X183356250Y-52387500D02*
X183356250Y-49098920D01*
%TO.N,/U2.P0.17*%
X192881250Y-35718750D02*
X184007065Y-35718750D01*
%TO.N,/U2.P0.08*%
X166687500Y-40481250D02*
X167991250Y-41785000D01*
X167991250Y-41785000D02*
X184559726Y-41785000D01*
X184559726Y-41785000D02*
X184651919Y-41692807D01*
%TO.N,/U2.P0.06*%
X181406250Y-44265000D02*
X181426250Y-44245000D01*
X197643750Y-40481250D02*
X202406250Y-40481250D01*
X203486144Y-39401356D02*
X203558001Y-39401356D01*
X202406250Y-40481250D02*
X203486144Y-39401356D01*
X153802500Y-44265000D02*
X181406250Y-44265000D01*
X152400000Y-42862500D02*
X153802500Y-44265000D01*
%TO.N,GND*%
X42862500Y-40481250D02*
X42862500Y-38100000D01*
X42783100Y-45720000D02*
X40243100Y-45720000D01*
X64557763Y-31112500D02*
X64473352Y-31028089D01*
X66431250Y-31112500D02*
X64557763Y-31112500D01*
%TO.N,/BATIN1*%
X61654086Y-38539153D02*
X60903838Y-38539153D01*
X75625693Y-38275084D02*
X61918155Y-38275084D01*
X61918155Y-38275084D02*
X61654086Y-38539153D01*
X40127860Y-35444760D02*
X35163100Y-30480000D01*
X57809445Y-35444760D02*
X40127860Y-35444760D01*
X60903838Y-38539153D02*
X57809445Y-35444760D01*
X80474756Y-33426021D02*
X75625693Y-38275084D01*
%TO.N,Net-(J1-Pin_2)*%
X77474756Y-33826021D02*
X74101590Y-37199187D01*
X77474756Y-33426021D02*
X77474756Y-33826021D01*
X74101590Y-37199187D02*
X66144889Y-37199187D01*
%TO.N,Net-(J2-Pin_2)*%
X167432285Y-39286478D02*
X174224415Y-39286478D01*
X161509615Y-33363808D02*
X167432285Y-39286478D01*
%TO.N,/RST1*%
X57488546Y-34034755D02*
X43797855Y-34034755D01*
X60025661Y-33066502D02*
X58456799Y-33066502D01*
X65690937Y-33552813D02*
X60511973Y-33552813D01*
X43797855Y-34034755D02*
X40243100Y-30480000D01*
X58456799Y-33066502D02*
X57488546Y-34034755D01*
X60511973Y-33552813D02*
X60025661Y-33066502D01*
X66431250Y-32812500D02*
X65690937Y-33552813D01*
%TO.N,/RST2*%
X175390860Y-34128360D02*
X178971222Y-34128360D01*
X174075000Y-32812500D02*
X175390860Y-34128360D01*
X196142483Y-34217483D02*
X197643750Y-35718750D01*
X179060345Y-34217483D02*
X196142483Y-34217483D01*
X178971222Y-34128360D02*
X179060345Y-34217483D01*
%TD*%
M02*
