%TF.GenerationSoftware,KiCad,Pcbnew,7.0.6*%
%TF.CreationDate,2023-11-09T09:41:33-05:00*%
%TF.ProjectId,split38,73706c69-7433-4382-9e6b-696361645f70,rev?*%
%TF.SameCoordinates,Original*%
%TF.FileFunction,Profile,NP*%
%FSLAX46Y46*%
G04 Gerber Fmt 4.6, Leading zero omitted, Abs format (unit mm)*
G04 Created by KiCad (PCBNEW 7.0.6) date 2023-11-09 09:41:33*
%MOMM*%
%LPD*%
G01*
G04 APERTURE LIST*
%TA.AperFunction,Profile*%
%ADD10C,0.100000*%
%TD*%
%TA.AperFunction,Profile*%
%ADD11C,0.200000*%
%TD*%
G04 APERTURE END LIST*
D10*
X159543750Y-28575000D02*
X158353125Y-28575000D01*
X154643277Y-29962079D02*
G75*
G03*
X156327075Y-29264627I-50J2381370D01*
G01*
X158010873Y-28567175D02*
X158353125Y-28575000D01*
X158010873Y-28567175D02*
G75*
G03*
X156327075Y-29264627I50J-2381370D01*
G01*
X132753903Y-29264627D02*
G75*
G03*
X131070105Y-28567175I-1683798J-1683799D01*
G01*
X146224287Y-29264627D02*
G75*
G03*
X144540489Y-28567175I-1683807J-1683819D01*
G01*
X144540489Y-28567175D02*
G75*
G03*
X142856691Y-29264627I-4J-2381240D01*
G01*
X147908085Y-29962078D02*
G75*
G03*
X149591883Y-29264627I0J2381250D01*
G01*
X141172893Y-29962079D02*
G75*
G03*
X142856691Y-29264627I4J2381240D01*
G01*
X152959479Y-29264627D02*
G75*
G03*
X154643277Y-29962079I1683847J1683917D01*
G01*
X151275681Y-28567175D02*
G75*
G03*
X149591883Y-29264627I-70J-2381080D01*
G01*
X152959479Y-29264627D02*
G75*
G03*
X151275681Y-28567175I-1683756J-1683697D01*
G01*
X146224287Y-29264627D02*
G75*
G03*
X147908085Y-29962079I1683797J1683794D01*
G01*
X124334913Y-28567175D02*
X123825000Y-28575000D01*
X131070105Y-28567176D02*
G75*
G03*
X129386307Y-29264627I0J-2381250D01*
G01*
X132753903Y-29264627D02*
G75*
G03*
X134437701Y-29962079I1683805J1683815D01*
G01*
X127702509Y-29962079D02*
G75*
G03*
X129386307Y-29264627I4J2381240D01*
G01*
X126018711Y-29264627D02*
G75*
G03*
X124334913Y-28567175I-1683798J-1683799D01*
G01*
X126018711Y-29264627D02*
G75*
G03*
X127702509Y-29962079I1683798J1683799D01*
G01*
X139489095Y-29264627D02*
G75*
G03*
X141172893Y-29962079I1683797J1683794D01*
G01*
X137805297Y-28567175D02*
G75*
G03*
X136121499Y-29264627I-4J-2381240D01*
G01*
X134437701Y-29962079D02*
G75*
G03*
X136121499Y-29264627I4J2381240D01*
G01*
X139489095Y-29264627D02*
G75*
G03*
X137805297Y-28567175I-1683807J-1683819D01*
G01*
X116338998Y-28567175D02*
X116681250Y-28575000D01*
X116338998Y-28567175D02*
G75*
G03*
X114655200Y-29264627I50J-2381370D01*
G01*
X82663038Y-28567175D02*
X82153125Y-28575000D01*
X112971402Y-29962080D02*
G75*
G03*
X114655200Y-29264627I-52J2381373D01*
G01*
X104552404Y-29264635D02*
G75*
G03*
X102868614Y-28567175I-1683786J-1683744D01*
G01*
X102868614Y-28567174D02*
G75*
G03*
X101184816Y-29264627I4J-2381255D01*
G01*
X104552406Y-29264633D02*
G75*
G03*
X106236210Y-29962079I1683812J1683854D01*
G01*
X99501018Y-29962079D02*
G75*
G03*
X101184816Y-29264627I4J2381240D01*
G01*
X111287622Y-29264609D02*
G75*
G03*
X112971402Y-29962079I1683796J1683730D01*
G01*
X109603806Y-28567154D02*
G75*
G03*
X107920009Y-29264628I12J-2381225D01*
G01*
X106236210Y-29962076D02*
G75*
G03*
X107920008Y-29264627I8J2381237D01*
G01*
X111287621Y-29264610D02*
G75*
G03*
X109603806Y-28567175I-1683803J-1683869D01*
G01*
X97817212Y-29264635D02*
G75*
G03*
X96133422Y-28567175I-1683786J-1683744D01*
G01*
X96133422Y-28567174D02*
G75*
G03*
X94449624Y-29264627I4J-2381255D01*
G01*
X97817214Y-29264633D02*
G75*
G03*
X99501018Y-29962079I1683812J1683854D01*
G01*
X92765826Y-29962079D02*
G75*
G03*
X94449624Y-29264627I4J2381240D01*
G01*
X91082028Y-29264627D02*
G75*
G03*
X89398230Y-28567175I-1683798J-1683799D01*
G01*
X91082029Y-29264626D02*
G75*
G03*
X92765826Y-29962079I1683801J1683801D01*
G01*
X89398230Y-28567176D02*
G75*
G03*
X87714432Y-29264627I0J-2381250D01*
G01*
X86030634Y-29962080D02*
G75*
G03*
X87714432Y-29264627I-4J2381255D01*
G01*
X84346836Y-29264627D02*
G75*
G03*
X86030634Y-29962079I1683798J1683799D01*
G01*
X84346836Y-29264627D02*
G75*
G03*
X82663038Y-28567175I-1683798J-1683798D01*
G01*
D11*
X119062500Y-88106250D02*
X119062500Y-110728125D01*
X119062500Y-83343750D02*
G75*
G03*
X121443750Y-83343750I1190625J0D01*
G01*
X119062500Y-51196875D02*
X119062500Y-83343750D01*
X119062500Y-115490625D02*
X119062500Y-121443750D01*
X23812500Y-121443750D02*
G75*
G03*
X26193750Y-123825000I2381250J0D01*
G01*
X121443750Y-83343750D02*
X121443750Y-51196875D01*
X119062500Y-46434375D02*
G75*
G03*
X121443750Y-46434375I1190625J0D01*
G01*
X119062500Y-46434375D02*
X119062500Y-30956250D01*
D10*
X119311194Y-47625000D02*
G75*
G03*
X119311194Y-47625000I-248694J0D01*
G01*
D11*
X216693750Y-30956250D02*
X216693750Y-121443750D01*
D10*
X121692444Y-48815625D02*
G75*
G03*
X121692444Y-48815625I-248694J0D01*
G01*
D11*
X214312500Y-123825000D02*
X123825000Y-123825000D01*
X216693800Y-30956250D02*
G75*
G03*
X214312500Y-28575000I-2381300J-50D01*
G01*
D10*
X121692444Y-85725000D02*
G75*
G03*
X121692444Y-85725000I-248694J0D01*
G01*
D11*
X116681250Y-123825000D02*
G75*
G03*
X119062500Y-121443750I-50J2381300D01*
G01*
X119062500Y-110728125D02*
G75*
G03*
X121443750Y-110728125I1190625J0D01*
G01*
X121443750Y-121443750D02*
X121443750Y-115490625D01*
X116681250Y-123825000D02*
X26193750Y-123825000D01*
X159543750Y-28575000D02*
X214312500Y-28575000D01*
D10*
X121692444Y-50006250D02*
G75*
G03*
X121692444Y-50006250I-248694J0D01*
G01*
X121692444Y-84534375D02*
G75*
G03*
X121692444Y-84534375I-248694J0D01*
G01*
D11*
X26193750Y-28575000D02*
X82153125Y-28575000D01*
X121443750Y-46434375D02*
X121443750Y-30956250D01*
D10*
X119311194Y-50006250D02*
G75*
G03*
X119311194Y-50006250I-248694J0D01*
G01*
D11*
X23812500Y-121443750D02*
X23812500Y-30956250D01*
D10*
X121692444Y-86915625D02*
G75*
G03*
X121692444Y-86915625I-248694J0D01*
G01*
D11*
X119062500Y-30956250D02*
G75*
G03*
X116681250Y-28575000I-2381300J-50D01*
G01*
X121443750Y-110728125D02*
X121443750Y-88106250D01*
D10*
X121692444Y-47625000D02*
G75*
G03*
X121692444Y-47625000I-248694J0D01*
G01*
X121692444Y-114300000D02*
G75*
G03*
X121692444Y-114300000I-248694J0D01*
G01*
D11*
X121443750Y-51196875D02*
G75*
G03*
X119062500Y-51196875I-1190625J0D01*
G01*
D10*
X119311194Y-113109375D02*
G75*
G03*
X119311194Y-113109375I-248694J0D01*
G01*
X121692444Y-113109375D02*
G75*
G03*
X121692444Y-113109375I-248694J0D01*
G01*
X119311194Y-48815625D02*
G75*
G03*
X119311194Y-48815625I-248694J0D01*
G01*
X119311194Y-114300000D02*
G75*
G03*
X119311194Y-114300000I-248694J0D01*
G01*
D11*
X123825000Y-28575050D02*
G75*
G03*
X121443750Y-30956250I0J-2381250D01*
G01*
X214312500Y-123824950D02*
G75*
G03*
X216693750Y-121443750I0J2381250D01*
G01*
X121443750Y-88106250D02*
G75*
G03*
X119062500Y-88106250I-1190625J0D01*
G01*
D10*
X119311194Y-84534375D02*
G75*
G03*
X119311194Y-84534375I-248694J0D01*
G01*
D11*
X121443750Y-115490625D02*
G75*
G03*
X119062500Y-115490625I-1190625J0D01*
G01*
X121443700Y-121443750D02*
G75*
G03*
X123825000Y-123825000I2381300J50D01*
G01*
D10*
X119311194Y-86915625D02*
G75*
G03*
X119311194Y-86915625I-248694J0D01*
G01*
X119311194Y-85725000D02*
G75*
G03*
X119311194Y-85725000I-248694J0D01*
G01*
D11*
X26193750Y-28575000D02*
G75*
G03*
X23812500Y-30956250I0J-2381250D01*
G01*
D10*
X119311194Y-111918750D02*
G75*
G03*
X119311194Y-111918750I-248694J0D01*
G01*
X121692444Y-111918750D02*
G75*
G03*
X121692444Y-111918750I-248694J0D01*
G01*
M02*
