M48
; DRILL file {KiCad 7.0.6} date Thu Nov  9 09:41:21 2023
; FORMAT={-:-/ absolute / inch / decimal}
; #@! TF.CreationDate,2023-11-09T09:41:21-05:00
; #@! TF.GenerationSoftware,Kicad,Pcbnew,7.0.6
; #@! TF.FileFunction,NonPlated,1,2,NPTH
FMAT,2
INCH
; #@! TA.AperFunction,NonPlated,NPTH,ComponentDrill
T1C0.0295
; #@! TA.AperFunction,NonPlated,NPTH,ComponentDrill
T2C0.0354
; #@! TA.AperFunction,NonPlated,NPTH,ComponentDrill
T3C0.0669
; #@! TA.AperFunction,NonPlated,NPTH,ComponentDrill
T4C0.0748
; #@! TA.AperFunction,NonPlated,NPTH,ComponentDrill
T5C0.1575
%
G90
G05
T1
X2.7188Y-1.2042
X2.7188Y-1.3125
X6.75Y-1.2042
X6.75Y-1.3125
T2
X3.0207Y-1.2467
X3.1388Y-1.2467
X6.3291Y-1.2442
X6.4472Y-1.2442
T3
X1.1125Y-2.25
X1.1125Y-2.25
X1.1125Y-3.0
X1.1125Y-3.0
X1.1125Y-3.75
X1.1125Y-3.75
X1.3Y-4.5
X1.3Y-4.5
X1.5125Y-2.25
X1.5125Y-2.25
X1.5125Y-3.0
X1.5125Y-3.0
X1.5125Y-3.75
X1.5125Y-3.75
X1.7Y-4.5
X1.7Y-4.5
X1.8625Y-2.25
X1.8625Y-2.25
X1.8625Y-3.0
X1.8625Y-3.0
X1.8625Y-3.75
X1.8625Y-3.75
X2.2625Y-2.25
X2.2625Y-2.25
X2.2625Y-3.0
X2.2625Y-3.0
X2.2625Y-3.75
X2.2625Y-3.75
X2.425Y-4.5
X2.425Y-4.5
X2.6125Y-2.25
X2.6125Y-2.25
X2.6125Y-3.0
X2.6125Y-3.0
X2.6125Y-3.75
X2.6125Y-3.75
X2.825Y-4.5
X2.825Y-4.5
X3.0125Y-2.25
X3.0125Y-2.25
X3.0125Y-3.0
X3.0125Y-3.0
X3.0125Y-3.75
X3.0125Y-3.75
X3.3625Y-2.25
X3.3625Y-2.25
X3.3625Y-3.0
X3.3625Y-3.0
X3.3625Y-3.75
X3.3625Y-3.75
X3.3625Y-4.5
X3.3625Y-4.5
X3.7625Y-2.25
X3.7625Y-2.25
X3.7625Y-3.0
X3.7625Y-3.0
X3.7625Y-3.75
X3.7625Y-3.75
X3.7625Y-4.5
X3.7625Y-4.5
X4.1125Y-2.25
X4.1125Y-2.25
X4.1125Y-3.0
X4.1125Y-3.0
X4.1125Y-3.75
X4.1125Y-3.75
X4.1125Y-4.5
X4.1125Y-4.5
X4.5125Y-2.25
X4.5125Y-2.25
X4.5125Y-3.0
X4.5125Y-3.0
X4.5125Y-3.75
X4.5125Y-3.75
X4.5125Y-4.5
X4.5125Y-4.5
X4.9563Y-2.25
X4.9563Y-2.25
X4.9563Y-3.0
X4.9563Y-3.0
X4.9563Y-3.75
X4.9563Y-3.75
X4.9563Y-4.5
X4.9563Y-4.5
X5.3563Y-2.25
X5.3563Y-2.25
X5.3563Y-3.0
X5.3563Y-3.0
X5.3563Y-3.75
X5.3563Y-3.75
X5.3563Y-4.5
X5.3563Y-4.5
X5.7063Y-2.25
X5.7063Y-2.25
X5.7063Y-3.0
X5.7063Y-3.0
X5.7063Y-3.75
X5.7063Y-3.75
X5.7063Y-4.5
X5.7063Y-4.5
X6.1063Y-2.25
X6.1063Y-2.25
X6.1063Y-3.0
X6.1063Y-3.0
X6.1063Y-3.75
X6.1063Y-3.75
X6.1063Y-4.5
X6.1063Y-4.5
X6.4563Y-2.25
X6.4563Y-2.25
X6.4563Y-3.0
X6.4563Y-3.0
X6.4563Y-3.75
X6.4563Y-3.75
X6.6438Y-4.5
X6.6438Y-4.5
X6.8563Y-2.25
X6.8563Y-2.25
X6.8563Y-3.0
X6.8563Y-3.0
X6.8563Y-3.75
X6.8563Y-3.75
X7.0438Y-4.5
X7.0438Y-4.5
X7.2063Y-2.25
X7.2063Y-2.25
X7.2063Y-3.0
X7.2063Y-3.0
X7.2063Y-3.75
X7.2063Y-3.75
X7.6063Y-2.25
X7.6063Y-2.25
X7.6063Y-3.0
X7.6063Y-3.0
X7.6063Y-3.75
X7.6063Y-3.75
X7.7688Y-4.5
X7.7688Y-4.5
X7.9563Y-2.25
X7.9563Y-2.25
X7.9563Y-3.0
X7.9563Y-3.0
X7.9563Y-3.75
X7.9563Y-3.75
X8.1688Y-4.5
X8.1688Y-4.5
X8.3563Y-2.25
X8.3563Y-2.25
X8.3563Y-3.0
X8.3563Y-3.0
X8.3563Y-3.75
X8.3563Y-3.75
T4
X1.096Y-2.25
X1.096Y-2.25
X1.096Y-3.0
X1.096Y-3.0
X1.096Y-3.75
X1.096Y-3.75
X1.2835Y-4.5
X1.2835Y-4.5
X1.529Y-2.25
X1.529Y-2.25
X1.529Y-3.0
X1.529Y-3.0
X1.529Y-3.75
X1.529Y-3.75
X1.7165Y-4.5
X1.7165Y-4.5
X1.846Y-2.25
X1.846Y-2.25
X1.846Y-3.0
X1.846Y-3.0
X1.846Y-3.75
X1.846Y-3.75
X2.279Y-2.25
X2.279Y-2.25
X2.279Y-3.0
X2.279Y-3.0
X2.279Y-3.75
X2.279Y-3.75
X2.4085Y-4.5
X2.4085Y-4.5
X2.596Y-2.25
X2.596Y-2.25
X2.596Y-3.0
X2.596Y-3.0
X2.596Y-3.75
X2.596Y-3.75
X2.8415Y-4.5
X2.8415Y-4.5
X3.029Y-2.25
X3.029Y-2.25
X3.029Y-3.0
X3.029Y-3.0
X3.029Y-3.75
X3.029Y-3.75
X3.346Y-2.25
X3.346Y-2.25
X3.346Y-3.0
X3.346Y-3.0
X3.346Y-3.75
X3.346Y-3.75
X3.346Y-4.5
X3.346Y-4.5
X3.779Y-2.25
X3.779Y-2.25
X3.779Y-3.0
X3.779Y-3.0
X3.779Y-3.75
X3.779Y-3.75
X3.779Y-4.5
X3.779Y-4.5
X4.096Y-2.25
X4.096Y-2.25
X4.096Y-3.0
X4.096Y-3.0
X4.096Y-3.75
X4.096Y-3.75
X4.096Y-4.5
X4.096Y-4.5
X4.529Y-2.25
X4.529Y-2.25
X4.529Y-3.0
X4.529Y-3.0
X4.529Y-3.75
X4.529Y-3.75
X4.529Y-4.5
X4.529Y-4.5
X4.9397Y-2.25
X4.9397Y-2.25
X4.9397Y-3.0
X4.9397Y-3.0
X4.9397Y-3.75
X4.9397Y-3.75
X4.9397Y-4.5
X4.9397Y-4.5
X5.3728Y-2.25
X5.3728Y-2.25
X5.3728Y-3.0
X5.3728Y-3.0
X5.3728Y-3.75
X5.3728Y-3.75
X5.3728Y-4.5
X5.3728Y-4.5
X5.6897Y-2.25
X5.6897Y-2.25
X5.6897Y-3.0
X5.6897Y-3.0
X5.6897Y-3.75
X5.6897Y-3.75
X5.6897Y-4.5
X5.6897Y-4.5
X6.1228Y-2.25
X6.1228Y-2.25
X6.1228Y-3.0
X6.1228Y-3.0
X6.1228Y-3.75
X6.1228Y-3.75
X6.1228Y-4.5
X6.1228Y-4.5
X6.4397Y-2.25
X6.4397Y-2.25
X6.4397Y-3.0
X6.4397Y-3.0
X6.4397Y-3.75
X6.4397Y-3.75
X6.6272Y-4.5
X6.6272Y-4.5
X6.8728Y-2.25
X6.8728Y-2.25
X6.8728Y-3.0
X6.8728Y-3.0
X6.8728Y-3.75
X6.8728Y-3.75
X7.0603Y-4.5
X7.0603Y-4.5
X7.1897Y-2.25
X7.1897Y-2.25
X7.1897Y-3.0
X7.1897Y-3.0
X7.1897Y-3.75
X7.1897Y-3.75
X7.6228Y-2.25
X7.6228Y-2.25
X7.6228Y-3.0
X7.6228Y-3.0
X7.6228Y-3.75
X7.6228Y-3.75
X7.7522Y-4.5
X7.7522Y-4.5
X7.9397Y-2.25
X7.9397Y-2.25
X7.9397Y-3.0
X7.9397Y-3.0
X7.9397Y-3.75
X7.9397Y-3.75
X8.1853Y-4.5
X8.1853Y-4.5
X8.3728Y-2.25
X8.3728Y-2.25
X8.3728Y-3.0
X8.3728Y-3.0
X8.3728Y-3.75
X8.3728Y-3.75
T5
X1.3125Y-2.25
X1.3125Y-2.25
X1.3125Y-3.0
X1.3125Y-3.0
X1.3125Y-3.75
X1.3125Y-3.75
X1.5Y-4.5
X1.5Y-4.5
X2.0625Y-2.25
X2.0625Y-2.25
X2.0625Y-3.0
X2.0625Y-3.0
X2.0625Y-3.75
X2.0625Y-3.75
X2.625Y-4.5
X2.625Y-4.5
X2.8125Y-2.25
X2.8125Y-2.25
X2.8125Y-3.0
X2.8125Y-3.0
X2.8125Y-3.75
X2.8125Y-3.75
X3.5625Y-2.25
X3.5625Y-2.25
X3.5625Y-3.0
X3.5625Y-3.0
X3.5625Y-3.75
X3.5625Y-3.75
X3.5625Y-4.5
X3.5625Y-4.5
X4.3125Y-2.25
X4.3125Y-2.25
X4.3125Y-3.0
X4.3125Y-3.0
X4.3125Y-3.75
X4.3125Y-3.75
X4.3125Y-4.5
X4.3125Y-4.5
X5.1563Y-2.25
X5.1563Y-2.25
X5.1563Y-3.0
X5.1563Y-3.0
X5.1563Y-3.75
X5.1563Y-3.75
X5.1563Y-4.5
X5.1563Y-4.5
X5.9063Y-2.25
X5.9063Y-2.25
X5.9063Y-3.0
X5.9063Y-3.0
X5.9063Y-3.75
X5.9063Y-3.75
X5.9063Y-4.5
X5.9063Y-4.5
X6.6563Y-2.25
X6.6563Y-2.25
X6.6563Y-3.0
X6.6563Y-3.0
X6.6563Y-3.75
X6.6563Y-3.75
X6.8438Y-4.5
X6.8438Y-4.5
X7.4063Y-2.25
X7.4063Y-2.25
X7.4063Y-3.0
X7.4063Y-3.0
X7.4063Y-3.75
X7.4063Y-3.75
X7.9688Y-4.5
X7.9688Y-4.5
X8.1563Y-2.25
X8.1563Y-2.25
X8.1563Y-3.0
X8.1563Y-3.0
X8.1563Y-3.75
X8.1563Y-3.75
T0
M30
