M48
; DRILL file {KiCad 7.0.6} date Thu Nov  9 09:41:21 2023
; FORMAT={-:-/ absolute / inch / decimal}
; #@! TF.CreationDate,2023-11-09T09:41:21-05:00
; #@! TF.GenerationSoftware,Kicad,Pcbnew,7.0.6
; #@! TF.FileFunction,Plated,1,2,PTH
FMAT,2
INCH
; #@! TA.AperFunction,Plated,PTH,ViaDrill
T1C0.0157
; #@! TA.AperFunction,Plated,PTH,ComponentDrill
T2C0.0295
; #@! TA.AperFunction,Plated,PTH,ComponentDrill
T3C0.0430
; #@! TA.AperFunction,Plated,PTH,ComponentDrill
T4C0.1181
%
G90
G05
T1
X1.0312Y-4.0312
X1.2188Y-2.3438
X1.4062Y-1.875
X1.6875Y-1.5
X1.6875Y-1.5938
X1.6875Y-1.9688
X1.6875Y-2.1562
X1.8303Y-1.3108
X1.8329Y-1.424
X2.0625Y-2.0625
X2.204Y-1.3046
X2.3438Y-2.625
X2.3514Y-1.3304
X2.3908Y-2.0609
X2.4096Y-1.4887
X2.4375Y-2.1562
X2.4381Y-1.4062
X2.4644Y-1.5497
X2.4794Y-1.3875
X2.5312Y-1.9688
X2.5383Y-1.2216
X2.5513Y-1.2924
X2.625Y-1.7812
X2.6285Y-1.416
X2.7188Y-1.5938
X2.9062Y-1.4062
X3.0938Y-1.5
X3.1875Y-2.9062
X3.1875Y-4.125
X3.2812Y-1.6875
X3.9013Y-2.0977
X3.9375Y-4.125
X4.875Y-1.9688
X4.875Y-2.7188
X4.9813Y-4.2585
X5.0625Y-3.4688
X5.6274Y-2.6652
X5.7715Y-4.1644
X5.9062Y-2.625
X6.0Y-1.6875
X6.0Y-1.2187
X6.2812Y-1.789
X6.4472Y-1.6388
X6.5243Y-1.5371
X6.5439Y-3.3077
X6.5625Y-1.5938
X6.5806Y-1.9789
X6.6589Y-4.1762
X6.75Y-1.4062
X6.8294Y-3.9081
X6.858Y-1.4206
X6.8987Y-1.6093
X6.914Y-1.2653
X6.9215Y-4.0573
X6.9609Y-1.2594
X6.9833Y-1.9234
X6.9841Y-2.0675
X7.014Y-3.5128
X7.027Y-2.0522
X7.0568Y-1.4386
X7.062Y-1.9028
X7.1428Y-1.7419
X7.2065Y-3.5152
X7.2188Y-2.0625
X7.2444Y-1.4062
X7.2698Y-1.6414
X7.2817Y-1.9313
X7.2882Y-1.5416
X7.3017Y-1.7184
X7.3125Y-1.9688
X7.4062Y-1.3125
X7.4062Y-1.5
X7.4185Y-1.5582
X7.477Y-2.3612
X7.5078Y-1.4758
X7.518Y-1.2625
X7.5435Y-1.5342
X7.5938Y-1.4062
X7.7278Y-2.6659
X7.7522Y-2.101
X7.7812Y-1.4062
X7.7812Y-1.5938
X7.7812Y-2.8125
X7.875Y-1.9688
X7.9226Y-1.3814
X8.0141Y-1.5512
T2
X2.6041Y-1.4645
X2.6041Y-1.5433
X6.8592Y-1.468
X6.8592Y-1.5467
T3
X1.3844Y-1.2
X1.3844Y-1.8
X1.4844Y-1.2
X1.4844Y-1.8
X1.5844Y-1.2
X1.5844Y-1.8
X1.6844Y-1.2
X1.6844Y-1.8
X1.7844Y-1.2
X1.7844Y-1.8
X1.8844Y-1.2
X1.8844Y-1.8
X1.9844Y-1.2
X1.9844Y-1.8
X2.0844Y-1.2
X2.0844Y-1.8
X2.1844Y-1.2
X2.1844Y-1.8
X2.2844Y-1.2
X2.2844Y-1.5
X2.2844Y-1.6
X2.2844Y-1.7
X2.2844Y-1.8
X2.3844Y-1.2
X2.3844Y-1.8
X2.4844Y-1.2
X2.4844Y-1.8
X6.9856Y-1.1993
X6.9856Y-1.7993
X7.0856Y-1.1993
X7.0856Y-1.7993
X7.1856Y-1.1993
X7.1856Y-1.2993
X7.1856Y-1.3993
X7.1856Y-1.4993
X7.1856Y-1.7993
X7.2856Y-1.1993
X7.2856Y-1.7993
X7.3856Y-1.1993
X7.3856Y-1.7993
X7.4856Y-1.1993
X7.4856Y-1.7993
X7.5856Y-1.1993
X7.5856Y-1.7993
X7.6856Y-1.1993
X7.6856Y-1.7993
X7.7856Y-1.1993
X7.7856Y-1.7993
X7.8856Y-1.1993
X7.8856Y-1.7993
X7.9856Y-1.1993
X7.9856Y-1.7993
X8.0856Y-1.1993
X8.0856Y-1.7993
T4
X1.1156Y-2.3957
X1.1156Y-2.3957
X1.1156Y-3.1457
X1.1156Y-3.1457
X1.1156Y-3.8957
X1.1156Y-3.8957
X1.1625Y-2.15
X1.1625Y-2.9
X1.1625Y-3.65
X1.3031Y-4.6457
X1.3031Y-4.6457
X1.3125Y-2.4823
X1.3125Y-2.4823
X1.3125Y-3.2323
X1.3125Y-3.2323
X1.3125Y-3.9823
X1.3125Y-3.9823
X1.35Y-4.4
X1.4125Y-2.05
X1.4125Y-2.8
X1.4125Y-3.55
X1.5Y-4.7323
X1.5Y-4.7323
X1.6Y-4.3
X1.8656Y-2.3957
X1.8656Y-2.3957
X1.8656Y-3.1457
X1.8656Y-3.1457
X1.8656Y-3.8957
X1.8656Y-3.8957
X1.9125Y-2.15
X1.9125Y-2.9
X1.9125Y-3.65
X2.0625Y-2.4823
X2.0625Y-2.4823
X2.0625Y-3.2323
X2.0625Y-3.2323
X2.0625Y-3.9823
X2.0625Y-3.9823
X2.1625Y-2.05
X2.1625Y-2.8
X2.1625Y-3.55
X2.4281Y-4.6457
X2.4281Y-4.6457
X2.475Y-4.4
X2.6156Y-2.3957
X2.6156Y-2.3957
X2.6156Y-3.1457
X2.6156Y-3.1457
X2.6156Y-3.8957
X2.6156Y-3.8957
X2.625Y-4.7323
X2.625Y-4.7323
X2.6625Y-2.15
X2.6625Y-2.9
X2.6625Y-3.65
X2.725Y-4.3
X2.8125Y-2.4823
X2.8125Y-2.4823
X2.8125Y-3.2323
X2.8125Y-3.2323
X2.8125Y-3.9823
X2.8125Y-3.9823
X2.9125Y-2.05
X2.9125Y-2.8
X2.9125Y-3.55
X3.3656Y-2.3957
X3.3656Y-2.3957
X3.3656Y-3.1457
X3.3656Y-3.1457
X3.3656Y-3.8957
X3.3656Y-3.8957
X3.3656Y-4.6457
X3.3656Y-4.6457
X3.4125Y-2.15
X3.4125Y-2.9
X3.4125Y-3.65
X3.4125Y-4.4
X3.5625Y-2.4823
X3.5625Y-2.4823
X3.5625Y-3.2323
X3.5625Y-3.2323
X3.5625Y-3.9823
X3.5625Y-3.9823
X3.5625Y-4.7323
X3.5625Y-4.7323
X3.6625Y-2.05
X3.6625Y-2.8
X3.6625Y-3.55
X3.6625Y-4.3
X4.1156Y-2.3957
X4.1156Y-2.3957
X4.1156Y-3.1457
X4.1156Y-3.1457
X4.1156Y-3.8957
X4.1156Y-3.8957
X4.1156Y-4.6457
X4.1156Y-4.6457
X4.1625Y-2.15
X4.1625Y-2.9
X4.1625Y-3.65
X4.1625Y-4.4
X4.3125Y-2.4823
X4.3125Y-2.4823
X4.3125Y-3.2323
X4.3125Y-3.2323
X4.3125Y-3.9823
X4.3125Y-3.9823
X4.3125Y-4.7323
X4.3125Y-4.7323
X4.4125Y-2.05
X4.4125Y-2.8
X4.4125Y-3.55
X4.4125Y-4.3
X4.9594Y-2.3957
X4.9594Y-2.3957
X4.9594Y-3.1457
X4.9594Y-3.1457
X4.9594Y-3.8957
X4.9594Y-3.8957
X4.9594Y-4.6457
X4.9594Y-4.6457
X5.0063Y-2.15
X5.0063Y-2.9
X5.0063Y-3.65
X5.0063Y-4.4
X5.1563Y-2.4823
X5.1563Y-2.4823
X5.1563Y-3.2323
X5.1563Y-3.2323
X5.1563Y-3.9823
X5.1563Y-3.9823
X5.1563Y-4.7323
X5.1563Y-4.7323
X5.2563Y-2.05
X5.2563Y-2.8
X5.2563Y-3.55
X5.2563Y-4.3
X5.7094Y-2.3957
X5.7094Y-2.3957
X5.7094Y-3.1457
X5.7094Y-3.1457
X5.7094Y-3.8957
X5.7094Y-3.8957
X5.7094Y-4.6457
X5.7094Y-4.6457
X5.7563Y-2.15
X5.7563Y-2.9
X5.7563Y-3.65
X5.7563Y-4.4
X5.9063Y-2.4823
X5.9063Y-2.4823
X5.9063Y-3.2323
X5.9063Y-3.2323
X5.9063Y-3.9823
X5.9063Y-3.9823
X5.9063Y-4.7323
X5.9063Y-4.7323
X6.0063Y-2.05
X6.0063Y-2.8
X6.0063Y-3.55
X6.0063Y-4.3
X6.4594Y-2.3957
X6.4594Y-2.3957
X6.4594Y-3.1457
X6.4594Y-3.1457
X6.4594Y-3.8957
X6.4594Y-3.8957
X6.5063Y-2.15
X6.5063Y-2.9
X6.5063Y-3.65
X6.6469Y-4.6457
X6.6469Y-4.6457
X6.6563Y-2.4823
X6.6563Y-2.4823
X6.6563Y-3.2323
X6.6563Y-3.2323
X6.6563Y-3.9823
X6.6563Y-3.9823
X6.6938Y-4.4
X6.7563Y-2.05
X6.7563Y-2.8
X6.7563Y-3.55
X6.8438Y-4.7323
X6.8438Y-4.7323
X6.9438Y-4.3
X7.2094Y-2.3957
X7.2094Y-2.3957
X7.2094Y-3.1457
X7.2094Y-3.1457
X7.2094Y-3.8957
X7.2094Y-3.8957
X7.2563Y-2.15
X7.2563Y-2.9
X7.2563Y-3.65
X7.4063Y-2.4823
X7.4063Y-2.4823
X7.4063Y-3.2323
X7.4063Y-3.2323
X7.4063Y-3.9823
X7.4063Y-3.9823
X7.5063Y-2.05
X7.5063Y-2.8
X7.5063Y-3.55
X7.7719Y-4.6457
X7.7719Y-4.6457
X7.8188Y-4.4
X7.9594Y-2.3957
X7.9594Y-2.3957
X7.9594Y-3.1457
X7.9594Y-3.1457
X7.9594Y-3.8957
X7.9594Y-3.8957
X7.9688Y-4.7323
X7.9688Y-4.7323
X8.0063Y-2.15
X8.0063Y-2.9
X8.0063Y-3.65
X8.0688Y-4.3
X8.1563Y-2.4823
X8.1563Y-2.4823
X8.1563Y-3.2323
X8.1563Y-3.2323
X8.1563Y-3.9823
X8.1563Y-3.9823
X8.2563Y-2.05
X8.2563Y-2.8
X8.2563Y-3.55
T0
M30
